<?xml version="1.0" encoding="utf-8"?>
<!-- Generator: Adobe Illustrator 25.0.0, SVG Export Plug-In . SVG Version: 6.00 Build 0)  -->
<svg version="1.1" id="Layer_1" xmlns="http://www.w3.org/2000/svg" xmlns:xlink="http://www.w3.org/1999/xlink" x="0px" y="0px"
	 viewBox="0 0 1000 1000" style="enable-background:new 0 0 1000 1000;" xml:space="preserve">
<style type="text/css">
	.st0{fill:#CFCFFF;}
	.st1{fill:#C97043;}
	.st2{fill:#E96F5F;}
	.st3{opacity:0.35;}
	.st4{fill:#FFFFFF;}
	.st5{fill:#C95249;}
	.st6{fill:#371A45;}
	.st7{fill:#F9D9C2;}
	.st8{fill:#777782;}
	.st9{opacity:0.3;}
	.st10{fill:#F9D3B7;}
	.st11{fill:#B25B36;}
	.st12{fill:#E0B299;}
	.st13{fill:#FFCA83;}
	.st14{fill:#FFB65F;}
	.st15{fill:#512717;}
	.st16{opacity:0.4;}
	.st17{fill:#FFA1A8;}
	.st18{fill:#FC7C8B;}
	.st19{opacity:0.2;}
	.st20{fill:#FF8080;}
	.st21{opacity:0.5;}
	.st22{fill:#E5A265;}
	.st23{fill:#CC854A;}
	.st24{fill:#FFC248;}
	.st25{fill:#FF9831;}
	.st26{fill:#FFF3E9;}
	.st27{fill:#FF0068;}
</style>
<g>
	<g>
		<rect class="st0" width="1000" height="1000"/>
	</g>
	<g>
		<g>
			<path class="st1" d="M472.13,513.93c-35.87-12.94-83.8-40.66-115.46-73.22c-31.6-32.45-43.32-62.32-65.59-85.85
				c-15.2-15.44-34.76-18.25-50.86-12.47c-21.77,7.98-37.57,34.13-29.84,70.07c11.56,53.65,83.06,149.78,213.34,175.5L472.13,513.93
				z"/>
		</g>
		<g>
			<path class="st1" d="M472.13,513.93l-6.44,9.84l-41.99,64.2c-130.27-25.72-201.76-121.85-213.33-175.5
				c-7.73-35.93,8.08-62.09,29.84-70.07c16.11-5.78,35.66-2.97,50.86,12.47c22.27,23.53,33.99,53.4,65.59,85.85
				c4.43,4.56,9.19,9.02,14.18,13.36C401.51,480.74,441.27,502.8,472.13,513.93z"/>
		</g>
		<g>
			<path class="st2" d="M472.13,513.93l-6.44,9.84l-41.99,64.2c-0.25-0.05-0.48-0.09-0.73-0.15
				C328.79,569,265.43,513.37,233.34,463.79c-0.02-0.03-0.05-0.07-0.07-0.09c-12.1-18.72-19.74-36.56-22.9-51.23
				c-7.73-35.93,8.08-62.09,29.84-70.07c16.11-5.78,35.66-2.97,50.86,12.47c22.27,23.53,33.99,53.4,65.59,85.85
				c4.43,4.56,9.19,9.02,14.18,13.36C401.51,480.74,441.27,502.8,472.13,513.93z"/>
		</g>
		<g class="st3">
			<path class="st4" d="M472.13,513.93l-6.44,9.84l-41.99,64.2c-0.25-0.05-0.48-0.09-0.73-0.15c-52.1-10.4-94.77-32.08-127.92-57.76
				c30.44,22.48,68.89,41.24,115.28,50.5c0.24,0.06,0.46,0.09,0.69,0.14l39.51-60.42l6.06-9.26
				c-29.03-10.47-66.45-31.24-95.31-56.32c-4.7-4.09-9.18-8.3-13.34-12.58c-29.75-30.54-40.77-58.66-61.73-80.8
				c-14.31-14.53-32.71-17.17-47.87-11.73c-16.47,6.04-29.3,23.13-29.92,47.18c-0.83-27.78,13.34-47.61,31.8-54.38
				c16.11-5.78,35.66-2.97,50.86,12.47c22.27,23.53,33.99,53.4,65.59,85.85c4.43,4.56,9.19,9.02,14.18,13.36
				C401.51,480.74,441.27,502.8,472.13,513.93z"/>
		</g>
		<g>
			<path class="st5" d="M422.97,587.81C328.79,569,265.43,513.37,233.34,463.79c16.24,22.19,122.78,108.45,176.25,74.3
				C430.45,524.77,427.84,561.18,422.97,587.81z"/>
		</g>
		<g>
			<path class="st5" d="M472.13,513.93l-6.44,9.84c-11.66-1.94-25.53-5.41-37.24-11.65c-27.07-14.42-47.92-40.08-57.6-58.05
				C401.51,480.74,441.27,502.8,472.13,513.93z"/>
		</g>
		<g>
			<path class="st6" d="M423.71,591.76c-0.24,0-0.49-0.02-0.74-0.07c-74.01-14.61-124.09-50.62-153.07-78.26
				c-32.83-31.31-56.47-68.75-63.24-100.17c-8.58-39.88,10.7-66.54,32.24-74.44c19.31-6.93,39.81-1.93,54.87,13.37
				c10.26,10.84,18.29,22.91,26.79,35.7c10.63,15.99,21.63,32.52,38.81,50.17c32.24,33.16,80.5,60.2,114.03,72.29
				c1.97,0.71,2.99,2.89,2.28,4.86c-0.71,1.97-2.89,2.99-4.86,2.28c-34.35-12.39-83.81-40.12-116.9-74.14
				c-17.68-18.15-29.37-35.74-39.69-51.26c-8.32-12.5-16.17-24.31-25.93-34.63c-12.88-13.08-30.4-17.4-46.82-11.51
				c-18.53,6.79-35.04,30.26-27.41,65.7c4.99,23.15,23.65,60.6,61.06,96.27c28.25,26.94,77.08,62.04,149.3,76.3
				c2.06,0.41,3.4,2.4,2.99,4.46C427.08,590.51,425.49,591.76,423.71,591.76z"/>
		</g>
		<g>
			<g>
				
					<ellipse transform="matrix(0.0183 -0.9998 0.9998 0.0183 -149.2605 657.111)" class="st7" cx="260" cy="404.57" rx="23.74" ry="23.74"/>
			</g>
			<g>
				
					<ellipse transform="matrix(0.9529 -0.3034 0.3034 0.9529 -105.2255 87.5197)" class="st7" cx="229.09" cy="382.45" rx="9.37" ry="9.37"/>
			</g>
			<g>
				
					<ellipse transform="matrix(0.4817 -0.8764 0.8764 0.4817 -182.1371 431.1833)" class="st7" cx="273.43" cy="369.56" rx="9.37" ry="9.37"/>
			</g>
			<g>
				<circle class="st7" cx="248.24" cy="365.6" r="9.37"/>
			</g>
		</g>
		<g>
			<g>
				<g>
					<path class="st8" d="M561.85,736.65c0,0,24.7,30.79,52.2,27.97c26.83-2.75,36.46-32.77,28.88-50.69
						c-8.37-19.77-35.31-26.16-50.97-6.61"/>
				</g>
				<g>
					<path class="st1" d="M561.85,736.64c0,0,24.69,30.79,52.2,27.97c18.38-1.89,28.7-16.56,30.92-31.38
						c1.02-6.82,0.35-13.67-2.04-19.31c-7.09-16.73-27.48-23.88-43.07-13.83c-2.83,1.83-5.5,4.22-7.89,7.22L561.85,736.64z"/>
				</g>
				<g class="st9">
					<path class="st4" d="M604.8,706.02c-0.64-1.55,6.34-4.21,10.61-4.21c9.43,0,17.94,5.72,21.69,14.58
						c1.9,4.49,2.01,11.33,0.47,11.53c-1.98,0.26-2.88-10.68-13.98-17.4C614.78,705.18,605.64,708.05,604.8,706.02z"/>
				</g>
				<g>
					<path class="st5" d="M561.85,736.64c0,0,24.69,30.79,52.2,27.97c18.38-1.89,28.7-16.56,30.92-31.38
						c-5.12,5.49-12.72,10.01-23.04,7.3c-17.59-4.63-15.8-33.9-22.07-40.43c-2.83,1.83-5.5,4.22-7.89,7.22L561.85,736.64z"/>
				</g>
			</g>
			<g>
				<g>
					<path class="st6" d="M610.43,768.59c-27.49,0-50.53-28.31-51.54-29.57c-1.31-1.64-1.05-4.02,0.59-5.34
						c1.64-1.31,4.02-1.05,5.34,0.58l0,0c0.23,0.29,23.73,29.15,48.85,26.57c12.41-1.27,19.27-8.72,22.83-14.75
						c5.55-9.39,6.73-21.72,2.93-30.68c-3.62-8.55-11.51-14.64-20.59-15.89c-9.02-1.25-17.75,2.46-23.92,10.18
						c-1.31,1.64-3.7,1.9-5.34,0.59c-1.64-1.31-1.9-3.7-0.59-5.34c7.89-9.85,19.15-14.58,30.89-12.95
						c11.71,1.62,21.88,9.45,26.54,20.45c4.76,11.25,3.43,25.97-3.39,37.51c-6.3,10.65-16.45,17.19-28.59,18.44
						C613.09,768.53,611.76,768.59,610.43,768.59z"/>
				</g>
			</g>
		</g>
		<g>
			<path class="st1" d="M486.67,732.7c-3.28,23.81,10.12,111.38,6.11,135.52c-3.15,18.95-16.89,26.11-35.43,26.11
				c-12.51,0-23.86,0-50.65,0c-22.45,0-22.71-19.34-21.12-26.54c2.34-10.6,12.82-17.2,19.16-19.01
				c-28.27-100.47-29.21-165.23-29.21-165.23L486.67,732.7z"/>
		</g>
		<g>
			<path class="st2" d="M492.77,868.22c-3.14,18.95-16.88,26.1-35.43,26.1H406.7c-18.5,0-21.93-13.13-21.68-21.77
				c0.06-1.85,0.28-3.49,0.57-4.76c2.34-10.6,12.82-17.2,19.16-19.02c-12.99-46.15-20.21-84.76-24.2-113.03
				c-4.73-33.27-5.01-52.2-5.01-52.2l111.15,49.16C483.39,756.51,496.79,844.08,492.77,868.22z"/>
		</g>
		<g>
			<path class="st5" d="M492.77,868.22c-3.14,18.95-16.88,26.1-35.43,26.1H406.7c-18.5,0-21.93-13.13-21.68-21.77
				c7.29,2.73,36.93,5.83,60.49,3.22c21.33-2.35,31.61-6.7,34.13-21.95c1.97-11.94-0.42-41.58-6.72-51.18
				c-12.68-19.28-71.69-27.62-92.39-66.9c-4.73-33.27-5.01-52.2-5.01-52.2l111.15,49.16C483.39,756.51,496.79,844.08,492.77,868.22z
				"/>
		</g>
		<g>
			<path class="st6" d="M457.34,898.12h-50.65c-9.01,0-15.84-2.81-20.29-8.35c-5.54-6.9-5.91-16.6-4.54-22.81
				c2.29-10.38,11.18-17.38,18.27-20.53c-27.16-97.9-28.4-162.19-28.41-162.83l7.59-0.11c0.01,0.64,1.29,65.51,29.07,164.26
				l1.02,3.64l-3.63,1.04c-5.33,1.53-14.53,7.27-16.49,16.18c-0.81,3.68-1.09,11.27,3.04,16.41c2.94,3.66,7.77,5.51,14.37,5.51
				h50.65c18.76,0,29.12-7.5,31.69-22.93c1.99-11.99-0.57-41.32-3.06-69.69c-2.42-27.66-4.71-53.79-3.06-65.72l7.52,1.04
				c-1.53,11.09,0.83,38,3.11,64.02c2.52,28.84,5.13,58.66,2.98,71.6C493.33,887.99,479.79,898.12,457.34,898.12z"/>
		</g>
		<g>
			<path class="st6" d="M453.23,851.63c-13.9-1.88-28.28-2.79-42.14-0.45c-1.75,0.31-3.74,0.71-5.39,1.27c0,0-1.93-7.34-1.93-7.34
				c0.74-0.14,1.23-0.19,1.81-0.25C421.71,843.54,437.85,847.11,453.23,851.63L453.23,851.63z"/>
		</g>
		<g>
			<path class="st6" d="M407.8,859.53c-8.28,8.33-6.22,28.98,6.62,31.11c0,0-1.8,7.38-1.8,7.38
				C396.91,892.94,395.59,868.77,407.8,859.53L407.8,859.53z"/>
		</g>
		<g>
			<path class="st6" d="M434.63,859.53c-8.28,8.33-6.22,28.98,6.62,31.11c0,0-1.8,7.38-1.8,7.38
				C423.73,892.94,422.42,868.77,434.63,859.53L434.63,859.53z"/>
		</g>
		<g>
			<path class="st10" d="M545.25,699.17c-5.58-3.96-11.28-11.78-10.91-27.22c0.59-24.98-0.51-44.07,10.43-53.05
				C544.95,650.04,547.29,679.2,545.25,699.17z"/>
		</g>
		<g>
			<path class="st10" d="M370.83,686.51c6.06,16.41,17.96,31.89,40.03,41.19c65.74,27.7,146.09,0.47,149.15-59.24
				c-7.52,26.78-29.46,56.86-88.67,61.08C409.74,733.94,376.26,693.67,370.83,686.51z"/>
		</g>
		<g>
			<path class="st1" d="M577.29,530.79c-84.4,12.62-140.48-14.47-148.84-18.67c0.07-0.08,0.14-0.15,0.22-0.23c0.01,0,0.01,0,0.01,0
				c16.27-16.68,48.09-41.3,90.59-35.96C558.06,480.81,572.18,509.43,577.29,530.79z"/>
		</g>
		<g>
			<path class="st1" d="M407.95,755.99c-37.12-22.48-43.03-71.79-37.8-112.41c4.29-33.28,22.33-77.67,46.38-117.36
				c0,0,61.21-51.77,112.44-51.03c51.23,0.75,51.23,79.53,51.23,79.53c15.38,56.5,17.05,84.2,18.4,125.41
				c-0.91,29.1-6.2,42.68-9.21,49.42c0,0-29.12,39.34-86.62,43.31C445.28,776.82,407.95,755.99,407.95,755.99z"/>
		</g>
		<g>
			<path class="st2" d="M598.6,680.13c-0.91,29.09-6.2,42.68-9.22,49.41c0,0-29.12,39.34-86.62,43.31
				c-57.49,3.97-94.81-16.86-94.81-16.86c-24.03-14.55-34.98-40.35-38.3-67.75c-1.81-14.93-1.34-30.33,0.51-44.66
				c4.29-33.28,22.33-77.67,46.38-117.36c0,0,61.22-51.77,112.44-51.03c51.23,0.74,51.23,79.53,51.23,79.53
				c2.67,9.78,4.92,18.7,6.82,26.97C596.15,621.22,597.49,646.06,598.6,680.13z"/>
		</g>
		<g>
			<path class="st5" d="M577.29,530.79c-7.73,1.16-14.93,2.16-22.17,2.7c-71.81,5.33-119.08-17.56-126.67-21.37
				c0.07-0.08,0.14-0.15,0.22-0.23c0.01,0,0.01,0,0.01,0c16.27-16.68,48.09-41.3,90.59-35.96
				C558.06,480.81,572.18,509.43,577.29,530.79z"/>
		</g>
		<g>
			<path class="st11" d="M597.6,527.06c-16.07,3.49-31.26,5.51-45.45,6.43l-10.03-34.14C560.06,505.63,580.22,516.27,597.6,527.06z"
				/>
		</g>
		<g>
			<path class="st5" d="M598.6,680.13c-0.91,29.09-6.2,42.68-9.22,49.41c0,0-29.12,39.34-86.62,43.31
				c-57.49,3.97-94.81-16.86-94.81-16.86c-24.03-14.55-34.98-40.35-38.3-67.75c8.11,13.29,20.87,30.48,49.96,39.98
				c75.81,24.75,123.45-7.35,126.48-17.36c-13.48-10.45-34.81-64.77-9.72-91.13c7.86-8.26,9.43-5.77,32.08-7.55
				c8.13-0.63,18.23-1.01,6.44-27.43c1.38-0.27,6.29-1.6,12.14-3.06C596.15,621.22,597.49,646.06,598.6,680.13z"/>
		</g>
		<g>
			<path class="st12" d="M560.01,687.37c-8.14,62.42-66.48,81.24-121.31,65.59c-30.76-7.49-47.14-25.66-55.28-46.56
				c8.14,8.34,19.46,16.36,36.19,21.81c75.81,24.75,123.45-7.35,126.48-17.36c-13.48-10.45-34.81-64.77-9.72-91.13
				c5.29-5.56,7.73-6.25,15.64-6.65C560.68,642.13,562.03,671.87,560.01,687.37z"/>
		</g>
		<g>
			<path class="st13" d="M438.7,752.97c54.83,15.65,113.17-3.18,121.31-65.59c4.52-34.67-7.81-140.46-81.2-150.84
				c-51.17-7.24-92.22,43.93-101.06,104.92C373.06,678.12,376.03,737.7,438.7,752.97z"/>
		</g>
		<g>
			<path class="st14" d="M560.01,687.37c-8.14,62.42-66.48,81.24-121.31,65.59c-30.76-7.49-47.14-25.66-55.28-46.56
				c8.14,8.34,19.46,16.36,36.19,21.81c75.81,24.75,123.45-7.35,126.48-17.36c-13.48-10.45-34.81-64.77-9.72-91.13
				c5.29-5.56,7.73-6.25,15.64-6.65C560.68,642.13,562.03,671.87,560.01,687.37z"/>
		</g>
		<g>
			<path class="st15" d="M582.03,554.22c4.79,14.08,8.82,28.42,12.06,43c5.02,21.84,6.65,44.36,7.7,66.69
				c0.19,6.65,0.89,16.02,0.32,22.58c-0.93,15.15-2.94,30.54-9.26,44.61c-0.85,1.93-3.12,2.79-5.04,1.92
				c-1.91-0.87-2.76-3.11-1.89-5.02c2.92-6.44,4.82-13.28,6.13-20.36c1.65-8.79,2.38-17.92,2.72-26.92
				c-0.01-3.6-0.46-12.72-0.57-16.46c-0.73-22.07-3.55-43.88-7.32-65.61c-2.49-14.48-5.53-28.92-8.52-43.42
				C577.91,553.02,581.21,551.91,582.03,554.22L582.03,554.22z"/>
		</g>
		<g>
			<path class="st6" d="M407.95,755.99c-50.54-24.03-50.22-99.22-34.53-145.07c9.8-30.27,24.61-58.96,43.12-84.7
				c-26.9,55.02-53.81,116.16-39.91,178.29C381.14,724.51,391.48,743.37,407.95,755.99L407.95,755.99z"/>
		</g>
		<g>
			<path class="st1" d="M601.35,679.18c3.12,27.78,11.04,118.37,14.16,169.93c6.66,2.46,12.42,6.18,15.77,13.16
				c5.3,11.05,1.11,33.25-13.39,33.25c-19.2,0-42.82,0-63.58,0c-24.62,0-28.38-25.47-32.17-45.2
				c-2.54-13.19-10.97-63.85-13.03-74.52c-11.63,0.42-51.19,1.01-78.02-9.9c0,0,75.62,9.71,112.97-9.92
				C581.41,736.36,601.35,679.18,601.35,679.18z"/>
		</g>
		<g>
			<path class="st2" d="M617.9,895.53h-63.58c-24.63,0-28.38-25.47-32.18-45.19c-2.54-13.2-10.97-63.85-13.02-74.53
				c-11.64,0.42-51.2,1.01-78.02-9.9c0,0,75.62,9.71,112.97-9.92c37.35-19.62,57.29-76.8,57.29-76.8
				c1.94,17.33,5.76,59.09,9.12,100.59c2.01,25.03,3.87,49.95,5.05,69.34c6.66,2.46,12.42,6.18,15.76,13.16
				c1.29,2.69,2.01,6.03,2.16,9.56C633.93,882.82,628.87,895.53,617.9,895.53z"/>
		</g>
		<g>
			<path class="st5" d="M617.9,895.53h-63.58c-24.63,0-28.38-25.47-32.18-45.19c-2.54-13.2-10.97-63.85-13.02-74.53
				c-11.64,0.42-51.2,1.01-78.02-9.9c0,0,75.62,9.71,112.97-9.92c37.35-19.62,57.29-76.8,57.29-76.8
				c1.94,17.33,5.76,59.09,9.12,100.59c-18.73-4.16-37.44-3.44-53.91-0.7c0,0-0.04,0.01-0.11,0.02c-1.49,0.34-17.41,4.21-21.4,19.56
				c-4.16,16.04,1.62,55.08,9.27,66.05c10.46,14.97,32.72,11.41,52.5,11.86c12.05,0.26,29.26,0.07,36.63-4.72
				C633.93,882.82,628.87,895.53,617.9,895.53z"/>
		</g>
		<g>
			<path class="st6" d="M605.12,678.76c5.81,56.66,10.45,113.29,14.18,170.13c0,0-2.47-3.33-2.47-3.33
				c8.75,2.97,16.94,9.77,19.34,19.05c2.95,11.68,0.16,27.96-11.91,33.46c-2.38,1.01-4.96,1.3-7.5,1.25c0,0-2.06,0-2.06,0h-32.88
				h-16.44c-5.26-0.24-11.68,0.46-17.07-0.52c-19.72-3.12-25.62-24.67-28.66-41.31c-4.77-25.12-9.77-55.91-14.62-80.9
				c0,0,4.23,3.37,4.23,3.37c-6.7,0.23-13.38,0.18-20.05-0.22c-19.86-1.32-40.38-4.32-58.11-13.83c12.77,3.35,25.73,4.75,38.82,5.49
				c12.99,0.69,26.05,0.67,39.05,0.26c2.08-0.09,3.87,1.38,4.23,3.37c4.68,27.08,8.65,54.08,13.91,81.02
				c2.85,13.79,6.39,32.48,22.52,35.29c4,0.71,11.42,0.3,15.76,0.4c0,0,16.44,0,16.44,0h32.88h2.06h1.03
				c8.7-0.18,11.71-10.42,11.89-18.03c0.44-10.3-5.72-17.72-15.48-21.02c-1.46-0.53-2.39-1.87-2.47-3.33
				c-3.71-56.6-8.36-113.31-14.15-169.74C597.58,679.61,605.12,678.76,605.12,678.76L605.12,678.76z"/>
		</g>
		<g>
			<path class="st6" d="M584.79,859.53c6.13,4.22,7.11,13.57,6.68,20.52c-0.49,8.08-5.38,17.08-13.92,19.2c0,0-1.52-7.44-1.52-7.44
				C588.36,890.95,592.83,867.27,584.79,859.53L584.79,859.53z"/>
		</g>
		<g>
			<path class="st6" d="M611.92,859.53c9.98,10.91,10.85,33.72-5.18,39.65c0,0-2.08-7.3-2.08-7.3
				C617.93,889.17,618.09,869,611.92,859.53L611.92,859.53z"/>
		</g>
		<g>
			<path class="st6" d="M570.12,850.49c14.91-4.51,30.65-7.22,46.27-5.07c4.95,0.82,3.94,8.13-1.06,7.55
				c-7.21-2.23-14.84-3.43-22.47-3.65C585.29,849.07,577.65,849.42,570.12,850.49L570.12,850.49z"/>
		</g>
		<g>
			<g>
				<g>
					<path class="st2" d="M466.41,210.89l-72.76,48.3c0,0-27.3-8.43-42.91-34.41c-5.27-8.77-9.22-19.56-10.32-32.7
						c-3.4-40.42,31.68-67.23,72.05-61.24c19.14,2.85,31.53,15.21,39.54,29.4l0,0.01C464.94,183.19,466.41,210.89,466.41,210.89z"/>
				</g>
				<g>
					<path class="st5" d="M392.88,252.58c-6.77-2.73-25.53-11.68-37.06-30.86c-5.37-8.93-8.57-19.07-9.5-30.14
						c20.14,28.91,8.74-54.16,76.8-22.14C423.76,169.74,392.88,252.58,392.88,252.58z"/>
				</g>
				<g class="st16">
					<path class="st4" d="M461.99,185.37c-7.91-19.84-22.27-40.06-48.25-43.92c-32.65-4.85-62.09,10.36-72.94,36.77
						c4.67-32.49,36.12-52.67,71.67-47.39C442.75,135.33,456.13,163.68,461.99,185.37z"/>
				</g>
				<g>
					<path class="st6" d="M393.65,262.83c-0.36,0-0.72-0.05-1.08-0.16c-0.51-0.16-51.27-16.44-55.79-70.28
						c-1.59-18.94,4.8-36.19,17.99-48.57c14.76-13.85,35.98-19.89,58.23-16.59c21.86,3.25,38.68,18.85,48.63,45.13
						c7.34,19.39,8.39,37.57,8.43,38.33c0.11,2.01-1.44,3.73-3.45,3.84c-1.95,0.1-3.73-1.43-3.84-3.45
						c-0.04-0.7-4.32-69.73-50.84-76.63c-20.03-2.97-39.04,2.38-52.16,14.69c-11.53,10.82-17.11,25.96-15.71,42.64
						c4.1,48.85,48.78,63.33,50.68,63.92c1.92,0.6,3,2.64,2.4,4.57C396.64,261.83,395.2,262.83,393.65,262.83z"/>
				</g>
				<g>
					<path class="st17" d="M438.39,206.95c0,0-2.15-40.42-30.03-44.56c-22.47-3.34-41.99,11.59-40.1,34.09
						c2.43,28.95,29.63,37.35,29.63,37.35"/>
				</g>
				<g>
					<path class="st7" d="M438.39,206.96l-33.88,22.48l-6.62,4.39c0,0-27.2-8.41-29.63-37.35c-1.89-22.5,17.64-37.42,40.11-34.09
						c7.92,1.18,13.76,5.28,18.06,10.55C437.29,186.23,438.39,206.96,438.39,206.96z"/>
				</g>
				<g>
					<path class="st17" d="M438.39,206.96l-33.89,22.48l-6.62,4.39c0,0-21-6.49-27.74-27.69c-0.93-2.93-1.6-6.15-1.89-9.66
						c-1.03-12.35,4.39-22.42,13.2-28.44c7.24-4.95,16.77-7.16,26.9-5.66c7.92,1.18,13.76,5.29,18.06,10.56
						C437.29,186.22,438.39,206.96,438.39,206.96z"/>
				</g>
				<g>
					<path class="st18" d="M438.39,207.19l-33.89,22.48l-6.62,4.39c0,0-21-6.49-27.74-27.69c5.26,4.72,12.95,9.64,20.76,7.69
						c20.45-5.09,28.76-19.53,24-33.76c-3.9-11.63-23.04-12.47-33.45-12.03c7.24-4.95,16.77-7.16,26.9-5.66
						c7.92,1.18,13.76,5.29,18.06,10.56C437.29,186.45,438.39,207.19,438.39,207.19z"/>
				</g>
				<g>
					<path class="st6" d="M397.89,237.48c-0.36,0-0.72-0.05-1.08-0.16c-1.21-0.37-29.58-9.49-32.19-40.53
						c-0.93-11.05,2.81-21.12,10.52-28.35c8.58-8.05,20.88-11.57,33.75-9.65c30.47,4.52,33.04,46.2,33.14,47.97
						c0.11,2.01-1.44,3.73-3.45,3.84c-1.98,0.11-3.73-1.43-3.84-3.45l0,0c-0.02-0.37-2.35-37.5-26.92-41.15
						c-10.65-1.58-20.75,1.25-27.69,7.76c-6.05,5.68-8.98,13.64-8.24,22.42c2.19,26.05,26.07,33.85,27.08,34.17
						c1.92,0.6,2.99,2.65,2.39,4.57C400.88,236.48,399.44,237.48,397.89,237.48z"/>
				</g>
			</g>
			<g>
				<g>
					<path class="st2" d="M643.48,245.22l49.44,71.98c0,0,28.48,2.38,52.66-15.88c8.17-6.17,15.86-14.7,21.79-26.47
						c18.25-36.22-4.26-74.2-43.95-83.73c-18.82-4.51-34.93,2.32-47.66,12.5l0,0.01C655.19,220.08,643.48,245.22,643.48,245.22z"/>
				</g>
				<g>
					<path class="st5" d="M696.1,311.37c7.3,0,28.05-1.29,45.9-14.78c8.32-6.28,15.07-14.49,20.07-24.41
						c-29.49,19.29,12.14-53.5-62.97-49.23C698.42,222.98,696.1,311.37,696.1,311.37z"/>
				</g>
				<g class="st16">
					<path class="st4" d="M657.11,223.2c14.75-15.44,35.63-28.83,61.17-22.71c32.1,7.7,53.72,32.81,53.92,61.36
						c7.81-31.89-13.82-62.35-48.77-70.74C693.66,183.97,670.65,205.27,657.11,223.2z"/>
				</g>
				<g>
					<path class="st6" d="M695.8,320.92c-1.97,0-3.11-0.08-3.18-0.09c-2.01-0.17-3.5-1.93-3.33-3.94c0.17-2.01,1.92-3.5,3.94-3.33
						c1.98,0.16,48.83,3.42,70.89-40.35c7.53-14.94,8.01-31.07,1.36-45.42c-7.57-16.32-23.2-28.39-42.89-33.12
						c-45.74-10.98-75.5,51.45-75.79,52.08c-0.85,1.83-3.02,2.61-4.85,1.76c-1.82-0.85-2.61-3.02-1.76-4.85
						c0.32-0.69,8.08-17.17,22.14-32.41c19.05-20.66,40.48-28.85,61.97-23.69c21.87,5.25,39.3,18.79,47.81,37.15
						c7.61,16.41,7.09,34.8-1.46,51.77C749.78,317.88,707.68,320.92,695.8,320.92z"/>
				</g>
				<g>
					<path class="st17" d="M670.94,252.03c0,0,17.1-36.69,44.5-30.11c22.09,5.3,34.62,26.44,24.46,46.61
						c-13.07,25.94-41.44,23.57-41.44,23.57"/>
				</g>
				<g>
					<path class="st7" d="M670.94,252.04l23.03,33.52l4.5,6.55c0,0,28.38,2.37,41.44-23.58c10.16-20.16-2.37-41.3-24.46-46.61
						c-7.79-1.87-14.74-0.25-20.7,3.04C679.7,233.22,670.94,252.04,670.94,252.04z"/>
				</g>
				<g>
					<path class="st17" d="M670.93,252.04l23.04,33.52l4.5,6.55c0,0,21.9,1.83,36.08-15.32c1.96-2.37,3.78-5.11,5.36-8.25
						c5.57-11.07,4.31-22.44-1.62-31.32c-4.87-7.3-12.88-12.9-22.84-15.3c-7.79-1.86-14.74-0.24-20.7,3.04
						C679.7,233.21,670.93,252.04,670.93,252.04z"/>
				</g>
				<g>
					<path class="st18" d="M670.93,252.27l23.04,33.52l4.5,6.55c0,0,21.9,1.83,36.08-15.32c-6.65,2.42-15.61,4.1-22.13-0.63
						c-17.07-12.37-19.38-28.86-9.65-40.28c7.96-9.33,26.03-2.96,35.52,1.34c-4.87-7.3-12.88-12.9-22.84-15.3
						c-7.79-1.86-14.74-0.24-20.7,3.04C679.7,233.44,670.93,252.27,670.93,252.27z"/>
				</g>
				<g>
					<path class="st6" d="M700.49,295.81c-1.32,0-2.14-0.06-2.33-0.08c-2.01-0.17-3.5-1.93-3.33-3.94c0.17-2.01,1.91-3.51,3.94-3.33
						c1.05,0.08,26.11,1.77,37.88-21.58c3.96-7.87,4.22-16.35,0.73-23.87c-4.01-8.63-12.31-15.03-22.79-17.54
						c-24.14-5.8-40.19,27.76-40.35,28.1c-0.85,1.82-3.03,2.61-4.85,1.76c-1.82-0.85-2.61-3.02-1.76-4.85
						c0.75-1.61,18.7-39.31,48.66-32.11c12.66,3.04,22.75,10.9,27.7,21.57c4.45,9.59,4.15,20.33-0.84,30.23
						C731.24,293.83,707.97,295.81,700.49,295.81z"/>
				</g>
			</g>
			<g>
				<path class="st1" d="M524.96,521.64c104.7,11.82,188.99-19.89,184.19-103.71c-0.03-2.05,34.71-137.9-62.06-206.49
					c-27.28-19.34-54.68-28.39-82.33-34.07c-27.77-5.06-56.56-6.9-89.1,0.84c-115.39,27.46-133.93,166.45-134.72,168.34
					c-35.77,75.95,30.57,136.87,132.1,165.02L524.96,521.64z"/>
			</g>
			<g>
				<path class="st2" d="M677.77,493.07c-33.15,26.87-89.22,35.75-152.81,28.57l-51.91-10.06c-61.67-17.1-110.36-46.29-131.06-83.6
					c-13.38-24.11-15.08-51.61-1.03-81.42c0.8-1.89,19.34-140.88,134.72-168.34c32.53-7.74,61.33-5.9,89.1-0.84
					c27.64,5.68,55.05,14.74,82.32,34.07c96.77,68.58,62.03,204.44,62.06,206.49C711.04,450.84,699.19,475.71,677.77,493.07z"/>
			</g>
			<g>
				<path class="st5" d="M677.77,493.07c-33.15,26.87-89.22,35.75-152.81,28.57l-51.91-10.06c-61.67-17.1-110.36-46.29-131.06-83.6
					c23,15.97,83.91,55.02,160.65,69.9C579.38,512.76,650.46,499.3,677.77,493.07z"/>
			</g>
			<g>
				<path class="st6" d="M524.96,521.64c55.6-1.69,121.05,2.01,161.46-42.7c11.76-13.87,18.05-31.87,18.5-49.97
					c0.13-2.35,0.12-6.08-0.01-8.51c-0.02-1.28-0.17-2.96,0.16-4.2c13.52-66.27,5.54-145.42-48.57-191.81
					c-34.8-30.3-81.26-44.59-126.8-47.09c-34.14-1.62-69.43,5.33-98.47,23.89c-49.76,32.03-76.27,90.13-86.68,146.81
					c-28.48,60.98,13.02,106.75,64.92,134.71c20.38,10.88,41.86,19.59,63.59,28.82c-35.25-5.15-68.92-19.67-97.68-40.67
					c-36.04-26.69-58.19-65.78-43.85-110.98c1.51-4.91,3.68-10.04,5.77-14.74c1.9-10.67,5.2-24.42,8.93-35.78
					c22.38-71.33,70.36-129.18,148.08-138.78c46.65-5.86,97.32,3.9,138.46,26.66C713.19,240.58,731.1,335.52,713.5,418
					c0-0.06-0.01-0.13-0.03-0.19c-0.02-0.04,0,0.15,0,0.21l0.05,2.25l0.1,4.5c-0.02,3.02-0.2,6.09-0.39,9.12
					c-0.36,2.47-0.65,6.64-1.23,9.09c-2.57,15.16-9.34,29.59-19.3,41.3C655.62,526.98,577.01,534.78,524.96,521.64L524.96,521.64z"
					/>
			</g>
			<g>
				<path class="st6" d="M445.68,263.38c3.95-8.16,27.11-33.35,41.12-17.63c4.94,5.54,1.32,17.58-7.2,18.06
					C467.18,264.51,464.96,262.47,445.68,263.38z"/>
			</g>
			<g>
				<path class="st6" d="M642.96,301.73c-0.61-9.05-12.65-41.08-31.53-31.75c-6.66,3.29-7.81,15.8-0.09,19.44
					C622.6,294.72,625.43,293.67,642.96,301.73z"/>
			</g>
			<g>
				<g>
					<path class="st2" d="M456.81,183.98c45.41-16.42,87.6-5.28,98.48-43.09c0,0,16.1,14.44,10.54,31.07
						c5.66-3.27,13.45-9.68,38.28-2.46c21.92,6.37,34.66-0.22,34.66-0.22s-2.75,27.95-35.3,29.71"/>
				</g>
				<g>
					<path class="st6" d="M455.51,180.41c18-6.61,37.28-8.99,55.87-12.27c18.34-3.24,35.14-8.87,40.27-28.36
						c0.69-2.65,4.22-3.61,6.16-1.71c4.68,4.49,8.24,9.58,10.72,15.57c2.49,6.09,2.96,13.19,0.88,19.52c0,0-5.5-4.49-5.5-4.49
						c11.82-8.29,25.86-7.07,39-3.42c10.94,3.17,23.26,5.03,34.1,0.65c1.69-2.5,5.74-1.13,5.6,1.86c0,0-0.07,1.88-0.07,1.88
						c-0.56,10.65-7.32,20.52-16.64,25.43c-1.94,1.14-4.15,1.93-6.24,2.69c-1.11,0.29-3.8,0.9-4.87,1.13
						c-3.75,0.49-7.61,0.5-11.33,0.09c3.58-1.02,6.96-2.06,10.34-3.46c0.88-0.46,3.09-1.61,4-2.06c1.36-0.95,3.55-2.24,4.73-3.4
						c4.42-3.53,7.47-8.4,9.75-13.47c1.03-2.42,1.98-5.22,2.7-7.69c0,0,5.52,3.74,5.52,3.74c-9.45,4.16-20.19,4.03-30.16,2.23
						c-11.4-2.41-23.52-7.25-34.96-3.53c-2.59,0.84-4.79,2.18-7.68,3.9c-1.78,1.07-4.1,0.49-5.17-1.29
						c-0.61-1.01-0.67-2.16-0.33-3.2c1.49-4.72,1.12-9.68-0.74-14.32c-1.9-4.67-5.1-9.24-8.73-12.72l6.18-1.78
						c-1.39,4.86-3.5,9.67-6.59,13.92c-14.61,20.17-45.3,19.62-67.46,24.56c-9.16,1.75-18.14,4.04-26.81,7.14
						C453.43,189.12,450.75,182.29,455.51,180.41L455.51,180.41z"/>
				</g>
			</g>
			<g>
				<path class="st6" d="M550.85,180.54c5.42-2.72,9.07-6.45,12.46-11.43c0,0,5,5.71,5,5.71
					C563.29,177.94,556.86,180.43,550.85,180.54L550.85,180.54z"/>
			</g>
			<g>
				<polygon class="st15" points="521.74,410.17 521.24,410.15 521.27,410 				"/>
			</g>
			<g>
				<g>
					<g>
						<g>
							
								<ellipse transform="matrix(0.1897 -0.9818 0.9818 0.1897 17.97 720.1569)" class="st6" cx="445.31" cy="349.19" rx="39.45" ry="34.16"/>
						</g>
					</g>
					<g>
						<g>
							
								<ellipse transform="matrix(0.1897 -0.9818 0.9818 0.1897 36.375 723.5897)" class="st4" cx="456.59" cy="339.76" rx="14.1" ry="11.14"/>
						</g>
					</g>
					<g class="st19">
						<g>
							
								<ellipse transform="matrix(0.1897 -0.9818 0.9818 0.1897 -4.6449 714.0034)" class="st4" cx="430.28" cy="359.82" rx="9.54" ry="6.17"/>
						</g>
					</g>
				</g>
			</g>
			<g>
				<g>
					<g>
						<g>
							
								<ellipse transform="matrix(0.1909 -0.9816 0.9816 0.1909 120.2848 908.6804)" class="st6" cx="611.34" cy="381.38" rx="39.45" ry="34.16"/>
						</g>
					</g>
					<g>
						<g>
							
								<ellipse transform="matrix(0.1909 -0.9816 0.9816 0.1909 127.3993 891.3777)" class="st4" cx="604.4" cy="368.41" rx="14.1" ry="11.14"/>
						</g>
					</g>
					<g class="st19">
						<g>
							
								<ellipse transform="matrix(0.1909 -0.9816 0.9816 0.1909 113.168 930.9935)" class="st4" cx="621.32" cy="396.85" rx="9.54" ry="6.17"/>
						</g>
					</g>
				</g>
			</g>
			<g>
				<path class="st13" d="M528.3,365.43c29.77,5.82,45.62,36.5,39.17,63.94c-7.35,31.25-39.55,32.84-57.26,29.4
					c-17.71-3.43-46.99-16.93-42.13-48.67C472.35,382.24,498.51,359.71,528.3,365.43z"/>
			</g>
			<g>
				<g>
					<path class="st6" d="M549.78,413.86c-9.87,8.12-12.73,17.24-18.07,23.54c-7.21,8.51-17.06,7.05-18.59,6.69
						c-2.08-0.49-11.32-2.59-14.73-13.15c-2.55-7.86-1.85-17.37-7.96-28.59c10.39-7.02,30.59,1.01,30.59,1.01
						S542.76,403.46,549.78,413.86z"/>
				</g>
				<g>
					<polygon class="st15" points="522.56,404.16 522.09,404.14 522.12,404 					"/>
				</g>
				<g>
					<path class="st20" d="M532.68,436.2c-0.31,0.41-0.64,0.82-0.97,1.21c-7.2,8.5-17.05,7.05-18.58,6.69
						c-2.09-0.5-11.32-2.6-14.74-13.15c-0.16-0.5-0.3-1.01-0.44-1.53c3.1-2.13,7.03-3.05,11.02-2.27c2.6,0.5,4.91,1.69,6.79,3.32
						c2.35-0.81,4.93-1.05,7.54-0.54C527.3,430.7,530.6,433.03,532.68,436.2z"/>
				</g>
				<g>
					<path class="st6" d="M523.32,429.92c0,0-5.18-0.63-7.72,3.94c-0.24,0.44-0.88,0.31-0.94-0.18c-0.65-5.2-5.69-6.54-5.69-6.54
						l3.64-5.44l4.47,2l4.9-0.18L523.32,429.92z"/>
				</g>
				<g>
					<path class="st6" d="M516.46,447.28c-1.58,0-2.95-0.17-3.99-0.42c-10.68-2.52-15.02-9.57-16.78-15.04
						c-0.96-2.96-1.47-6.03-2.02-9.29c-0.98-5.88-2-11.95-5.74-18.82c-0.7-1.29-0.31-2.9,0.91-3.72
						c10.66-7.21,29.36-0.74,32.74,0.53c3.6,0.09,23.36,1.08,30.57,11.74c0.82,1.22,0.58,2.86-0.55,3.79
						c-5.99,4.93-9.18,10.16-12.27,15.21c-1.75,2.86-3.4,5.57-5.44,7.98C528.51,445.59,521.44,447.28,516.46,447.28z M494.23,403.56
						c3.15,6.67,4.15,12.67,5.05,18.03c0.51,3.04,0.99,5.92,1.82,8.47c1.92,5.93,6.17,9.72,12.62,11.24
						c0.15,0.03,9.19,2.07,15.81-5.75c1.76-2.07,3.3-4.59,4.92-7.26c2.82-4.61,5.97-9.77,11.34-14.74
						c-6.2-5.89-19.67-7.32-24.79-7.35c-0.35,0-0.71-0.07-1.03-0.2C515.21,404.12,502.18,400.41,494.23,403.56z"/>
				</g>
				<g>
					<path class="st13" d="M561.32,402.4c-2.68,2.36-7.94,11.38-16.41,14.09c-9.81,3.14-18.64-2.82-22-9.5
						c-1.45-2.88-1.47-6.75-1.06-8.89l1.34-6.92l-1.34,6.92c-0.42,2.15-1.88,5.72-4.3,7.85c-5.62,4.94-16.03,7.18-23.96,0.6
						c-6.84-5.68-8.36-16.01-9.96-19.2c0,0,17.94-23.68,43.93-18.64C553.54,373.74,561.32,402.4,561.32,402.4z"/>
				</g>
				<g>
					<path class="st14" d="M530.77,390.66c0,0-3.52,13.15,4.23,17.13c10.46,5.37,21.48-7.71,21.48-7.71s-17.82,4.42-16.25-8.87
						C538.78,382.63,530.77,390.66,530.77,390.66z"/>
				</g>
				<g>
					<path class="st14" d="M516.38,387.88c0,0-1.65,13.51-10.33,14.31c-11.71,1.08-17.04-15.18-17.04-15.18s14.88,10.76,18.39-2.15
						C511.95,377.43,516.38,387.88,516.38,387.88z"/>
				</g>
				<g>
					<path class="st6" d="M525.58,398.82c-1.34,12.57-16.39,19.07-27.49,14.66c-11.2-4.29-13.71-15.46-14.45-26.13
						c2.84,3.8,4.55,8.38,7.48,11.97c3.55,4.81,9,7.76,14.92,7.02c5.38-0.72,10.34-3.57,12.1-8.96
						C519.48,392.88,526.04,394.19,525.58,398.82L525.58,398.82z"/>
				</g>
				<g>
					<path class="st6" d="M561.32,402.4c-4.85,9.43-11.21,18.83-23.16,18.72c-11.9,0.02-23.48-11.62-20.03-23.75
						c0.55-2.02,2.63-3.22,4.66-2.67c1.71,0.46,2.83,2.03,2.81,3.73c-0.06,1.73,0.11,3.95,0.7,5.55c2.08,4.95,7.08,8.73,12.35,9.5
						C547.8,414.96,554.4,407.2,561.32,402.4L561.32,402.4z"/>
				</g>
				<g>
					<path class="st6" d="M527.32,384.86l-1.74,13.96c-0.75,4.96-8.05,4.06-7.55-0.94c0.02-0.16,0.06-0.35,0.1-0.5l3.6-13.6
						C522.69,380.37,527.7,381.36,527.32,384.86L527.32,384.86z"/>
				</g>
			</g>
			<g>
				<path class="st6" d="M546.32,382.62c-3.75,6.33-12.12,9.84-17.89,11.58c-3.8,1.15-7.91,0.35-11-2.14
					c-4.69-3.77-11.14-10.16-12.25-17.44c-1.26-8.33,18.6-5.79,22.33-5.07C531.24,370.28,550.62,375.36,546.32,382.62z"/>
			</g>
			<g class="st21">
				<path class="st4" d="M535.27,375.19c-2.15,2.44-9.05,1.04-9.05,1.04s-6.92-1.29-8-4.36c-0.77-2.19,7.43-0.93,8.97-0.63
					C528.73,371.54,536.81,373.44,535.27,375.19z"/>
			</g>
		</g>
		<g>
			<g>
				<g>
					<path class="st22" d="M632.15,493.4c66.37,0,90.79,38.25,93.05,60.25c23.39,17.24,23.48,53.78,15.61,66.33
						c8.06,23.41-1.14,63.33-29.45,80.94c-8.33,22.61-32.76,46.55-79.21,46.55s-70.88-23.94-79.21-46.55
						c-28.3-17.62-37.51-57.53-29.45-80.94c-7.88-12.54-7.78-49.08,15.61-66.33C541.36,531.65,565.78,493.4,632.15,493.4z"/>
				</g>
				<g>
					<path class="st22" d="M632.15,493.4c66.37,0,90.79,38.25,93.05,60.25c23.39,17.24,23.48,53.78,15.61,66.33
						c8.06,23.41-1.14,63.33-29.45,80.94c-8.33,22.61-32.76,46.55-79.21,46.55s-70.88-23.94-79.21-46.55
						c-28.3-17.62-37.51-57.53-29.45-80.94c-7.88-12.54-7.78-49.08,15.61-66.33C541.36,531.65,565.78,493.4,632.15,493.4z"/>
				</g>
				<g>
					<path class="st23" d="M719.48,545.27c-3.16,7.12-12.88,2.18-17.6,5.41c-4.32,2.94-0.88,11.68-7.48,14.89
						c-7.41,3.6-10.53-2.39-17.37,1.28c4.68,11.25-1.42,26.7-13.09,26.75c-13.81,0.06-10.33-15.64-19.82-20.49
						c-11.96-6.13-14.35,6.29-26.44,4.89c-10.67-1.24-13.11-11.78-20.05-12.18c-7.05,1.99-3.54,12.06-10.11,17.53
						c-3.66,3.06-10.78,2.58-15.31-0.72c-10.02-7.32-4.46-25.19-4.46-25.19c-5.22-5.13-8.87,0.07-15.61-0.65
						c-8.18-0.87-9.06-7.92-9.06-7.92c-0.25-2.64,0.14-5.78,1.21-9.21c5.81-18.56,31.84-45.41,87.86-45.41
						c47.67,0,74.18,21.22,83.71,36.85C719.59,537.22,720.72,542.49,719.48,545.27z"/>
				</g>
				<g>
					<path class="st23" d="M739.44,663.48c-4.91,14.79-14.2,28.8-28.07,37.43c-8.33,22.62-32.76,46.56-79.21,46.56
						c-46.45,0-70.87-23.95-79.21-46.56c-13.88-8.64-23.17-22.65-28.08-37.43c17.18,22.3,41.04,33.3,65.12,39.07
						c27.7,6.64,56.64,6.64,84.34,0C698.4,696.78,722.26,685.78,739.44,663.48z"/>
				</g>
				<g>
					<path class="st23" d="M739.44,663.48c-4.91,14.79-14.2,28.8-28.07,37.43c-8.33,22.62-32.76,46.56-79.21,46.56
						c-46.45,0-70.87-23.95-79.21-46.56c-13.88-8.64-23.17-22.65-28.08-37.43c17.18,22.3,41.04,33.3,65.12,39.07
						c27.7,6.64,56.64,6.64,84.34,0C698.4,696.78,722.26,685.78,739.44,663.48z"/>
				</g>
				<g>
					<path class="st23" d="M740.81,619.97c0.16,0.47,0.32,0.96,0.47,1.44L740.81,619.97c-0.01,0-25.22,38.94-108.66,38.94
						c-83.44,0-108.66-38.94-108.66-38.94c-2.43-3.87-4.1-10.02-4.56-17.19c0.06,0.09,0.13,0.17,0.2,0.27
						c17.18,22.3,70.78,43.96,113.01,43.96s95.81-21.65,112.99-43.96c0.08-0.09,0.14-0.19,0.23-0.28
						C744.91,609.94,743.24,616.1,740.81,619.97z"/>
				</g>
				<g>
					<path class="st23" d="M703.73,598.81c0,0-9.81,41.64,2.85,64.66c4.63,8.42,15.66,13.32,21.28,14.19
						c5.62,0.87,8.74-10.88,10.4-18.26c4.16-18.44,1.18-46.34,1.18-46.34"/>
				</g>
				<g>
					<path class="st23" d="M724.73,550.43c0,0-2.75,42.48-92.58,42.48c-89.82,0-92.58-42.48-92.58-42.48
						c0.48-2.6,1.25-5.36,2.34-8.23c12.19,27.54,48,38.81,90.23,38.81s78.05-11.27,90.23-38.81
						C723.47,545.07,724.24,547.83,724.73,550.43z"/>
				</g>
				<g class="st3">
					<path class="st4" d="M596.94,667.26c-1.55,3.62-4.3,9.58-2.07,25.75c-4.51-1.17-11.67-2.75-13.62-5.1
						c-2.83-3.4-4.55-15.62-1.56-20.85C582.37,662.36,584.14,664.18,596.94,667.26z"/>
				</g>
				<g class="st3">
					<path class="st4" d="M676.05,693.65c-22.86,10.16-61.75,5.24-71.87,1.28c-3.67-7.33-1.81-23.66-0.01-26.04
						c3.39,0.37,35.32,5.86,71.72-3.08C679.16,668.65,680.3,686.37,676.05,693.65z"/>
				</g>
				<g class="st3">
					<path class="st4" d="M595.63,604.43c-1.73,4.05-4.81,10.7-2.31,28.77c-5.04-1.31-13.04-3.08-15.22-5.69
						c-3.17-3.8-5.08-17.45-1.75-23.29C579.35,598.95,581.33,600.99,595.63,604.43z"/>
				</g>
				<g class="st3">
					<path class="st4" d="M673.76,633.2c-23.49,9.75-58.73,6.57-70.04,2.14c-4.1-8.19-2.02-26.43-0.01-29.1
						c3.79,0.41,29.78,6.83,69.18-1.97C675.79,608.37,676.22,630.37,673.76,633.2z"/>
				</g>
				<g>
					<path class="st6" d="M632.15,751.27c-58.07,0-77.28-35.11-82.31-47.82c-27.89-18.19-38.25-57.55-30.47-83.05
						c-7.66-14.78-7.24-50.27,16.16-68.79c3.63-25.54,31.79-62,96.62-62s92.99,36.46,96.62,62c23.4,18.52,23.82,54.01,16.16,68.79
						c7.77,25.5-2.58,64.86-30.47,83.05C709.43,716.16,690.22,751.27,632.15,751.27z M632.15,497.2
						c-61.22,0-86.93,33.99-89.27,56.84c-0.11,1.06-0.66,2.03-1.52,2.67c-22.21,16.38-21.07,51.02-14.65,61.25
						c0.61,0.97,0.75,2.17,0.37,3.26c-7.92,22.99,2.32,60.58,27.86,76.48c0.72,0.45,1.26,1.12,1.56,1.91
						c3.81,10.34,20.52,44.07,75.65,44.07c55.13,0,71.84-33.73,75.65-44.07c0.29-0.79,0.84-1.46,1.56-1.91
						c25.55-15.9,35.78-53.49,27.86-76.48c-0.37-1.09-0.24-2.28,0.37-3.26c6.43-10.24,7.56-44.88-14.65-61.25
						c-0.86-0.63-1.41-1.6-1.52-2.67C719.08,531.19,693.37,497.2,632.15,497.2z"/>
				</g>
				<g>
					<path class="st6" d="M634.09,724.57c-48.91,0-81.74-19.58-83.12-20.41l3.94-6.49c0.32,0.19,32.5,19.31,79.18,19.31
						c46.69,0,74.84-19,75.12-19.19l4.3,6.25C712.3,704.88,683.12,724.57,634.09,724.57z"/>
				</g>
				<g>
					<path class="st6" d="M632.15,662.71c-56.3,0-99.67-20.99-111.89-40.74l6.46-3.99c11.3,18.25,53.82,37.14,105.43,37.14
						c51.61,0,94.13-18.88,105.43-37.14l6.46,3.99C731.82,641.72,688.45,662.71,632.15,662.71z"/>
				</g>
				<g>
					<path class="st6" d="M632.15,596.65c-41,0-74.94-10.57-88.56-27.58c-6.14-7.67-8.18-16.34-6.07-25.77l7.41,1.66
						c-1.58,7.06-0.04,13.58,4.59,19.36c12.03,15.03,44.46,24.74,82.63,24.74s70.6-9.71,82.63-24.74c4.63-5.78,6.17-12.3,4.59-19.36
						l7.41-1.66c2.11,9.43,0.07,18.09-6.07,25.77C707.09,586.08,673.15,596.65,632.15,596.65z"/>
				</g>
				<g>
					<path class="st24" d="M719.48,535.77c4.38-9.88-20.97-51.01-87.33-51.01c-66.36,0-90.64,37.67-89.07,54.61
						c0,0,0.88,7.05,9.05,7.92c6.75,0.72,10.4-4.49,15.62,0.64c0,0-5.56,17.87,4.46,25.19c4.52,3.3,11.64,3.77,15.3,0.72
						c6.56-5.47,3.06-15.53,10.11-17.53c6.93,0.41,9.36,10.94,20.04,12.18c12.1,1.4,14.48-11.03,26.44-4.9
						c9.49,4.86,6.02,20.56,19.83,20.5c11.67-0.05,17.76-15.5,13.08-26.75c6.84-3.67,9.96,2.32,17.38-1.27
						c6.6-3.2,3.17-11.95,7.48-14.89C706.61,537.96,716.32,542.89,719.48,535.77z"/>
				</g>
				<g>
					<path class="st24" d="M719.48,535.77c-3.16,7.12-12.88,2.18-17.6,5.41c-4.32,2.94-0.88,11.68-7.48,14.89
						c-7.41,3.6-10.53-2.39-17.37,1.28c4.68,11.25-1.42,26.7-13.09,26.75c-13.81,0.06-10.33-15.64-19.82-20.49
						c-11.96-6.13-14.35,6.29-26.44,4.89c-10.67-1.24-13.11-11.78-20.05-12.18c-7.05,1.99-3.54,12.06-10.11,17.53
						c-3.66,3.06-10.78,2.58-15.31-0.72c-10.02-7.32-4.46-25.18-4.46-25.18c-5.22-5.13-8.87,0.07-15.61-0.65
						c-8.18-0.87-9.06-7.92-9.06-7.92c-0.25-2.64,0.14-5.78,1.21-9.21c5.81-18.56,31.84-45.41,87.86-45.41
						c47.67,0,74.18,21.22,83.71,36.85C719.59,527.73,720.72,532.99,719.48,535.77z"/>
				</g>
				<g>
					<path class="st25" d="M492.52,561.97l-0.63,0.48C491.79,561.71,492.02,561.59,492.52,561.97z"/>
				</g>
				<g>
					<path class="st25" d="M719.48,535.77c-3.16,7.12-12.88,2.18-17.6,5.41c-4.32,2.94-0.88,11.68-7.48,14.89
						c-7.41,3.6-10.53-2.39-17.37,1.28c4.68,11.25-1.42,26.7-13.09,26.75c-13.81,0.06-10.33-15.64-19.82-20.49
						c-11.96-6.13-14.35,6.29-26.44,4.89c-10.67-1.24-13.11-11.78-20.05-12.18c-7.05,1.99-3.54,12.06-10.11,17.53
						c-3.66,3.06-10.78,2.58-15.31-0.72c-10.02-7.32-4.46-25.18-4.46-25.18c-5.22-5.13-8.87,0.07-15.61-0.65
						c-8.18-0.87-9.06-7.92-9.06-7.92c-0.25-2.64,0.14-5.78,1.21-9.21c1.04,4.47,3.25,9.57,7.88,9.5
						c10.04-0.14,14.28-5.01,19.94-2.85c5.67,2.15,0.29,9.89-1.76,18.25c-2.87,11.7,9.13,16.92,13.49,10.99
						c4.16-5.64,2.79-16.93,13.36-19.95c7.38-2.1,9.16,14.14,20.52,15.71c11.34,1.56,12.48-7.65,22.5-9.38
						c10.12-1.76,13.62,7.8,14.39,16.06c0.79,8.26,4.11,13.63,12.22,12.07c8.12-1.57,9.53-6.73,7.55-15.81
						c-1.4-6.38-5.89-14.98-2.66-17.03c3.23-2.05,9.35,1.78,13.44,3.95c5.33,2.84,8.21,2.89,9.33-4.4
						c1.08-6.97-1.02-11.68,2.89-14.8c3.91-3.13,8.92,1.17,15.64,0.93c3.96-0.15,3.35-7.99,2.84-11.79
						C719.59,527.73,720.72,532.99,719.48,535.77z"/>
				</g>
				<g class="st21">
					<path class="st4" d="M588.01,528.41c-1.77-3.32,13.39,3.52,27.6,6.04c13.77,2.44,24.14,1.93,36.54-0.22
						c8.72-1.51,23.38-8.99,22.17-5.57c-0.77,2.16-9.53,18.13-42.83,17.34C604.46,545.34,590.47,533.04,588.01,528.41z"/>
				</g>
				<g class="st21">
					<path class="st4" d="M682.89,519.51c-1.12-0.6,1.23-4.25,1.14-8.17c-0.18-7.81-6.31-10.09-6.74-10.87
						c-0.8-1.47,10.65,1.09,13.6,5.34C696.57,513.95,684.51,520.38,682.89,519.51z"/>
				</g>
				<g>
					<path class="st6" d="M663.87,587.89c-10.42,0-13.58-7.42-15.88-12.85c-1.51-3.57-2.82-6.65-5.61-8.07
						c-4.7-2.41-6.79-1.12-10.58,1.22c-3.49,2.16-7.84,4.85-14.57,4.06c-7.17-0.83-11.39-5.15-14.47-8.3
						c-1.97-2.01-3.33-3.35-4.7-3.74c-0.93,0.56-1.36,1.83-2.12,5.01c-0.86,3.63-1.93,8.14-6,11.53c-4.94,4.12-13.9,3.86-19.97-0.57
						c-9.56-6.98-7.81-20.8-6.54-26.67c-0.81-0.22-1.75,0.03-3.55,0.54c-2.14,0.61-4.81,1.36-8.15,1.01
						c-8.83-0.94-11.98-7.75-12.42-11.23c-0.83-8.92,4.1-20.34,12.85-29.93c9.86-10.81,33.36-28.95,79.99-28.95
						c45.57,0,74.4,19.35,86.19,37.46c4.91,7.54,6.59,14.43,4.62,18.89l0,0c-2.89,6.53-9.38,6.47-13.71,6.43
						c-2.01-0.01-4.29-0.04-5.21,0.58c-0.56,0.38-0.86,2.28-1.11,3.8c-0.56,3.47-1.4,8.72-6.86,11.37
						c-4.92,2.39-8.69,1.52-11.44,0.89c-1.11-0.26-1.99-0.46-2.83-0.48c1.51,6.73,0.26,14.15-3.52,19.83
						c-3.48,5.24-8.57,8.14-14.33,8.16C663.93,587.89,663.9,587.89,663.87,587.89z M637.92,558.08c2.3,0,4.91,0.59,7.92,2.13
						c5.24,2.69,7.31,7.56,9.14,11.86c2.36,5.55,3.72,8.22,8.89,8.22c0.02,0,0.04,0,0.06,0c4.03-0.02,6.59-2.6,8.03-4.77
						c3.13-4.72,3.76-11.44,1.56-16.72c-0.75-1.8-0.01-3.88,1.71-4.8c4.67-2.5,8.39-1.65,11.1-1.02c2.35,0.54,3.91,0.9,6.42-0.32
						c1.73-0.84,2.12-2.32,2.67-5.74c0.48-2.96,1.07-6.65,4.32-8.87c2.89-1.97,6.44-1.94,9.57-1.9c4.5,0.04,5.94-0.2,6.69-1.91
						c0,0,0,0,0,0c0.47-1.06,0.1-5.31-4.04-11.67c-10.7-16.44-37.29-34.01-79.82-34.01c-43.71,0-65.36,16.59-74.38,26.47
						c-8.73,9.58-11.34,18.81-10.92,23.88c0.15,0.82,1.04,4.12,5.68,4.61c1.89,0.2,3.53-0.27,5.28-0.76
						c3.3-0.94,7.83-2.22,12.6,2.47c1.01,1,1.39,2.48,0.96,3.83c-0.05,0.15-4.49,15.47,3.08,20.99c3.45,2.52,8.64,2.53,10.63,0.87
						c2.13-1.77,2.78-4.53,3.47-7.45c0.92-3.86,2.17-9.16,8.03-10.82c0.41-0.11,0.83-0.16,1.26-0.14c4.61,0.27,7.66,3.38,10.34,6.13
						c2.79,2.85,5.42,5.54,9.92,6.07c4.09,0.47,6.7-1.13,9.7-2.98C630.55,560.04,633.72,558.08,637.92,558.08z"/>
				</g>
				<g>
					<g>
						<path class="st25" d="M655.38,500.68c12.56,2.53,20.91,7.05,20.91,12.2c0,2.91-2.69,5.61-7.28,7.88
							c-7.9,3.88-21.44,6.45-36.85,6.45c-15.4,0-28.97-2.57-36.87-6.45c-4.6-2.27-7.28-4.97-7.28-7.88c0-5.15,8.35-9.67,20.9-12.19
							c0,0,9.6-2.3,23.24-2.3C645.8,498.4,655.38,500.68,655.38,500.68z"/>
					</g>
					<g>
						<path class="st25" d="M667.09,516.17c0,2.03-2.12,3.91-5.76,5.49c-6.25,2.7-16.97,4.48-29.17,4.48s-22.93-1.78-29.18-4.48
							c-3.64-1.58-5.76-3.46-5.76-5.49c0-5.51,15.65-9.98,34.94-9.98S667.09,510.66,667.09,516.17z"/>
					</g>
					<g>
						<path class="st6" d="M632.15,528.98c-12.15,0-23.48-1.76-30.31-4.72c-4.96-2.15-7.48-4.88-7.48-8.1
							c0-8.81,19.59-12.82,37.79-12.82c18.2,0,37.78,4.01,37.78,12.82c0,3.22-2.52,5.95-7.48,8.1
							C655.62,527.22,644.29,528.98,632.15,528.98z M632.15,509.04c-20.85,0-32.1,5.06-32.1,7.13c0,0.22,0.72,1.43,4.05,2.87
							c6.15,2.66,16.64,4.25,28.05,4.25c11.4,0,21.88-1.59,28.04-4.25c3.33-1.44,4.05-2.65,4.05-2.87
							C664.24,514.1,653,509.04,632.15,509.04z"/>
					</g>
					<g>
						<path class="st6" d="M655.38,500.68c6.48,0.29,12.84,1.33,18.58,4.86c6.37,3.97,6.32,10.9,0.36,15.29
							c-11.6,8.09-28.48,9.58-42.16,9.84c-12.91-0.18-25.76-1.51-37.73-7.09c-8.06-3.6-13.21-11.96-4.09-18.02
							c5.73-3.53,12.1-4.57,18.58-4.86c-4.19,1.73-20.78,7.55-17.98,13.31c6.92,8.56,30.47,9.68,41.23,9.77
							c10.79-0.09,34.26-1.2,41.22-9.78C676.15,508.19,659.53,502.42,655.38,500.68L655.38,500.68z"/>
					</g>
				</g>
			</g>
		</g>
		<g>
			<g>
				<path class="st26" d="M743.72,578.34c-2.26-0.5-27.24-4.91-35.59,17.4c-4.53,13.51-6.07,42.42,3.08,54.71
					c9.86,12.1,19.29,10.06,28.89,16.49c13.97-0.36,24.73-11.15,26.15-43.96C767.44,595.49,759.02,582.4,743.72,578.34z"/>
			</g>
			<g>
				<path class="st2" d="M766.25,622.98c-0.22,4.98-0.65,9.46-1.28,13.47c0,0,0,0.01-0.01,0.01c-3.49,22.36-13.03,30.17-24.87,30.47
					c-9.59-6.42-19.03-4.38-28.89-16.48c-9.16-12.29-7.6-41.2-3.08-54.71c4.12-10.99,12.25-15.5,19.73-17.18
					c7.71-1.74,14.71-0.48,15.86-0.22C759.02,582.4,767.44,595.49,766.25,622.98z"/>
			</g>
			<g>
				<path class="st5" d="M758.22,641.31c-4.38,18.43-13.39,19.5-16.65,19.84c-3.64-2.14-7.2-3.36-10.4-4.44
					c-5.56-1.9-10.37-3.53-15.46-9.74c-7.44-10.16-6.5-36.41-2.21-49.31c2.11-5.59,5.57-9.48,10.48-11.79
					c-4.91,13.61-6.77,39.31,3.94,49.65C735.34,642.68,749.48,644.27,758.22,641.31z"/>
			</g>
			<g>
				<path class="st6" d="M740.1,670.74c-0.75,0-1.49-0.22-2.11-0.64c-3.19-2.14-6.44-3.24-9.88-4.42
					c-6.09-2.07-12.99-4.43-19.84-12.83c-0.03-0.04-0.07-0.09-0.1-0.13c-10.62-14.25-8.06-44.98-3.64-58.18
					c0.01-0.04,0.03-0.08,0.04-0.13c7.83-20.91,29.57-22.08,39.97-19.78c0.05,0.01,0.1,0.02,0.15,0.04
					c18.27,4.84,26.56,20.7,25.35,48.48c-1.35,31.1-11.39,47.11-29.85,47.59C740.16,670.74,740.13,670.74,740.1,670.74z
					 M714.21,648.12c5.45,6.66,10.5,8.38,16.34,10.37c3.43,1.17,6.96,2.37,10.6,4.61c5.98-0.32,19.69-3.14,21.31-40.29
					c1.36-31.44-10.52-38.35-19.63-40.79c-1.69-0.36-23.73-4.62-31.12,14.98C707.28,610.3,706.39,637.52,714.21,648.12z"/>
			</g>
			<g>
				<path class="st6" d="M704.21,645.07c-2.7-17.67,11.78-24.79,27.24-23.05c4.26,0.44,8.46,1.42,12.29,3.17
					c-4.04-1.15-8.24-1.47-12.34-1.28c-11.48,0.48-24.22,6.09-19.76,19.56C711.64,643.48,704.21,645.07,704.21,645.07L704.21,645.07
					z"/>
			</g>
			<g>
				<path class="st6" d="M700.85,617.41c5-21.8,24.1-25.95,42.81-18.13c-4.09-1.05-8.3-1.53-12.43-1.44
					c-13.25,0.15-21.98,7.51-22.89,20.84C708.33,618.68,700.85,617.41,700.85,617.41L700.85,617.41z"/>
			</g>
		</g>
		<g>
			<g>
				<path class="st4" d="M300.15,265.67c5.18-8.47,7.73-18.63,6.64-29.27c-2.65-25.81-25.72-44.59-51.53-41.94
					c-25.81,2.65-44.59,25.72-41.94,51.53c2.65,25.81,25.72,44.59,51.53,41.94c7.18-0.74,13.81-3.06,19.59-6.58l21.74,4.88
					L300.15,265.67z"/>
			</g>
			<g class="st21">
				<g>
					<path class="st4" d="M256.18,203.46c24.11-2.48,45.83,13.75,50.74,36.94c0.01-1.66-0.07-3.33-0.24-5.01
						c-2.65-25.81-25.72-44.59-51.53-41.94c-25.81,2.65-44.59,25.72-41.94,51.53c0.17,1.69,0.44,3.35,0.78,4.98
						C214.09,226.24,232.06,205.93,256.18,203.46z"/>
				</g>
			</g>
			<g>
				<path class="st6" d="M260.02,291.84c-25.61,0-47.66-19.44-50.33-45.46c-1.38-13.45,2.56-26.64,11.09-37.13
					c8.54-10.49,20.65-17.03,34.1-18.41c13.45-1.38,26.64,2.56,37.13,11.09c10.49,8.54,17.03,20.65,18.41,34.1
					c1.09,10.57-1.1,20.95-6.32,30.13l5.59,19.05c0.36,1.24,0.05,2.58-0.84,3.52c-0.88,0.94-2.2,1.35-3.46,1.07l-20.33-4.56
					c-6.11,3.48-12.77,5.6-19.83,6.33C263.48,291.75,261.74,291.84,260.02,291.84z M260.09,197.87c-1.48,0-2.96,0.08-4.46,0.23
					c-23.77,2.44-41.12,23.76-38.68,47.53c2.44,23.77,23.77,41.12,47.53,38.68c6.47-0.66,12.55-2.7,18.07-6.06
					c0.81-0.49,1.77-0.65,2.69-0.44l15.7,3.52l-4.29-14.63c-0.29-0.99-0.15-2.05,0.39-2.93c4.98-8.15,7.09-17.48,6.12-26.99
					C300.87,214.51,282.01,197.87,260.09,197.87z"/>
			</g>
			<g class="st19">
				<path class="st6" d="M300.42,265.22c-12.87,10.88-30.6,15.65-48.2,11.27c-19.52-4.86-33.91-19.73-39.08-37.77
					c-0.12,2.39-0.07,4.82,0.18,7.28c2.65,25.81,25.72,44.59,51.53,41.94c7.18-0.74,13.81-3.06,19.59-6.58l21.74,4.88l-6.03-20.57
					C300.24,265.52,300.33,265.37,300.42,265.22z"/>
			</g>
			<g>
				<path class="st27" d="M275.08,228.01L275.08,228.01c-4.07-4.07-10.66-3.34-14.72,0.73l-0.63,0.63l-0.63-0.63
					c-4.07-4.07-10.66-4.79-14.72-0.73l0,0c-4.07,4.07-4.07,10.66,0,14.72l0.63,0.63l12.78,12.78c1.07,1.07,2.81,1.07,3.88,0
					l12.78-12.78l0.63-0.63C279.14,238.67,279.14,232.08,275.08,228.01z"/>
			</g>
		</g>
	</g>
</g>
</svg>
