<?xml version="1.0" encoding="utf-8"?>
<!-- Generator: Adobe Illustrator 25.0.0, SVG Export Plug-In . SVG Version: 6.00 Build 0)  -->
<svg version="1.1" id="Layer_1" xmlns="http://www.w3.org/2000/svg" xmlns:xlink="http://www.w3.org/1999/xlink" x="0px" y="0px"
	 viewBox="0 0 1000 1000" style="enable-background:new 0 0 1000 1000;" xml:space="preserve">
<style type="text/css">
	.st0{fill:#66FEFF;}
	.st1{opacity:0.2;}
	.st2{fill:#2D0106;}
	.st3{fill:#FBB040;}
	.st4{fill:#8DC63F;}
	.st5{fill:#FFE09C;}
	.st6{opacity:0.6;}
	.st7{fill:#FFFFFF;}
	.st8{opacity:0.3;}
	.st9{fill:#351A60;}
	.st10{fill:#FF6C93;}
	.st11{fill:#FFB839;}
	.st12{fill:#FFCA83;}
	.st13{fill:#B199C5;}
	.st14{opacity:0.5;}
	.st15{fill:#FF0068;}
</style>
<g>
	<g>
		<rect class="st0" width="1000" height="1000"/>
	</g>
	<g>
		<g>
			<g class="st1">
				<ellipse class="st2" cx="507.18" cy="837.72" rx="318.62" ry="29.3"/>
			</g>
			<g>
				<path class="st3" d="M511.47,278.44c-9.91,3.73-19.19,7.56-27.84,11.48c-67.38,30.45-97.78,66-108.67,99.57
					c-20.84,64.25,29.88,121.24,29.88,121.24c-31.06,8.85-13.51,36.54-13.51,36.54c-58.96-21.59-76.4-82.5-76.4-82.5l-12.19,15.73
					c-26.57-141.24,72.54-193.71,72.54-193.71l-21.04-10.26C443.93,237.46,511.47,278.44,511.47,278.44z"/>
			</g>
			<g class="st1">
				<path class="st2" d="M374.96,389.48c-20.84,64.25,29.88,121.24,29.88,121.24c-31.06,8.85-13.51,36.54-13.51,36.54
					S295.2,483.36,374.96,389.48z"/>
			</g>
			<g class="st1">
				<path class="st2" d="M374.96,389.48c0,0-48.27,10.63-60.04,75.27l-12.19,15.73c0,0-6.22-155.87,132.06-182.01
					c0,0-27.68-11.71-59.52-11.71c-31.83,0-21.04-10.26-21.04-10.26s78.14-16.92,129.39,13.41
					C416.25,320.37,385.84,355.91,374.96,389.48z"/>
			</g>
			<g>
				<path class="st2" d="M391.32,551.91c-0.53,0-1.07-0.09-1.6-0.28c-47.9-17.54-69.19-59.35-76.35-77.28l-6.96,8.98
					c-1.12,1.45-2.99,2.11-4.78,1.68c-1.78-0.43-3.15-1.87-3.49-3.67c-14.03-74.55,6.97-124.54,27.06-153.35
					c14.89-21.35,31.23-34.4,40.46-40.72l-13.49-6.59c-1.63-0.8-2.65-2.47-2.61-4.29c0.04-1.82,1.13-3.45,2.8-4.17
					c47.43-20.64,88.71-18.99,114.99-13.97c28.59,5.46,45.8,15.77,46.52,16.2c1.52,0.93,2.39,2.64,2.22,4.42
					c-0.17,1.78-1.33,3.3-3,3.93c-78.45,29.51-124.09,68.15-135.64,114.84c-14.39,58.14,30.4,109.46,30.86,109.97
					c1.06,1.2,1.44,2.86,0.99,4.4c-0.45,1.54-1.65,2.74-3.2,3.18c-7.58,2.16-12.34,5.66-14.16,10.4
					c-3.27,8.51,3.25,19.07,3.31,19.18c1.06,1.69,0.93,3.87-0.33,5.41C394.04,551.3,392.7,551.91,391.32,551.91z M314.92,460.09
					c0.29,0,0.59,0.03,0.88,0.08c1.72,0.33,3.12,1.61,3.6,3.29c0.16,0.55,15.44,51.75,63.34,75.07c-1.21-4.82-1.64-10.63,0.49-16.24
					c2.27-5.96,6.92-10.56,13.87-13.73c-11.59-15.12-41.62-60.72-28.7-113.1c11.8-47.83,56.03-87.36,131.54-117.57
					c-7.54-3.31-19.48-7.71-34.74-10.58c-23.12-4.36-58.53-5.94-99.55,9.56l11.67,5.7c1.58,0.77,2.59,2.36,2.61,4.11
					c0.03,1.75-0.93,3.37-2.48,4.19c-0.24,0.13-24.31,13.17-44.86,42.82c-17.98,25.95-36.7,70.12-27.03,135.51l5.67-7.32
					C312.13,460.75,313.5,460.09,314.92,460.09z"/>
			</g>
			<g>
				<path class="st4" d="M773,767.44c0,5.23-0.21,10.04-0.61,14.47c-4.87,55.1-37.6,51.16-37.6,51.16H588.62l30.71-87.58l8.33-23.73
					c53.15-19.51,73.5,4.99,73.5,4.99C716.52,682.72,773,686.46,773,767.44z"/>
			</g>
			<g>
				<ellipse class="st5" cx="742.45" cy="766.76" rx="30.94" ry="53.31"/>
			</g>
			<g class="st1">
				<path class="st2" d="M772.39,781.91c-4.87,55.1-37.6,51.16-37.6,51.16H588.62l30.71-87.58c3.33,18.84,17.76,62.12,79.46,39.72
					c0,0-3.86-18.69,0-37.38c0,0,12.58,50.25,47.87,50.25C759.02,798.08,767.1,791.04,772.39,781.91z"/>
			</g>
			<g>
				<g class="st6">
					<path class="st7" d="M694.17,737.23c1.54-4.4,3.49-8.32,5.75-11.74c-5.09-4.73-26.53-20.52-72.27-3.73l-3.22,9.17
						C674.77,713.91,694.17,737.23,694.17,737.23z"/>
				</g>
				<g class="st6">
					<path class="st7" d="M703.79,720.45c21.74-24.27,62.22-11.08,62.22,57.47c0,5.23-0.21,10.04-0.61,14.47
						c-1.18,13.31-3.98,23.17-7.56,30.48c6.67-7.31,12.67-19.76,14.55-40.96c0.4-4.43,0.61-9.24,0.61-14.47
						C773,690.55,722.08,683.31,703.79,720.45z"/>
				</g>
			</g>
			<g>
				<path class="st2" d="M705.5,728.42c-0.17,0.44-0.41,1.15-0.6,1.77l-0.6,1.95c-0.39,1.32-0.75,2.67-1.07,4.03
					c-0.33,1.36-0.62,2.73-0.89,4.12c-0.31,1.37-0.55,2.77-0.78,4.17c-0.92,5.59-1.43,11.28-1.72,17.01
					c-0.17,5.73-0.14,11.51,0.27,17.29l0.09,2.18l0.18,2.17l0.31,4.37c0.22,2.92,0.56,5.84,0.68,8.83l0,0.01
					c0,0.12-0.09,0.22-0.21,0.23c-0.09,0-0.18-0.05-0.21-0.13c-1.14-2.74-2.23-5.53-3.15-8.37c-0.8-2.86-1.74-5.72-2.29-8.66
					l-0.88-4.4c-0.25-1.48-0.43-2.96-0.65-4.45c-0.47-2.97-0.67-5.97-0.95-8.97c-0.37-6.02-0.33-12.09,0.21-18.16
					c0.24-3.04,0.63-6.08,1.21-9.1c0.28-1.52,0.6-3.03,0.97-4.54c0.19-0.76,0.37-1.52,0.61-2.28c0.23-0.79,0.44-1.48,0.78-2.42
					c0.87-2.42,3.54-3.68,5.96-2.81c2.42,0.87,3.68,3.54,2.81,5.96c-0.01,0.02-0.02,0.04-0.02,0.07L705.5,728.42z"/>
			</g>
			<g>
				<path class="st2" d="M736.14,837.79c-0.7,0-1.23-0.03-1.56-0.05H588.62c-1.51,0-2.93-0.73-3.8-1.97
					c-0.87-1.23-1.1-2.81-0.6-4.24l39.04-111.31c0.46-1.31,1.48-2.35,2.79-2.83c40.86-15,63.66-5.11,73.25,1.63
					c8.38-17.55,23.8-27.25,39.93-24.52c18.58,3.15,38.43,23.96,38.43,72.94c0,29.43-6.51,50.13-19.36,61.53
					C749.41,836.85,740.07,837.79,736.14,837.79z M595.19,828.41h139.6c0.19,0,0.37,0.01,0.55,0.03c0.31,0.03,8.75,0.79,16.96-6.63
					c10.48-9.47,16.03-28.28,16.03-54.38c0-43.22-16.52-61.35-30.66-63.75c-13.29-2.24-26.2,7.63-32.12,24.59
					c-0.55,1.59-1.92,2.75-3.57,3.05c-1.65,0.3-3.34-0.32-4.41-1.61c-0.73-0.85-18.8-20.99-66.25-4.32L595.19,828.41z"/>
			</g>
			<g>
				<path class="st4" d="M575.57,584.21c0,0,56.83-4.05,104.32-34.61c6.53-4.2,14.17-6.47,21.93-6c8.88,0.54,19.59,4.08,26.77,16.11
					c15.36,25.75-30.31,78.28-83.05,88.66L575.57,584.21z"/>
			</g>
			<g class="st8">
				<path class="st9" d="M621.71,601.18l-22.35-20.49c-14.37,2.86-23.79,3.53-23.79,3.53l69.97,64.16
					c48.83-9.61,91.61-55.36,85.48-82.53c-6.35,13.96-19.62,28.9-36.57,40.63C672.05,621.99,641.8,619.59,621.71,601.18z"/>
			</g>
			<g class="st6">
				<path class="st7" d="M683.39,558.92c6.53-4.2,14.17-6.47,21.93-6c8.6,0.53,18.91,3.88,26.07,15.02c-0.39-2.96-1.3-5.72-2.8-8.23
					c-7.18-12.03-17.89-15.57-26.77-16.11c-7.76-0.47-15.39,1.8-21.93,6c-47.5,30.56-104.32,34.61-104.32,34.61l9.48,8.69
					C600.85,590.95,645.14,583.53,683.39,558.92z"/>
			</g>
			<g>
				<path class="st2" d="M645.54,653.03c-1.16,0-2.28-0.43-3.15-1.23l-69.97-64.16c-1.37-1.26-1.86-3.21-1.25-4.97
					c0.61-1.76,2.21-2.98,4.07-3.12c0.56-0.04,56.25-4.36,102.14-33.88c7.66-4.92,16.21-7.25,24.73-6.73
					c13.26,0.81,23.8,7.17,30.49,18.38c5.13,8.59,4.91,19.71-0.63,32.15c-11.04,24.78-44.77,55.45-85.52,63.47
					C646.14,653,645.84,653.03,645.54,653.03z M586.25,587.68l60.68,55.64c35.36-7.85,66.51-35.17,76.52-57.64
					c2.97-6.66,5.58-16.16,1.15-23.58c-5.11-8.56-12.87-13.22-23.06-13.85c-6.53-0.4-13.15,1.42-19.12,5.27
					C646.11,576.88,605.07,585.03,586.25,587.68z"/>
			</g>
			<g>
				<path class="st4" d="M579.31,554.73c0.28,0.58,0.57,1.17,0.89,1.74c3.18,5.95,7.91,11.39,13.62,16.89
					c26.63,25.68,74.55,52.35,85.99,135.3c1.5,10.89,1.85,20.82,1.28,29.87c-5.2,81.57-85.99,91.93-85.99,91.93
					c-0.48,0.48-0.98,0.94-1.48,1.39c-14.14,12.49-38.39,13.01-38.39,13.01H406.83c-144.83,0-178.94-78.65-186.34-105.33
					c-0.57-2.07,0.02-4.08,1.28-5.49l0.35-0.35c0.59-0.56,1.3-1,2.09-1.28c0.87-0.33,1.84-0.44,2.85-0.29
					c138.42,19.78,205.78-60.5,205.88-132.3c0.05-31.7-13.01-61.75-38.84-80.81c-63.43-46.79-41.52-119.87-41.52-119.87
					c-21.98-25.82-25.33-60.54-24.8-82.7c0.08-3.25,0.87-6.33,2.21-9.06c2.53-5.16,7.03-9.15,12.42-11.02
					c3.06-1.06,6.42-1.44,9.87-0.98c35,4.7,52.91,25.69,52.91,25.69c1.05-1.25,2.13-2.47,3.24-3.65
					c47.67-51.09,141.82-37.6,141.82-37.6c11.52-18.22,25.6-27.8,34.61-32.45c3.01-1.54,6.4-1.69,9.36-0.64
					c2.45,0.85,4.6,2.53,6.03,4.9c12.92,21.53,8.41,53.09,8.41,53.09c29.9,32.12,31.7,68.11,31.7,68.11s46.56,6.72,57.87,57.55
					c1.11,4.93,1.88,10.28,2.24,16.08c0.27,4.26,0.3,8.77,0.1,13.53C697.25,537.77,579.31,554.73,579.31,554.73z"/>
			</g>
			<g>
				<g>
					<path class="st5" d="M382.7,377.06c5.72-2.79,11.91-7.97,15.37-17.58c1.81-5.04,0.82-10.65-2.46-14.89
						c-6.15-7.95-18.69-20.82-38.27-25.93c-3.99-1.04-7.99,1.8-8.27,5.92c-0.66,9.82,0.46,28.16,13.74,47.19
						C367.27,378.17,375.68,380.48,382.7,377.06z"/>
				</g>
				<g>
					<path class="st5" d="M593.55,297.88c-3.84-2.51-9.58-5.86-16.18-8.36c-1.97-0.75-2.89-3.02-2.01-4.93
						c2.21-4.82,6.64-13.45,12.65-20.27c2.06-2.34,5.87-1.65,7.03,1.24c2.3,5.73,5.09,15.78,4.17,29.54
						C599.02,297.87,595.88,299.4,593.55,297.88z"/>
				</g>
				<g>
					<path class="st5" d="M595.09,830.47c-0.48,0.48-0.98,0.94-1.48,1.39c-0.03-0.82,0.36-1.39,0.36-1.39
						c-50.93,22.7-49.05-90.85-30.09-109.81c18.69-18.69,35.42,2.42,36.14,3.36c-1.17-1.95-2.43-3.71-3.7-5.3
						c-6.98-8.71-17.39-14.19-28.56-14.23c-14.67-0.05-22.42,8.69-22.42,8.69c-7.39-32.85-14.48-34.43-34.42-85.08
						c-5.74-14.6-7.28-26.59-6.56-36.25c1.38-18.52,16.72-32.94,35.28-33.64c20.29-0.77,39.66-3.47,39.66-3.47
						c16.61,34.88,86.38,51.5,100.5,153.93C694.82,817.66,595.09,830.47,595.09,830.47z"/>
				</g>
				<g>
					<path class="st5" d="M446.14,843.48l-0.99,1.39h-38.32c-144.83,0-178.94-78.65-186.34-105.33c-0.62-2.25,0.13-4.43,1.63-5.84
						c0.59-0.56-0.78,0.28,0,0c59.22,107.72,198.55,78.22,198.55,78.22C420.67,847.91,446.14,843.48,446.14,843.48z"/>
				</g>
			</g>
			<g class="st1">
				<path class="st2" d="M700.57,460c-3.32,77.77-121.26,94.73-121.26,94.73c0.28,0.58,0.57,1.17,0.89,1.74
					c3.18,5.95,7.91,11.39,13.62,16.89c-20.42,1.11-64.58,1.72-107.21-9.41c-21.58-5.63-39.84,16.6-30.3,36.75
					c0.16,0.34,0.32,0.68,0.49,1.02c0,0-13.22,1.39-23.86-1.9c0.05-31.7-13.01-61.75-38.84-80.81
					c-63.43-46.79-41.52-119.87-41.52-119.87c-21.98-25.82-25.33-60.54-24.8-82.7c0.23-9.4,4.18-14.36,10.22-17.96
					c-4.56,20.63-5.03,62.34,29.09,92.02c3.57,3.11,5.4,7.76,4.72,12.44c-3.34,22.89,3.53,94.1,85.02,120.92
					c92.67,30.5,243.75-6.16,241.4-93.47c1.11,4.93,1.88,10.28,2.24,16.08C700.73,450.74,700.76,455.25,700.57,460z"/>
			</g>
			<g class="st1">
				<path class="st2" d="M680.01,748.68c-10.38,68.65-77.62,80.67-84.37,81.71c-0.36,0.06-0.69,0.22-0.95,0.47
					c-0.35,0.34-0.71,0.67-1.08,0.99c-14.14,12.49-38.39,13.01-38.39,13.01H406.83c-144.83,0-178.94-78.65-186.34-105.33
					c-0.01-0.02-0.01-0.04-0.02-0.06c-0.53-2.01,2.38-3.02,3.29-1.15c16.43,33.84,60.2,90.27,169.47,90.29
					c6.12,0,11.52-4.04,13.13-9.95c1.16-4.25,3.21-9.29,6.82-13.82c4.31-5.41,12.4-5.84,17.31-0.97c8.67,8.61,26.45,21.54,56.07,23
					c38.52,1.9,59.22-30.21,64.29-39.3c0.6-1.08,2.09-1.23,2.88-0.27c6.99,8.48,34.94,37.76,55.59-7.52
					c0.11-0.25,0.17-0.52,0.16-0.8c-0.13-3.37-1.11-26.51-4.19-41.59c1.42,6.1,9.4,33.65,37.96,33.65
					c15.35,0,26.27-10.57,33.49-23.49C677.71,745.84,680.3,746.75,680.01,748.68z"/>
			</g>
			<g class="st6">
				<path class="st7" d="M423.17,779.8c0,0,8.72-44.64,56.06-50.66c47.34-6.02,52.87,26.99,52.87,26.99s-2.15,15.99,0,29.07
					c0,0,6.09-50.87,21.67-66.44s45.85-6.63,50.46,20.76c0,0,1.61-32.17-29.92-34.39c-31.53-2.22-42.2,28.3-42.2,28.3
					s-29.74-30.87-71.62-13.64S423.17,779.8,423.17,779.8z"/>
			</g>
			<g class="st6">
				<path class="st7" d="M569.34,554.73c0,0,3.05,17.77,27.68,36.15c24.64,18.38,85.95,65.42,71.7,191.12
					c0,0,36.11-79.25-21.25-156.17c0,0-15.6-21.28-43.23-43.08c-27.63-21.8-24.93-29.07-24.93-29.07S576.4,556.18,569.34,554.73z"/>
			</g>
			<g class="st6">
				<path class="st7" d="M700.57,460c0,0-10.68-68.48-63.84-77.69c-2.88-0.5-5.05-2.86-5.33-5.77
					c-1.09-11.26-6.19-39.22-29.96-63.71c-3.06-3.15-4-7.78-2.53-11.91c2.99-8.47,5.62-25.73-4.7-54.19c2.45,0.85,4.6,2.53,6.03,4.9
					c12.92,21.53,8.41,53.09,8.41,53.09c29.9,32.12,31.7,68.11,31.7,68.11s46.56,6.72,57.87,57.55c1.11,4.93,1.88,10.28,2.24,16.08
					C700.73,450.74,700.76,455.25,700.57,460z"/>
			</g>
			<g class="st6">
				<path class="st7" d="M419.94,338.37c0,0-63.53-45.3-89.95-30.99c2.53-5.16,7.03-9.15,12.42-11.02c3.06-1.06,6.42-1.44,9.87-0.98
					c35,4.7,52.91,25.69,52.91,25.69c1.05-1.25,2.13-2.47,3.24-3.65C413.29,324.88,417.48,332.21,419.94,338.37z"/>
			</g>
			<g>
				<g>
					<path class="st2" d="M580,559.34c-6.94,0.94-13.71,1.51-20.58,1.85c-6.85,0.38-13.71,0.5-20.56,0.42
						c-6.85-0.08-13.71-0.38-20.54-1.04c-6.83-0.61-13.62-1.71-20.31-3.17c-0.24-0.05-0.4-0.29-0.35-0.54
						c0.04-0.21,0.22-0.35,0.43-0.36l0.01,0c6.83-0.24,13.59-0.37,20.34-0.72c6.75-0.34,13.47-0.66,20.19-1.23
						c6.71-0.53,13.41-1.17,20.09-1.9c6.66-0.77,13.39-1.61,19.9-2.54l0.09-0.01c2.55-0.36,4.91,1.4,5.27,3.95
						c0.36,2.55-1.4,4.91-3.95,5.27L580,559.34z"/>
				</g>
				<g>
					<path class="st9" d="M408.47,317.78c1.4,1.46,2.57,2.97,3.74,4.55c1.15,1.58,2.22,3.22,3.23,4.91
						c1.03,1.67,1.94,3.43,2.79,5.23c0.82,1.82,1.55,3.69,2.04,5.68c0.06,0.23-0.08,0.46-0.31,0.51c-0.12,0.03-0.24,0-0.34-0.06
						c-1.71-1.1-3.26-2.26-4.81-3.42c-1.53-1.17-3.03-2.33-4.49-3.53c-1.47-1.19-2.93-2.37-4.34-3.59c-1.41-1.21-2.84-2.46-4.11-3.7
						l-0.03-0.03c-1.84-1.8-1.86-4.76-0.06-6.59c1.8-1.84,4.75-1.86,6.59-0.06C408.4,317.71,408.44,317.75,408.47,317.78z"/>
				</g>
				<g>
					<path class="st2" d="M592.23,826.79c-0.07,0.06,0.11-0.11,0.22-0.22c0.11-0.1,0.25-0.26,0.39-0.4
						c0.27-0.28,0.55-0.59,0.82-0.94c0.56-0.64,1.06-1.41,1.59-2.13c0.49-0.77,0.97-1.56,1.44-2.36l1.3-2.51
						c1.61-3.45,2.86-7.14,3.86-10.94c1.99-7.61,2.79-15.66,2.92-23.74c0.11-2.01,0.02-4.05-0.01-6.07
						c-0.07-2.03-0.02-4.05-0.21-6.09c-0.29-4.06-0.53-8.13-1.02-12.22c-0.93-8.14-2.15-16.23-4.3-23.86
						c-1.08-3.8-2.42-7.46-4.13-10.8c-1.74-3.3-3.85-6.26-6.48-8.51c-2.6-2.28-5.72-3.84-9.19-4.83c-3.49-0.95-7.27-1.37-11.17-1.38
						c-0.97-0.01-1.95-0.01-2.94,0.04c-0.48,0.02-1.01,0.02-1.46,0.06l-1.32,0.11c-1.74,0.22-3.47,0.52-5.1,1.11
						c-3.28,1.11-6.3,2.97-8.91,5.45c-2.62,2.46-4.86,5.48-6.69,8.78c-0.92,1.65-1.73,3.38-2.45,5.14c-0.36,0.88-0.7,1.77-1,2.67
						c-0.15,0.45-0.3,0.9-0.43,1.34c-0.13,0.42-0.27,0.94-0.34,1.22c-0.62,2.51-3.16,4.05-5.67,3.43c-1.03-0.25-1.89-0.83-2.51-1.59
						l-0.18-0.22v0l-0.57-0.67l-0.7-0.78c-0.48-0.52-0.99-1.03-1.51-1.53c-1.04-1-2.15-1.96-3.28-2.89
						c-2.27-1.84-4.72-3.47-7.26-4.92c-5.09-2.89-10.67-4.81-16.42-5.86c-5.77-1.01-11.72-1.05-17.65-0.35
						c-2.96,0.4-5.93,0.93-8.86,1.69c-1.47,0.36-2.94,0.73-4.39,1.2l-2.19,0.67l-2.13,0.77c-11.32,4.08-21.51,11.03-28.21,20.94
						c-6.68,9.87-10.66,21.69-12.65,34.41l-0.01,0.04c-0.05,0.31-0.34,0.53-0.66,0.48c-0.23-0.04-0.4-0.2-0.46-0.41
						c-0.95-3.25-1.28-6.58-1.39-9.94c-0.05-3.35,0.15-6.74,0.74-10.08c1.13-6.7,3.6-13.26,7.26-19.15
						c1.85-2.93,3.92-5.74,6.24-8.34c2.36-2.55,4.84-5.02,7.6-7.14c1.33-1.13,2.79-2.06,4.19-3.09c1.47-0.9,2.92-1.87,4.44-2.69
						c1.52-0.81,3.03-1.67,4.6-2.35l2.34-1.08c0.79-0.34,1.59-0.64,2.38-0.96c6.35-2.5,12.93-4.34,19.79-5.27
						c3.43-0.42,6.89-0.71,10.39-0.65c3.49,0.08,6.99,0.35,10.45,1.02c6.92,1.25,13.65,3.74,19.68,7.36c3.03,1.8,5.86,3.9,8.51,6.21
						c1.32,1.16,2.59,2.39,3.79,3.69c0.6,0.66,1.19,1.32,1.77,2.02l0.86,1.07c0.3,0.38,0.54,0.7,0.91,1.23l0,0l-8.35,1.62
						c0.18-0.73,0.32-1.22,0.49-1.79c0.17-0.56,0.34-1.1,0.53-1.64c0.37-1.08,0.76-2.15,1.19-3.19c0.86-2.1,1.83-4.15,2.94-6.15
						c2.21-3.99,4.98-7.78,8.45-11.04c1.73-1.63,3.63-3.12,5.7-4.39c2.07-1.26,4.29-2.31,6.6-3.1c2.31-0.82,4.71-1.27,7.1-1.55
						l1.8-0.15c0.59-0.04,1.11-0.04,1.67-0.07c1.1-0.05,2.21-0.05,3.32-0.04c4.44,0.02,9.03,0.48,13.61,1.73
						c2.28,0.64,4.54,1.52,6.71,2.63c2.17,1.11,4.2,2.54,6.06,4.12c3.73,3.21,6.51,7.19,8.65,11.26c2.1,4.1,3.62,8.32,4.82,12.54
						c2.38,8.46,3.64,16.94,4.6,25.38c0.5,4.2,0.76,8.47,1.06,12.74c0.2,2.13,0.15,4.28,0.22,6.42c0.04,2.15,0.13,4.29,0.01,6.45
						c-0.15,8.6-0.99,17.3-3.22,25.86c-1.12,4.28-2.55,8.52-4.48,12.64l-1.58,3.05c-0.59,1-1.19,2-1.83,2.98
						c-0.69,0.97-1.34,1.95-2.15,2.89c-0.37,0.47-0.79,0.95-1.25,1.42c-0.22,0.24-0.43,0.46-0.7,0.72
						c-0.27,0.25-0.46,0.45-0.94,0.83c-2.03,1.58-4.96,1.21-6.54-0.82C589.83,831.29,590.2,828.36,592.23,826.79z"/>
				</g>
				<g>
					<path class="st2" d="M537.53,736.04c-0.23,0.75-0.49,1.79-0.73,2.73c-0.25,0.96-0.47,1.95-0.68,2.93
						c-0.4,1.98-0.84,3.97-1.16,5.99c-0.18,1.01-0.34,2.02-0.48,3.03c-0.15,1.02-0.29,2.03-0.4,3.05c-0.28,2.04-0.47,4.09-0.67,6.15
						c-0.34,4.12-0.57,8.27-0.64,12.45c-0.14,4.18-0.14,8.38-0.3,12.67l0,0.02c-0.02,0.53-0.46,0.94-0.99,0.92
						c-0.4-0.01-0.74-0.28-0.87-0.64c-0.36-1.02-0.66-2.06-0.98-3.1c-0.31-1.04-0.65-2.08-0.87-3.13c-0.48-2.11-0.99-4.23-1.3-6.37
						c-0.75-4.28-1.04-8.62-1.28-12.98c-0.16-4.36-0.08-8.74,0.28-13.13c0.16-2.19,0.4-4.39,0.75-6.58c0.17-1.1,0.36-2.2,0.58-3.3
						c0.22-1.13,0.46-2.15,0.81-3.44c0.69-2.48,3.26-3.94,5.74-3.25c2.48,0.69,3.94,3.25,3.25,5.74c-0.01,0.03-0.02,0.07-0.03,0.1
						L537.53,736.04z"/>
				</g>
				<g>
					
						<ellipse transform="matrix(0.3499 -0.9368 0.9368 0.3499 -55.9996 810.3304)" class="st2" cx="555.85" cy="445.51" rx="9.97" ry="12.46"/>
				</g>
				<g>
					
						<ellipse transform="matrix(0.3499 -0.9368 0.9368 0.3499 15.0085 888.6229)" class="st2" cx="647.76" cy="433.5" rx="8.74" ry="6.99"/>
				</g>
			</g>
			<g>
				<path class="st2" d="M448.55,849.5c-0.5,0.05-0.79,0.06-1.12,0.07c-0.34,0.02-0.65,0.02-0.95,0.01c-0.62,0-1.23-0.03-1.83-0.09
					c-1.21-0.08-2.37-0.32-3.54-0.56c-1.14-0.33-2.32-0.57-3.41-1.05l-1.66-0.67c-0.54-0.26-1.06-0.55-1.59-0.83
					c-0.52-0.29-1.06-0.54-1.55-0.88l-1.45-1.04c-0.47-0.36-0.98-0.67-1.42-1.07l-1.29-1.2c-0.43-0.4-0.85-0.81-1.27-1.22
					l-1.09-1.36c-0.71-0.92-1.48-1.79-2.02-2.79c-0.58-0.97-1.16-1.96-1.69-2.94l-1.27-3.07c-0.2-0.51-0.44-1.01-0.59-1.54
					l-0.43-1.57c-0.28-1.05-0.53-2.09-0.77-3.14c-0.27-2.12-0.47-4.23-0.53-6.32c0.12-2.11,0.28-4.19,0.64-6.24
					c0.09-0.53,0.6-0.88,1.13-0.79c0.33,0.06,0.59,0.27,0.72,0.55l0.04,0.09c0.85,1.9,1.5,3.77,2.1,5.61
					c0.32,0.92,0.73,1.79,1.07,2.68c0.34,0.89,0.65,1.78,1,2.65c1.58,3.35,2.99,6.73,5.29,9.29c2.16,2.64,4.72,4.72,7.61,6.08
					l1.08,0.51l1.13,0.39c0.74,0.3,1.53,0.44,2.3,0.67c0.78,0.13,1.57,0.32,2.35,0.37c0.4,0.06,0.78,0.08,1.15,0.1
					c0.19,0.02,0.38,0.03,0.54,0.03c0.17,0,0.37,0.01,0.37,0.01l0.64,0.02c2.56,0.1,4.55,2.25,4.46,4.81
					C452.62,847.4,450.81,849.27,448.55,849.5z"/>
			</g>
			<g>
				<path class="st2" d="M553.34,484.57c0,0-27.46,3.74-50.55-8.96c0,0-1.95,49.76,27.81,53.12
					C560.36,532.09,553.34,484.57,553.34,484.57z"/>
			</g>
			<g>
				<path class="st10" d="M504.53,493.85c0,0,13.89-3.81,25.44,5.85c11.55,9.66,6.96,27.5,6.96,27.5S507.42,526.23,504.53,493.85z"
					/>
			</g>
			<g>
				<path class="st2" d="M533.76,530.56c-1.04,0-2.11-0.06-3.21-0.18c-32.29-3.45-30.54-52.6-30.45-54.69
					c0.05-1.07,0.64-2.05,1.57-2.58c0.93-0.53,2.07-0.55,3.02-0.05c21.85,11.62,48.37,8.25,48.63,8.22
					c1.68-0.23,3.25,0.95,3.51,2.64c0.17,1.14,4.04,28.07-7.87,40.48C545.03,528.49,539.93,530.56,533.76,530.56z M506.38,480.82
					c0.42,11.79,3.63,41.08,24.84,43.34c5.68,0.61,10-0.73,13.23-4.09c7.77-8.09,7.14-25.38,6.53-32.29
					C543.53,488.34,524.41,488.76,506.38,480.82z"/>
			</g>
			<g>
				<path class="st2" d="M553.58,481.25c0.9-0.02,2.12-0.1,3.21-0.17c1.13-0.08,2.27-0.18,3.41-0.33c1.15-0.13,2.3-0.33,3.47-0.55
					c1.18-0.21,2.33-0.53,3.57-0.82l0.03-0.01c0.27-0.06,0.53,0.1,0.59,0.37c0.04,0.15-0.01,0.31-0.1,0.43
					c-0.83,1.01-1.78,1.94-2.83,2.73c-1.03,0.83-2.16,1.53-3.34,2.14c-1.18,0.61-2.4,1.15-3.67,1.56c-1.3,0.43-2.5,0.73-4.04,0.89
					c-1.72,0.18-3.25-1.08-3.43-2.8c-0.17-1.72,1.08-3.25,2.8-3.43c0.08-0.01,0.15-0.01,0.23-0.02L553.58,481.25z"/>
			</g>
			<g>
				<path class="st2" d="M406.83,849.52c-63.22,0-112.91-14.72-147.69-43.74c-28.43-23.72-39.23-50.91-43.14-65
					c-0.95-3.44-0.12-7.09,2.24-9.77c2.37-2.7,5.92-4.01,9.48-3.5c109.68,15.67,170.93-32.88,191.69-83.54
					c18.61-45.43,7.07-95.27-28.07-121.2c-34.14-25.19-44.08-57.82-46.42-80.76c-2.02-19.86,1.11-35.8,2.54-41.73
					c-21.1-26.16-24.92-59.94-24.34-83.94c0.18-7.51,3.57-14.62,9.29-19.51c5.67-4.84,13.14-7.05,20.49-6.07
					c27.51,3.69,44.91,16.91,52.08,23.51c19.99-21.37,50.85-34.9,89.65-39.22c24.9-2.77,45.75-1.04,53.29-0.21
					c11.56-17.22,25.2-26.66,34.8-31.61c7.67-3.95,17.12-1.31,21.51,6.01c11.73,19.54,10.09,46.07,9.29,53.92
					c24.23,26.92,29.86,55.77,31.12,65.81c5.88,1.42,17.99,5.25,29.92,14.53c14.98,11.66,32.46,34.43,30.65,76.71
					c-1.44,33.65-23.76,61.5-64.56,80.55c-21.96,10.25-43.44,15.33-53.99,17.41c5.63,8.25,14.64,15.97,24.79,24.66
					c26.66,22.85,63.17,54.14,72.96,125.19c4.84,35.12-1.4,64.29-18.55,86.71c-23.78,31.09-60.51,38.77-68.63,40.12
					c-15.18,13.94-40.81,14.65-41.92,14.67L406.83,849.52z M226.19,736.72c-0.49,0-0.81,0.27-0.96,0.44c-0.2,0.22-0.4,0.6-0.26,1.13
					c3.62,13.05,13.65,38.24,40.13,60.34c33.06,27.59,80.74,41.58,141.72,41.58h148.39c0.14,0,24.25-0.71,36.57-13.03
					c0.73-0.73,1.68-1.2,2.7-1.33c0.39-0.05,40.16-5.58,64.04-36.86c15.54-20.36,21.14-47.17,16.66-79.69
					c-9.31-67.55-42.85-96.29-69.79-119.39c-13.14-11.26-24.5-20.99-30.29-33.17c-0.64-1.34-0.6-2.9,0.1-4.2
					c0.7-1.3,1.98-2.2,3.44-2.41c1.14-0.16,114.15-17.33,117.27-90.31c1.31-30.75-7.79-53.95-27.06-68.96
					c-14.33-11.15-29.01-13.38-29.16-13.4c-2.21-0.32-3.88-2.15-3.99-4.38c-0.02-0.34-2.16-34.78-30.45-65.16
					c-0.96-1.03-1.4-2.44-1.2-3.83c0.04-0.3,4.1-30.22-7.79-50.04c-1.87-3.12-5.94-4.22-9.26-2.52
					c-9.03,4.65-22.05,13.76-32.81,30.79c-0.98,1.55-2.78,2.39-4.6,2.12c-0.96-0.14-96.56-13.08-140.84,39.63
					c-0.88,1.05-2.18,1.66-3.55,1.66c-0.01,0-0.01,0-0.02,0c-1.36,0-2.66-0.6-3.55-1.64c-0.16-0.19-17.32-19.72-49.97-24.1
					c-4.8-0.64-9.49,0.75-13.2,3.92c-3.71,3.17-5.91,7.78-6.03,12.65c-0.55,22.96,3.11,55.4,23.69,79.56
					c1.02,1.2,1.37,2.84,0.92,4.36c-0.05,0.17-5.22,17.94-2.81,40.93c3.2,30.49,17.54,55.34,42.64,73.86
					c19.42,14.33,32.57,34.87,38.03,59.4c5.21,23.43,2.78,49.3-6.87,72.84c-19.25,46.98-70.77,92.33-159.8,92.33
					c-13.12,0-27.06-0.99-41.83-3.1C226.33,736.73,226.26,736.72,226.19,736.72z"/>
			</g>
			<g>
				<path class="st4" d="M481.28,672.64c24.26-5.92,55.91,1.18,55.91,1.18s12.7,12.87,24.26,12.87c23.66,0,42.89-40.97,12.42-64.63
					c-30.47-23.66-82.53-30.76-82.53-30.76l0,0c-16.11,23.13-20.14,52.59-10.81,79.19L481.28,672.64z"/>
			</g>
			<g class="st1">
				<path class="st2" d="M589.56,652.91c0,0-11.36,26.57-44.86,7.94c-29-16.13-58.01-11.45-68.86,2.86
					c-2.98,3.93-0.02,9.56,4.91,9.29c1.68-0.09,3.69-0.28,6.09-0.6c15.79-2.1,32.58-4.05,50.34,1.44c0,0,8.05,12.87,24.26,12.87
					S589.56,672.46,589.56,652.91z"/>
			</g>
			<g class="st6">
				<path class="st7" d="M585.99,670.08c0,0,19.77-40.42-94.36-73.95c-3.04-0.89-2.28-5.42,0.88-5.24
					c6.96,0.38,18.08,2.57,35.73,9.02C569.96,615.15,597.87,628.88,585.99,670.08z"/>
			</g>
			<g>
				<path class="st2" d="M533.56,674.78l-0.31-0.87c-0.11-0.34-0.25-0.68-0.38-1.03c-0.26-0.69-0.56-1.38-0.88-2.05
					c-0.63-1.36-1.4-2.65-2.32-3.86c-0.45-0.63-0.99-1.15-1.52-1.74c-0.59-0.48-1.16-1.08-1.84-1.5c-1.31-1-2.86-1.68-4.55-2.39
					l-0.05-0.02c-0.25-0.11-0.37-0.4-0.27-0.65c0.07-0.16,0.22-0.27,0.38-0.3c1.85-0.29,3.87-0.42,5.84,0.06
					c1.99,0.39,3.95,1.22,5.68,2.4c1.76,1.15,3.29,2.64,4.56,4.3c0.61,0.85,1.19,1.72,1.67,2.65c0.25,0.46,0.46,0.94,0.67,1.44
					c0.21,0.52,0.37,0.95,0.56,1.66c0.53,2-0.65,4.05-2.65,4.58c-1.9,0.51-3.85-0.54-4.49-2.36L533.56,674.78z"/>
			</g>
			<g>
				<path class="st2" d="M491.42,590.7c4.3-0.22,8.54,0.09,12.75,0.61c4.21,0.51,8.38,1.3,12.5,2.28c8.23,2.02,16.39,4.39,24.4,7.33
					c8,2.94,15.87,6.37,23.38,10.62l5.57,3.34l5.35,3.75c3.57,2.63,6.94,5.79,9.73,9.43c5.6,7.26,8.76,16.66,8.31,25.93
					c-0.34,9.26-3.75,18.3-9.76,25.46c-3.02,3.56-6.75,6.66-11.18,8.69c-1.07,0.56-2.26,0.92-3.41,1.34
					c-1.2,0.31-2.37,0.68-3.61,0.83c-1.22,0.24-2.47,0.28-3.72,0.33c-0.62,0.02-1.28-0.06-1.92-0.09c-0.65-0.03-1.29-0.1-1.89-0.24
					c-4.97-0.87-9.14-3.02-12.96-5.4c-1.89-1.22-3.7-2.54-5.42-3.93c-1.74-1.42-3.34-2.81-5.02-4.5l1.85,1.02l0,0
					c-4.36-0.89-8.98-1.65-13.51-2.32c-4.55-0.66-9.13-1.2-13.71-1.59c-4.59-0.4-9.17-0.52-13.78-0.57
					c-4.6-0.01-9.18,0.17-13.9,0.39l-0.03,0c-0.44,0.02-0.81-0.32-0.83-0.75c-0.02-0.34,0.19-0.64,0.48-0.77
					c4.44-1.87,9.17-3.03,13.93-3.74c4.77-0.62,9.57-0.88,14.37-0.91c4.79,0.01,9.58,0.24,14.35,0.72c2.38,0.25,4.76,0.52,7.13,0.9
					c2.38,0.37,4.7,0.75,7.15,1.31l0,0c0.67,0.14,1.26,0.46,1.72,0.9l0.13,0.12c1.3,1.25,2.89,2.59,4.43,3.79
					c1.56,1.21,3.18,2.31,4.82,3.35c3.27,2.03,6.77,3.68,10.1,4.21c0.42,0.1,0.83,0.13,1.22,0.14c0.41,0.01,0.79,0.08,1.21,0.06
					c0.85-0.06,1.69-0.07,2.53-0.25c0.85-0.09,1.67-0.39,2.5-0.59c0.81-0.33,1.65-0.56,2.42-0.98c3.19-1.49,6.05-3.87,8.48-6.66
					c4.83-5.64,7.73-13.11,8.04-20.6c0.42-7.52-2.04-14.99-6.59-21.04c-2.26-3.05-4.99-5.75-8.12-8.15l-4.88-3.56l-5.16-3.23
					c-7.02-4.11-14.46-7.63-22.11-10.68c-7.66-3.06-15.56-5.58-23.54-7.78c-1.99-0.57-4-1.09-5.99-1.69c-2-0.56-4-1.14-5.99-1.76
					c-4-1.19-8-2.42-11.99-3.87l-0.02-0.01c-0.32-0.12-0.49-0.47-0.37-0.79C490.96,590.86,491.18,590.71,491.42,590.7z"/>
			</g>
			<g>
				<path class="st5" d="M432.34,649.53c-36.87,1.32-81.87,48.65-83.23,50.1c-0.02,0.03-0.03,0.04-0.03,0.04
					c-58.15-38.65-108.86-30.24-108.86-30.24c16.16-55.57,0.13-96.58,0.13-96.58c91.18-26.54,101.7,13.62,142.87,25.24
					c33.33,9.42,44.89,37.33,48.09,47.59C432.05,648.1,432.34,649.53,432.34,649.53z"/>
			</g>
			<g class="st1">
				<path class="st2" d="M431.31,645.68c-7.52-2.52-15.93-5.17-22.83-6.9c-16.62-4.17-58.13,58.96-59.36,60.85
					c-0.02,0.03-0.03,0.04-0.03,0.04s1.23-44.48-23.96-54.86c-25.2-10.38-84.91,24.61-84.91,24.61
					c19.79-29.35,47.16-52.7,47.16-52.7c5.7-39.2-47.03-43.88-47.03-43.88c91.18-26.54,101.7,13.62,142.87,25.24
					C416.56,607.51,428.11,635.41,431.31,645.68z"/>
			</g>
			<g>
				<path class="st11" d="M349.55,703.74l-2.2-1.46c-56.33-37.45-106.12-29.84-106.62-29.77l-4.89,0.8l1.38-4.76
					c15.68-53.93,0.38-94.18,0.22-94.58l-1.24-3.18l3.28-0.95c66.12-19.24,90.79-4.06,114.64,10.63
					c9.49,5.84,18.45,11.36,29.95,14.61c42.51,12.01,51,52.14,51.34,53.84l0.72,3.6l-3.67,0.13c-35.71,1.28-80.65,48.67-81.1,49.15
					L349.55,703.74z M253.36,665.47c18.85,0,55.03,4.11,95.27,30.16c8.74-8.89,46.22-45.16,79.75-48.94
					c-2.91-9.64-13.75-36.49-46.01-45.61c-12.33-3.49-22.09-9.49-31.53-15.3c-22.31-13.74-45.36-27.94-106.46-10.85
					c3.34,10.53,12.13,45.36,0.09,90.87C246.72,665.63,249.72,665.47,253.36,665.47z"/>
			</g>
			<g>
				<path class="st4" d="M436.42,653.34c0,0-5.98-3.61-12.49-17.16c-4.21-8.8-10.13-12.16-13.78-13.45
					c-1.9-0.66-3.99-0.55-5.81,0.29c-30.52,14.22-55.25,76.64-55.25,76.64c-11.74-44.13,16.49-86.89,16.49-86.89
					c-68.25,3.83-125.35,56.65-125.35,56.65c20.99-59.58,80.69-83.02,80.69-83.02c-29.55-21.16-80.56-13.56-80.56-13.56
					s0.01,0,0.02-0.01c45.25-33.93,99.3-18.55,99.3-18.55c-3.39-14.96,6.44-22.57,6.44-22.57c17.91,37.64,64.61,63.19,78.91,67.38
					c13.91,4.06,30.85,0.37,31.81,0.16c0.01,0,0.03,0,0.05-0.02C456.89,599.23,462.19,635.58,436.42,653.34z"/>
			</g>
			<g class="st1">
				<path class="st2" d="M436.42,653.34c0,0-5.98-3.61-12.49-17.16c-4.21-8.8-10.13-12.16-13.78-13.45
					c-1.9-0.66-3.99-0.55-5.81,0.29c-30.52,14.22-55.25,76.64-55.25,76.64s12.2-72.84,42.65-88.2
					C422.18,596.09,430.66,632.41,436.42,653.34z"/>
			</g>
			<g class="st1">
				<path class="st2" d="M240.22,669.43c0,0,34.09-61.46,111.38-73.31c0,0,16.38-1.71,18.03,15.52l-4.06,1.15
					C365.58,612.78,305.22,612.65,240.22,669.43z"/>
			</g>
			<g class="st1">
				<path class="st2" d="M240.36,572.84c0,0,62.63-27,99.46,8.34l-18.9,5.22C320.92,586.4,289.2,566.7,240.36,572.84z"/>
			</g>
			<g class="st6">
				<path class="st7" d="M456.85,599.25c-47.86,24.3-94.87-30.86-106.95-46.57c-0.85-1.11-2.63-0.41-2.49,0.98l0.35,3.67
					c0.01,0.05,0.01,0.11,0.01,0.16c0.32,3.78-3.32,6.67-6.98,5.67c-53.98-14.78-99.24,9.04-100.41,9.66
					c45.25-33.93,99.3-18.55,99.3-18.55c-3.39-14.96,6.44-22.57,6.44-22.57c17.91,37.64,64.61,63.19,78.91,67.38
					C438.94,603.15,455.88,599.45,456.85,599.25z"/>
			</g>
			<g>
				<path class="st2" d="M319.11,582.1c1.64-0.63,3.15-1.01,4.76-1.37c1.59-0.34,3.2-0.6,4.82-0.77c3.23-0.36,6.56-0.44,9.88,0.37
					c0.56,0.14,0.91,0.71,0.77,1.27c-0.07,0.27-0.23,0.49-0.45,0.63l-0.03,0.02c-1.4,0.91-2.76,1.67-4.13,2.42
					c-1.36,0.75-2.72,1.41-4.07,2.11l-4.02,2.04c-1.32,0.65-2.71,1.34-3.93,1.89l-0.05,0.02c-2.35,1.05-5.11-0.01-6.16-2.36
					s0.01-5.11,2.36-6.16C318.95,582.16,319.04,582.13,319.11,582.1z"/>
			</g>
			<g>
				<path class="st2" d="M457.13,600.24c-5.51,2.45-11.38,3.64-17.39,3.96c-3.01,0.14-6.04,0.05-9.1-0.35
					c-3.03-0.4-6.16-0.99-9.1-2.04c-5.82-1.98-11.11-4.52-16.34-7.28c-5.23-2.73-10.24-5.83-15.19-9.02
					c-9.78-6.56-19.05-13.98-27.33-22.53c-2.14-2.07-4.05-4.37-6-6.63l-1.46-1.7l-1.36-1.79l-2.7-3.6
					c-0.94-1.17-1.72-2.46-2.54-3.73l-2.44-3.81c-0.43-0.62-0.77-1.3-1.12-1.97l-1.05-2.02l-2.09-4.04l7.06,1.68l0,0
					c0.05-0.04-0.03,0.03-0.08,0.07l-0.18,0.16c-0.13,0.12-0.25,0.24-0.39,0.38c-0.27,0.26-0.52,0.57-0.78,0.87
					c-0.49,0.62-0.97,1.27-1.38,1.97c-0.82,1.39-1.5,2.87-1.9,4.45c-0.37,1.58-0.68,3.2-0.62,4.88c-0.06,0.83,0.1,1.69,0.14,2.53
					c0.1,0.85,0.3,1.7,0.43,2.56l0.04,0.26c0.39,2.56-1.37,4.96-3.93,5.36c-0.66,0.1-1.33,0.05-1.93-0.11
					c-0.82-0.22-1.9-0.48-2.88-0.69c-1.01-0.22-2.02-0.42-3.05-0.61c-2.05-0.37-4.11-0.7-6.19-0.96c-4.15-0.53-8.35-0.87-12.54-0.99
					c-8.39-0.25-16.8,0.32-25.04,1.71c-4.11,0.73-8.19,1.65-12.2,2.8c-3.99,1.2-7.94,2.53-11.76,4.17
					c-7.67,3.22-14.9,7.43-21.58,12.37l-3.48-8.34c3.73-0.51,7.19-0.8,10.78-1.03c3.56-0.22,7.12-0.33,10.69-0.35
					c7.13-0.03,14.28,0.37,21.41,1.27c7.13,0.92,14.24,2.39,21.2,4.66c3.47,1.17,6.9,2.51,10.24,4.12c3.33,1.64,6.56,3.53,9.65,5.69
					c2.1,1.47,2.6,4.36,1.13,6.46c-0.53,0.76-1.25,1.3-2.04,1.63l-0.1,0.04c-2,0.82-4.26,1.88-6.38,2.94
					c-2.14,1.07-4.27,2.2-6.36,3.38c-4.19,2.36-8.29,4.91-12.27,7.64c-7.95,5.46-15.42,11.61-22.23,18.39
					c-6.79,6.8-12.92,14.23-18.11,22.27c-5.24,8.01-9.42,16.65-12.66,25.62l-7.56-4.97c2.33-2.11,4.56-3.97,6.89-5.86
					c2.31-1.88,4.65-3.7,7.03-5.48c4.74-3.57,9.6-6.98,14.56-10.23c9.93-6.48,20.24-12.41,30.99-17.5
					c5.36-2.56,10.83-4.93,16.41-7.04c2.77-1.1,5.6-2.04,8.42-3.04c2.85-0.89,5.68-1.85,8.57-2.62c11.49-3.3,23.39-5.36,35.41-6.11
					c2.56-0.16,4.77,1.79,4.93,4.35c0.06,1.03-0.21,2-0.73,2.8l-0.05,0.07c-0.87,1.36-1.83,3.01-2.7,4.57
					c-0.88,1.59-1.73,3.21-2.54,4.84c-1.63,3.27-3.13,6.62-4.49,10.01c-2.71,6.79-4.95,13.78-6.45,20.9
					c-0.76,3.55-1.38,7.14-1.76,10.73c-0.41,3.59-0.64,7.2-0.61,10.8c-0.04,7.2,0.9,14.35,2.68,21.26l0,0l-8.84-0.52
					c4.4-11.49,9.67-22.32,15.67-32.95c6.03-10.58,12.88-20.8,21.27-30.05c4.26-4.57,8.97-8.86,14.39-12.44l2.1-1.27l1.06-0.63
					l1.11-0.56c0.77-0.38,1.43-0.72,2.28-1.12c1.08-0.47,2.22-0.78,3.39-0.91c1.16-0.13,2.34-0.1,3.49,0.11
					c0.57,0.1,1.14,0.25,1.69,0.43c0.3,0.1,0.52,0.19,0.72,0.27l0.64,0.26c1.67,0.72,3.24,1.61,4.68,2.65
					c2.89,2.07,5.27,4.67,7.16,7.47c0.94,1.41,1.78,2.86,2.49,4.35l0.98,2.07c0.3,0.64,0.6,1.3,0.93,1.92l3.87,7.56
					c1.29,2.52,2.58,5.09,4.07,7.68l0.06,0.11c0.18,0.32,0.07,0.73-0.25,0.92c-0.15,0.09-0.32,0.11-0.48,0.07
					c-1.76-0.39-3.15-1.21-4.55-2.09c-1.36-0.91-2.6-1.96-3.72-3.11c-2.27-2.27-4.07-4.9-5.6-7.63c-0.4-0.68-0.75-1.37-1.12-2.06
					l-1.04-1.93c-0.63-1.18-1.35-2.27-2.12-3.31c-1.55-2.07-3.37-3.84-5.41-5.15c-1.02-0.65-2.09-1.19-3.18-1.6l-0.41-0.14
					c-0.15-0.05-0.27-0.09-0.33-0.1c-0.16-0.04-0.32-0.07-0.48-0.09c-0.32-0.04-0.65-0.02-0.97,0.04c-0.32,0.06-0.62,0.16-0.91,0.3
					l-1.7,0.92l-0.87,0.47l-0.85,0.55l-1.7,1.1c-4.45,3.15-8.52,7.08-12.27,11.36c-3.76,4.28-7.23,8.91-10.47,13.72
					c-3.24,4.81-6.34,9.76-9.21,14.86c-2.88,5.09-5.68,10.25-8.28,15.52c-1.33,2.62-2.61,5.26-3.86,7.92
					c-1.25,2.64-2.51,5.35-3.63,7.95l-0.1,0.23c-1.01,2.34-3.72,3.43-6.07,2.42c-1.38-0.59-2.33-1.81-2.67-3.17l0-0.01
					c-2-7.74-3.04-15.72-2.99-23.65c-0.02-3.97,0.23-7.92,0.67-11.84c0.42-3.93,1.09-7.81,1.91-11.65
					c1.63-7.69,4.02-15.17,6.92-22.42c1.46-3.62,3.06-7.19,4.8-10.69c0.87-1.75,1.78-3.49,2.73-5.2c0.97-1.74,1.9-3.37,3.07-5.19
					l4.15,7.22c-11.26,0.71-22.47,2.64-33.39,5.78c-2.75,0.72-5.44,1.65-8.16,2.49c-2.68,0.95-5.39,1.84-8.04,2.9
					c-5.33,2.02-10.57,4.29-15.73,6.75c-10.33,4.89-20.29,10.61-29.88,16.88c-4.79,3.14-9.49,6.44-14.06,9.88
					c-2.29,1.72-4.55,3.48-6.76,5.27c-2.2,1.78-4.44,3.66-6.43,5.46l-0.06,0.05c-1.9,1.72-4.85,1.58-6.57-0.32
					c-1.19-1.32-1.49-3.14-0.93-4.7c3.49-9.68,8.01-19,13.63-27.59c5.57-8.63,12.13-16.57,19.35-23.8
					c7.24-7.21,15.15-13.71,23.54-19.48c4.2-2.88,8.53-5.57,12.97-8.08c2.22-1.26,4.48-2.45,6.77-3.6c1.15-0.57,2.3-1.13,3.47-1.68
					c1.19-0.55,2.31-1.05,3.66-1.6l-1.01,8.13c-2.61-1.83-5.39-3.45-8.29-4.89c-2.93-1.4-5.97-2.6-9.09-3.65
					c-6.26-2.05-12.82-3.41-19.47-4.27c-6.66-0.85-13.42-1.23-20.18-1.2c-3.38,0.01-6.77,0.12-10.15,0.33
					c-3.35,0.21-6.81,0.51-9.98,0.94l-0.08,0.01c-2.55,0.35-4.89-1.43-5.24-3.98c-0.24-1.74,0.52-3.39,1.84-4.37
					c7.29-5.4,15.19-9.99,23.55-13.5c4.17-1.79,8.47-3.23,12.8-4.54c4.35-1.24,8.76-2.24,13.2-3.03c8.9-1.51,17.92-2.11,26.9-1.84
					c4.49,0.14,8.98,0.49,13.44,1.07c2.23,0.28,4.46,0.63,6.69,1.03c1.11,0.2,2.23,0.42,3.35,0.67c1.14,0.25,2.18,0.49,3.46,0.83
					l-5.82,5.51c-0.2-1.17-0.45-2.33-0.59-3.52c-0.08-1.21-0.26-2.39-0.2-3.62c-0.06-2.43,0.34-4.91,0.94-7.31
					c0.62-2.41,1.65-4.71,2.93-6.85c0.64-1.07,1.37-2.09,2.16-3.07c0.42-0.48,0.82-0.96,1.28-1.43c0.22-0.23,0.46-0.47,0.71-0.7
					l0.39-0.36c0.15-0.13,0.25-0.23,0.51-0.43l0.01-0.01c1.98-1.58,4.86-1.27,6.45,0.71c0.15,0.19,0.29,0.39,0.4,0.6l0.21,0.37
					c1.34,2.38,2.57,4.8,3.98,7.15l2.24,3.45c0.75,1.15,1.46,2.32,2.33,3.4c3.26,4.44,6.82,8.69,10.67,12.71
					c7.67,8.06,16.28,15.33,25.44,21.86c4.62,3.2,9.3,6.35,14.19,9.12c4.85,2.78,9.85,5.5,14.86,7.45
					c4.86,1.95,10.25,2.62,15.75,2.93c5.5,0.36,11.15,0.35,16.91,0.47l0.06,0c0.58,0.01,1.04,0.49,1.03,1.07
					C457.74,599.72,457.48,600.08,457.13,600.24z"/>
			</g>
			<g>
				<path class="st12" d="M572.18,296.88c-1.53,2.25-3.69,4.31-6.57,6.1c-22.61,14.11-42.79-9.96-42.79-9.96
					c-36.13-38.76-18.34-73.53-17.77-74.62v-0.01c0.01-0.01,0.01-0.01,0.01-0.01s-0.29,30.05,29.56,34.74
					c15.9,2.5,29.09,11.14,35.74,20.95C575.57,281.73,576.78,290.14,572.18,296.88z"/>
			</g>
			<g class="st1">
				<path class="st2" d="M558.1,303.64c-3.13,1.95-6.22,3.12-9.2,3.7c-14.97-1.06-26.09-14.32-26.09-14.32
					c-24.79-26.6-24.2-51.31-21.19-64.56c1.36-6.06,3.24-9.73,3.43-10.07c-0.09,0.55-1.75,9.69,0.15,21.66
					c1.91,12.14,7.48,27.19,22,39.13c17.71,14.57,32.53,13.34,39.26,5.86C568.09,292.03,565.78,298.85,558.1,303.64z"/>
			</g>
			<g class="st6">
				<path class="st7" d="M569.48,298.48c-1.48-25.92-19.52-30.98-44.99-39.83c-28.56-9.93-19.74-39.27-19.44-40.24
					c0.01-0.01,0.01-0.02,0.01-0.02s-0.29,30.05,29.56,34.74c15.9,2.5,29.09,11.14,35.74,20.95
					C575.57,281.73,574.08,291.73,569.48,298.48z"/>
			</g>
			<g>
				<path class="st2" d="M550.89,312.04c-13.89,0-25.89-9.2-31.56-15.93c-38.44-41.32-19.2-78.38-18.36-79.94
					c1.02-1.89,3.19-2.84,5.26-2.31c2.08,0.53,3.52,2.42,3.5,4.56c0,1.05,0.21,26.09,25.62,30.09
					c21.72,3.42,40.57,18.17,43.86,34.32c1.97,9.68-2.09,18.46-11.13,24.1C562.23,310.59,556.41,312.04,550.89,312.04z
					 M526.38,290.02c0.77,0.91,17.93,20.75,36.76,9.01c5.8-3.62,8.13-8.44,6.93-14.34c-2.2-10.81-16.33-23.85-36.17-26.97
					c-15.49-2.44-24.31-11.31-28.97-20.63c-1.05,12.91,2.03,32.08,21.29,52.75C526.27,289.9,526.33,289.96,526.38,290.02z"/>
			</g>
			<g>
				<path class="st12" d="M461.09,323.11c-1.72,2.54-4.17,4.87-7.43,6.9c-25.56,15.95-48.36-11.26-48.36-11.26
					c-40.83-43.81-20.73-83.1-20.08-84.34v-0.01c0.01-0.01,0.01-0.01,0.01-0.01s-0.33,33.96,33.41,39.26
					c17.97,2.83,32.88,12.59,40.4,23.67C464.92,305.99,466.29,315.49,461.09,323.11z"/>
			</g>
			<g class="st1">
				<path class="st2" d="M445.18,330.75c-3.54,2.2-7.03,3.53-10.4,4.19c-16.92-1.2-29.48-16.18-29.48-16.18
					c-28.02-30.06-27.35-57.99-23.95-72.96c1.54-6.85,3.66-10.99,3.87-11.38c-0.11,0.62-1.98,10.96,0.17,24.48
					c2.16,13.72,8.45,30.73,24.86,44.23c20.01,16.47,36.76,15.08,44.37,6.62C456.47,317.63,453.86,325.33,445.18,330.75z"/>
			</g>
			<g class="st6">
				<path class="st7" d="M458.04,324.91c-1.67-29.3-22.06-35.01-50.85-45.02c-32.28-11.23-22.31-44.39-21.98-45.48
					c0.01-0.01,0.01-0.03,0.01-0.03s-0.33,33.96,33.41,39.26c17.97,2.83,32.88,12.59,40.4,23.67
					C464.92,305.99,463.24,317.29,458.04,324.91z"/>
			</g>
			<g>
				<path class="st2" d="M437.02,339.63c-15.49,0-28.88-10.29-35.22-17.8c-43.17-46.39-21.61-87.91-20.67-89.66
					c1.02-1.89,3.19-2.84,5.26-2.31c2.08,0.53,3.52,2.42,3.5,4.56c0,1.21,0.22,30.01,29.47,34.61c24.31,3.83,45.4,20.3,49.07,38.31
					c2.17,10.68-2.31,20.37-12.3,26.61C449.63,338.02,443.16,339.63,437.02,339.63z M408.86,315.75
					c0.86,1.01,20.58,23.87,42.33,10.31c6.79-4.23,9.52-9.9,8.1-16.84c-2.53-12.42-18.7-27.39-41.38-30.96
					c-18.36-2.89-28.31-13.88-33.22-24.97c-1.73,14.7,0.96,37.55,24.01,62.28C408.76,315.63,408.81,315.69,408.86,315.75z"/>
			</g>
			<g>
				<g>
					<g>
						<g>
							<path class="st2" d="M500.18,355.23c12.99-0.71,23.25,14.92,22.9,34.91c-0.35,19.98-11.16,36.76-24.16,37.46
								c-12.99,0.71-23.25-14.92-22.9-34.91C476.37,372.71,487.19,355.94,500.18,355.23z"/>
						</g>
					</g>
				</g>
				<g>
					<g>
						<g>
							<path class="st7" d="M500.19,363.61c3.9,2.04,4.93,8.91,2.31,15.33c-2.62,6.43-7.9,9.98-11.8,7.94
								c-3.9-2.04-4.93-8.91-2.31-15.33C491.01,365.13,496.29,361.57,500.19,363.61z"/>
						</g>
					</g>
				</g>
				<g>
					<g>
						<g>
							<path class="st13" d="M509.38,407.11c1.77,1.63,1.61,5.38-0.37,8.36c-1.98,2.99-5.02,4.08-6.79,2.45
								c-1.77-1.63-1.61-5.38,0.37-8.36C504.57,406.58,507.61,405.48,509.38,407.11z"/>
						</g>
					</g>
				</g>
			</g>
			<g>
				<g>
					<g>
						<g>
							<path class="st2" d="M593,342.13c10.75-3.59,22.97,7.18,27.28,24.05c4.31,16.87-0.91,33.45-11.67,37.03
								c-10.75,3.59-22.97-7.18-27.28-24.05C577.02,362.29,582.25,345.71,593,342.13z"/>
						</g>
					</g>
				</g>
				<g>
					<g>
						<g>
							<path class="st7" d="M594.94,349.16c3.74,0.82,6.2,6.34,5.48,12.35c-0.72,6-4.34,10.2-8.08,9.39
								c-3.74-0.82-6.2-6.34-5.48-12.35C587.57,352.55,591.19,348.35,594.94,349.16z"/>
						</g>
					</g>
				</g>
				<g>
					<g>
						<g>
							<path class="st13" d="M612.68,383.59c1.87,0.96,2.59,4.15,1.62,7.11c-0.97,2.96-3.27,4.59-5.14,3.62
								c-1.87-0.96-2.59-4.15-1.62-7.11C608.51,384.25,610.81,382.62,612.68,383.59z"/>
						</g>
					</g>
				</g>
			</g>
		</g>
		<g>
			<g>
				<path class="st7" d="M692.36,303.56c-4.89-8-7.3-17.61-6.27-27.66c2.5-24.39,24.31-42.14,48.71-39.64s42.14,24.31,39.64,48.71
					s-24.31,42.14-48.71,39.64c-6.79-0.7-13.05-2.89-18.52-6.21L686.66,323L692.36,303.56z"/>
			</g>
			<g class="st14">
				<g>
					<path class="st7" d="M733.93,244.76c-22.79-2.34-43.31,12.99-47.96,34.91c-0.01-1.57,0.06-3.14,0.23-4.74
						c2.5-24.39,24.31-42.14,48.71-39.64c24.39,2.5,42.14,24.31,39.64,48.71c-0.16,1.6-0.42,3.17-0.74,4.71
						C773.71,266.3,756.72,247.1,733.93,244.76z"/>
				</g>
			</g>
			<g>
				<path class="st2" d="M730.36,329.31c-1.69,0-3.38-0.09-5.08-0.26c-6.68-0.69-12.99-2.67-18.79-5.91l-18.84,4.22
					c-1.54,0.35-3.15-0.15-4.24-1.3c-1.08-1.15-1.47-2.79-1.03-4.31l5.16-17.59c-4.89-8.77-6.92-18.65-5.89-28.7
					c2.75-26.8,26.79-46.38,53.6-43.62c12.98,1.33,24.67,7.64,32.91,17.77c8.24,10.12,12.04,22.85,10.71,35.84
					c-1.33,12.98-7.64,24.67-17.77,32.91C752.31,325.5,741.55,329.31,730.36,329.31z M707.21,313.93c0.81,0,1.62,0.22,2.32,0.65
					c5.09,3.1,10.69,4.97,16.65,5.59c10.61,1.08,21.01-2.02,29.29-8.75c8.27-6.73,13.43-16.29,14.52-26.9
					c1.09-10.61-2.02-21.01-8.75-29.29c-6.73-8.27-16.29-13.43-26.9-14.52c-21.91-2.25-41.56,13.74-43.81,35.65
					c-0.9,8.77,1.05,17.37,5.64,24.88c0.66,1.07,0.83,2.38,0.47,3.59l-3.57,12.17l13.15-2.95
					C706.56,313.96,706.88,313.93,707.21,313.93z"/>
			</g>
			<g class="st1">
				<path class="st2" d="M692.12,303.13c12.16,10.29,28.92,14.79,45.56,10.65c18.45-4.59,32.05-18.64,36.94-35.7
					c0.12,2.26,0.06,4.56-0.17,6.88c-2.5,24.39-24.31,42.14-48.71,39.64c-6.79-0.7-13.05-2.89-18.52-6.21L686.66,323l5.7-19.44
					C692.28,303.42,692.2,303.28,692.12,303.13z"/>
			</g>
			<g>
				<path class="st15" d="M716.07,267.97L716.07,267.97c3.84-3.84,10.07-3.15,13.92,0.69l0.6,0.6l0.6-0.6
					c3.84-3.84,10.07-4.53,13.92-0.69v0c3.84,3.84,3.84,10.07,0,13.92l-0.6,0.6l-12.08,12.08c-1.01,1.01-2.66,1.01-3.67,0
					l-12.08-12.08l-0.6-0.6C712.22,278.04,712.22,271.81,716.07,267.97z"/>
			</g>
		</g>
	</g>
</g>
</svg>
