<?xml version="1.0" encoding="utf-8"?>
<!-- Generator: Adobe Illustrator 25.0.0, SVG Export Plug-In . SVG Version: 6.00 Build 0)  -->
<svg version="1.1" id="Layer_1" xmlns="http://www.w3.org/2000/svg" xmlns:xlink="http://www.w3.org/1999/xlink" x="0px" y="0px"
	 viewBox="0 0 1000 1000" style="enable-background:new 0 0 1000 1000;" xml:space="preserve">
<style type="text/css">
	.st0{fill:#6CFFDC;}
	.st1{fill:#FFFFFF;}
	.st2{fill:#D3DDED;}
	.st3{fill:none;stroke:#000072;stroke-width:31.0826;stroke-linecap:round;stroke-miterlimit:10;}
	.st4{fill:#777782;}
	.st5{fill:#DFE8F4;}
	.st6{fill:#000072;}
	.st7{fill:#F9ACBC;}
	.st8{fill:#A1ACC6;}
	.st9{fill:#A84E20;}
	.st10{fill:#626272;}
	.st11{fill:#E23B3B;}
	.st12{fill:#FFD2DD;}
	.st13{fill:#F7B5C8;}
	.st14{fill:#F46E94;}
	.st15{fill:none;stroke:#000072;stroke-width:31.0826;stroke-linecap:round;stroke-linejoin:round;stroke-miterlimit:10;}
	.st16{fill:#512717;}
	.st17{fill:#FFABAB;}
	.st18{opacity:0.2;}
	.st19{fill:#FF7C1A;}
	.st20{fill:#FF5D1D;}
	.st21{opacity:0.3;fill:#FFFFFF;}
	.st22{fill:none;stroke:#000072;stroke-width:23.3119;stroke-miterlimit:10;}
	.st23{fill:#5AE83D;}
	.st24{fill:#6DE242;}
	.st25{fill:#C2FFAB;}
	.st26{opacity:0.5;fill:#FFFFFF;}
	.st27{fill:#57C134;}
	.st28{fill:#9BEF78;}
	.st29{fill:none;stroke:#000072;stroke-width:23.3119;stroke-linejoin:round;stroke-miterlimit:10;}
	.st30{fill:#389113;}
</style>
<g>
	<rect class="st0" width="1000" height="1000"/>
	<g>
		<g>
			<g>
				<path class="st1" d="M344.55,756.48c-11.88,28.22,5.94,56.06,36.57,65.56c19.2,5.96,39.38-6.32,44.58-25.74
					c5.2-19.42-15.21-20.66-23.21-39.11C388.84,725.72,354.72,732.34,344.55,756.48z"/>
				<path class="st1" d="M425.7,796.3c-5.2,19.42-25.38,31.7-44.58,25.74c-24.24-7.53-40.47-26.54-40.28-48.14
					c0.05-5.68,1.23-11.55,3.71-17.42c10.16-24.14,44.29-30.76,57.94,0.71c0.09,0.19,0.17,0.38,0.25,0.57
					C410.93,775.66,430.85,777.08,425.7,796.3z"/>
				<path class="st2" d="M425.7,796.3c-5.2,19.42-25.38,31.7-44.58,25.74c-24.24-7.53-40.47-26.54-40.28-48.14
					c3.32,8.66,9.64,18.93,20.74,17.36c12.99-1.84,8.04-26.31,40.37-33.35c0.26-0.06,0.51-0.11,0.78-0.15
					C410.93,775.66,430.85,777.08,425.7,796.3z"/>
			</g>
			<g>
				<path class="st3" d="M344.55,756.48c-11.88,28.22,5.94,56.06,36.57,65.56c19.2,5.96,39.38-6.32,44.58-25.74
					c5.2-19.42-15.21-20.66-23.21-39.11C388.84,725.72,354.72,732.34,344.55,756.48z"/>
			</g>
		</g>
		<g>
			<path class="st4" d="M537.48,852.68l87.37,22.96c0,0,24.27,2.78,41.06,2.78c34.1,0,44.23-52.99,44.23-52.99l-35.84-35.03
				l-90.81-28.17"/>
			<path class="st1" d="M537.48,852.68l87.36,22.96c0,0,24.27,2.78,41.05,2.78c34.1,0,44.24-52.99,44.24-52.99l-27.34-26.72
				l-8.5-8.31l-67.54-20.95l-21.24-6.59l-2.03-0.63l-7.09,13.95L537.48,852.68z"/>
			<path class="st5" d="M537.48,852.68l87.36,22.96c0,0,24.27,2.78,41.05,2.78c34.1,0,44.24-52.99,44.24-52.99l-27.34-26.72
				l-32.87-10.8c-13.87,7.98-6.79,43.82-28.61,38.04c-16.83-4.46-13.63-33.98-14.56-56.5l-21.24-6.59
				c-2.87,3.93-5.94,8.45-9.12,13.32L537.48,852.68z"/>
			<path class="st3" d="M537.48,852.68l87.37,22.96c0,0,24.27,2.78,41.06,2.78c34.1,0,44.23-52.99,44.23-52.99l-35.84-35.03
				l-90.81-28.17"/>
			<path class="st1" d="M614.1,872.82c8.64,2.33,40.55,11.36,60.88,4.55c25.6-8.58,38.48-38.75,41.72-45.8
				c18.31-39.9,2.89-68.66-15.43-75.49c-31.77-11.83-56.68,15.42-64.72,70.32L614.1,872.82z"/>
			<path class="st1" d="M716.7,831.57c-0.84,1.83-2.34,5.25-4.56,9.45c-6.27,11.88-18.24,30.01-37.16,36.34
				c-20.34,6.82-52.24-2.21-60.88-4.54l22.44-46.42c1.14-7.78,2.62-15.01,4.41-21.64c10.83-40.19,33.04-58.82,60.31-48.67
				C719.59,762.91,735.02,791.66,716.7,831.57z"/>
			<path class="st5" d="M713.07,835.3c-0.66,1.51-0.94,3.45-0.93,5.71c-6.27,11.88-18.24,30.01-37.16,36.34
				c-20.34,6.82-52.24-2.21-60.88-4.54l22.44-46.42c1.14-7.78,2.62-15.01,4.41-21.64c-4.27,28.19,4.14,59.64,28.55,61.01
				C694.15,867.16,711.74,837.92,713.07,835.3z"/>
			<g>
				<g>
					<path class="st6" d="M615.11,869.06c12.62,3.47,25.66,6.35,38.71,6.85c9.44,0.37,18.92-0.68,27.18-5.46
						c15.47-8.82,25.21-24.86,32.31-40.83c2-4.4,3.72-8.97,5.02-13.61c4.3-14.9,3.89-32.02-5.3-44.95
						c-3.35-4.72-7.95-8.81-13.31-10.95c-18.09-6.91-32.38,0.87-42.7,16.1c-8.3,12.22-13.3,26.37-17.62,40.48
						c-0.98,3.21-1.89,6.45-2.85,9.71c0.2-13.66,2.5-27.28,7.31-40.16c6.09-16.48,18.48-33.33,36.88-36.53
						c7.38-1.33,15.05-0.24,21.98,2.31c14.45,5.14,23.13,19.85,25.35,34.41c2.52,15.86-1.13,32.03-7.69,46.43
						c-6.33,14.28-14.54,28.1-26.73,38.29c-8.11,6.92-18.79,11.61-29.56,12.31c-15.62,1.23-31.09-1.75-46.1-5.57
						c-1.64-0.43-3.29-0.87-4.9-1.31L615.11,869.06L615.11,869.06z"/>
				</g>
			</g>
			
				<ellipse transform="matrix(0.2099 -0.9777 0.9777 0.2099 -240.9381 1276.4465)" class="st7" cx="669.3" cy="787.3" rx="10.09" ry="7.89"/>
			
				<ellipse transform="matrix(0.2099 -0.9777 0.9777 0.2099 -224.6506 1324.8887)" class="st7" cx="707.42" cy="801.44" rx="10.09" ry="7.89"/>
			
				<ellipse transform="matrix(0.2099 -0.9777 0.9777 0.2099 -219.0532 1296.0258)" class="st7" cx="692.35" cy="783.55" rx="12.92" ry="10.1"/>
			<path class="st7" d="M693.73,841.75c-7.37,15.92-18.58,25.23-28.39,22.75c-9.82-2.48-12.73-18.09-9.06-35.25
				c4.81-22.44,18.05-26.18,28.39-22.74c0.01,0,0.01,0,0.02,0.01C695.02,809.97,703.36,820.92,693.73,841.75z"/>
		</g>
		<g>
			<path class="st4" d="M468.07,852.68l-87.37,22.96c0,0-24.27,2.78-41.06,2.78c-34.1,0-44.23-52.99-44.23-52.99l35.84-35.03
				l90.81-28.17"/>
			<path class="st1" d="M468.07,852.68l-87.36,22.96c0,0-24.27,2.78-41.05,2.78c-34.1,0-44.24-52.99-44.24-52.99l27.34-26.72
				l8.5-8.31l67.54-20.95l21.25-6.59l2.03-0.63l7.09,13.95L468.07,852.68z"/>
			<path class="st5" d="M468.07,852.68l-87.36,22.96c0,0-24.27,2.78-41.05,2.78c-34.1,0-44.24-52.99-44.24-52.99l27.34-26.72
				l32.87-10.8c13.87,7.98,6.79,43.82,28.61,38.04c16.83-4.46,13.63-33.98,14.56-56.5l21.25-6.59c2.87,3.93,5.94,8.45,9.12,13.32
				L468.07,852.68z"/>
			<path class="st3" d="M468.07,852.68l-87.37,22.96c0,0-24.27,2.78-41.06,2.78c-34.1,0-44.23-52.99-44.23-52.99l35.84-35.03
				l90.81-28.17"/>
			<path class="st1" d="M391.44,872.82c-8.64,2.33-40.55,11.36-60.88,4.55c-25.6-8.58-38.48-38.75-41.72-45.8
				c-18.31-39.9-2.89-68.66,15.43-75.49c31.77-11.83,56.68,15.42,64.72,70.32L391.44,872.82z"/>
			<path class="st1" d="M288.84,831.57c0.84,1.83,2.34,5.25,4.56,9.45c6.27,11.88,18.24,30.01,37.16,36.34
				c20.34,6.82,52.24-2.21,60.88-4.54L369,826.4c-1.14-7.78-2.62-15.01-4.41-21.64c-10.83-40.19-33.04-58.82-60.31-48.67
				C285.95,762.91,270.52,791.66,288.84,831.57z"/>
			<path class="st5" d="M292.47,835.3c0.66,1.51,0.94,3.45,0.93,5.71c6.27,11.88,18.24,30.01,37.16,36.34
				c20.34,6.82,52.24-2.21,60.88-4.54L369,826.4c-1.14-7.78-2.62-15.01-4.41-21.64c4.27,28.19-4.14,59.64-28.55,61.01
				C311.4,867.16,293.81,837.92,292.47,835.3z"/>
			<g>
				<g>
					<path class="st6" d="M392.45,876.57c-18.82,5.08-42.45,10.29-61.64,4.94c-23.51-7.27-37.53-29.68-46.7-51.05
						c-8.73-20.1-11.4-45.28,1.22-64.4c2.99-4.45,6.95-8.46,11.58-11.29c8.12-4.78,18.55-6.77,27.9-5.16
						c12.96,2.2,23.32,11.6,30.1,22.41c10.03,16.17,14.11,35.54,14.08,54.37c-5.87-18.63-11.46-38.28-23.38-53.94
						c-7.91-10.17-18.98-16.63-32.12-14.36c-3.98,0.71-7.97,1.86-11.46,3.96c-11.85,7.22-17.5,21.61-17.52,35.11
						c-0.06,11.14,3.1,22.31,7.71,32.45c8.22,18.47,20.57,38.11,40.77,44.42c16.19,4.46,36.49,0.36,52.6-3.7
						c1.6-0.42,3.2-0.85,4.83-1.29L392.45,876.57L392.45,876.57z"/>
				</g>
			</g>
			
				<ellipse transform="matrix(0.9777 -0.2099 0.2099 0.9777 -157.7532 88.1095)" class="st7" cx="336.25" cy="787.3" rx="7.89" ry="10.09"/>
			
				<ellipse transform="matrix(0.9777 -0.2099 0.2099 0.9777 -161.5711 80.4248)" class="st7" cx="298.13" cy="801.44" rx="7.89" ry="10.09"/>
			
				<ellipse transform="matrix(0.9777 -0.2099 0.2099 0.9777 -157.4778 83.1861)" class="st7" cx="313.19" cy="783.55" rx="10.1" ry="12.92"/>
			<path class="st7" d="M311.81,841.75c7.37,15.92,18.58,25.23,28.39,22.75c9.82-2.48,12.73-18.09,9.06-35.25
				c-4.81-22.44-18.05-26.18-28.39-22.74c-0.01,0-0.01,0-0.02,0.01C310.53,809.97,302.18,820.92,311.81,841.75z"/>
		</g>
		<polygon class="st8" points="502.32,877.94 502.32,877.95 502.29,877.94 		"/>
		<polygon class="st8" points="502.29,877.94 502.27,877.95 502.27,877.94 		"/>
		<path class="st1" d="M619.78,799.18l-35.45,51.21c0,0-7.19,3.11-19.77,6.44c-14.43,3.82-35.96,7.92-61.87,7.92
			c-25.92,0-47.45-4.1-61.88-7.93c-0.73-0.19-1.44-0.39-2.14-0.58h-0.01c-11.24-3.1-17.61-5.86-17.61-5.86l-35.46-51.21
			c-1.85-9.29-1.92-20.06-0.55-31.65c1.91-16.2,6.65-34.01,13.34-51.69c11.99-31.62,30.26-62.82,49.91-83.56h108.77
			c19.65,20.75,37.93,51.95,49.91,83.58C618.48,746.18,624.2,776.91,619.78,799.18z"/>
		<path class="st5" d="M475.85,856.39l-9.25,5.71c-10.07-1.49-18.77-3.41-25.79-5.28c-0.73-0.19-1.44-0.39-2.14-0.58h-0.01
			c-11.24-3.1-17.61-5.86-17.61-5.86l-25.52-36.85c5.94-18.84-0.67-53.01,7.6-65.03C411.44,736.45,475.85,856.39,475.85,856.39z"/>
		<path class="st5" d="M564.56,856.83c-14.43,3.82-35.96,7.92-61.87,7.92c-25.92,0-47.45-4.1-61.88-7.93l22.62-101.74l22.18-3.66
			c0,0,7.42,35.45,17.07,35.45c9.66,0,17.08-35.45,17.08-35.45l22.18,3.66L564.56,856.83z"/>
		<path class="st9" d="M562.19,846.2c-24.32,13.43-59.5,12.66-59.5,12.66s-35.2,0.78-59.52-12.66l15.9-71.5
			c14.96-4.35,28.34-6.45,27.27-12.23c-0.62-3.34-0.86-6.99-0.64-10.61c0.89,4.05,7.97,35.01,16.98,35.01
			c9.04,0,16.12-31.08,17-35.03c0.21,3.62-0.02,7.28-0.64,10.63c-1.07,5.78,12.3,7.88,27.27,12.23L562.19,846.2z"/>
		<path class="st4" d="M606.99,715.86c-22.76,35.9-81.77,44.35-104.3,44.35c-22.52,0-81.54-8.45-104.3-44.36
			c11.99-31.62,30.26-62.82,49.91-83.56h108.77C576.73,653.03,595,684.23,606.99,715.86z"/>
		<path class="st1" d="M606.99,715.86c-22.76,35.9-81.77,44.35-104.3,44.35c-22.52,0-81.54-8.45-104.3-44.36
			c2.88-7.6,6.12-15.16,9.66-22.56c11.18-23.44,25.32-45.24,40.26-61h108.77c14.91,15.74,29.02,37.49,40.2,60.89
			C600.83,700.62,604.09,708.22,606.99,715.86z"/>
		<path class="st5" d="M597.27,693.17c-22.88,13.81-56.82,22.56-94.7,22.56c-37.78,0-71.64-8.7-94.52-22.46
			c11.18-23.44,25.32-45.24,40.26-61h108.77C571.99,648.03,586.1,669.77,597.27,693.17z"/>
		<path class="st10" d="M596.29,693.76c-12.78,7.54-28.91,13.53-47.17,17.32l35.13-41.72C589.58,676.17,593.49,684.49,596.29,693.76
			z"/>
		<path class="st10" d="M456.33,711.14c-18.28-3.78-34.44-9.74-47.27-17.26c2.8-9.31,6.73-17.67,12.08-24.53L456.33,711.14z"/>
		<path class="st11" d="M429.95,696.03c-0.39-0.07-0.79-0.14-1.17-0.22C428.95,695.82,429.38,695.87,429.95,696.03z"/>
		<path class="st5" d="M529.57,856.39l9.25,5.71c10.07-1.49,18.77-3.41,25.79-5.28c0.73-0.19,1.44-0.39,2.14-0.58h0.01
			c11.24-3.1,17.61-5.86,17.61-5.86l25.52-36.85c-5.94-18.84,0.67-53.01-7.6-65.03C593.98,736.45,529.57,856.39,529.57,856.39z"/>
		<g>
			<g>
				<path class="st6" d="M619.78,799.18c1.75-53.13-30.95-124.53-65.88-163.89c0,0,3.17,1.36,3.17,1.36h-54.39
					c0.01,0-0.02-8.78,0.01-8.75c0,0,0,8.75,0,8.75H448.3c0,0,3.17-1.36,3.17-1.36c-14.02,16.1-25.62,34.57-35.42,53.61
					c-14.49,28.32-25.22,58.8-29.38,90.4c-0.84,6.61-1.22,13.15-1.08,19.87c-2.25-5.9-3.36-12.26-3.86-18.56
					c-1.92-26.82,7.29-56.1,17.58-80.65c4.58-10.69,9.85-21.16,15.77-31.18c8.73-14.83,19.05-28.74,31.31-40.89c0,0,1.9,0,1.9,0
					h54.39v8.75c-0.04,0.02,0-8.75-0.01-8.75c0,0,54.39,0,54.39,0h1.9c16.98,17.06,30.1,37.48,40.65,59.01
					C614.45,717.57,631.12,765.79,619.78,799.18L619.78,799.18z"/>
			</g>
		</g>
		<g>
			<path class="st6" d="M421.06,850.39c14.03,1.34,31.87,5.69,45.83,8.11c8.85,1.62,17.85,2.26,26.81,2.68
				c2.31,0.06,6.63,0.12,8.99,0.17c1.7-0.03,6.06-0.11,7.7-0.14c7.7-0.28,15.4-0.79,23.03-1.9c2.36-0.29,5.25-0.85,7.6-1.25
				c2.52-0.43,5.04-1.01,7.55-1.47c4.18-0.87,8.37-1.72,12.56-2.56c4.14-0.87,8.48-1.74,12.66-2.38c3.39-0.53,7.07-1.04,10.53-1.26
				c-1.02,0.92-2.12,1.71-3.25,2.47c-3.34,2.2-6.97,4.02-10.68,5.49c-8.23,3.21-16.89,5.24-25.61,6.51
				c-15.69,2.14-31.53,3.64-47.37,3.18c-8.79-0.12-17.6-0.9-26.32-1.86c-12.25-1.26-24.58-3.32-36.06-7.97
				C430.1,856.19,425.23,853.77,421.06,850.39L421.06,850.39z"/>
		</g>
		<path class="st12" d="M584.85,811.2c-0.39,49.46-82.16,47.65-82.16,47.65s-81.78,1.81-82.17-47.65
			c-0.32-41.2,68.18-35.93,65.82-48.74c-2.53-13.72,1.31-32.68,16.35-32.68c15.03,0,18.88,18.96,16.35,32.68
			C516.67,775.28,585.18,770,584.85,811.2z"/>
		<path class="st13" d="M562.19,846.2c-24.32,13.43-59.5,12.66-59.5,12.66s-35.2,0.78-59.52-12.66l15.9-71.5
			c14.96-4.35,28.34-6.45,27.27-12.23c-0.62-3.34-0.86-6.99-0.64-10.61c0.89,4.05,7.97,35.01,16.98,35.01
			c9.04,0,16.12-31.08,17-35.03c0.21,3.62-0.02,7.28-0.64,10.63c-1.07,5.78,12.3,7.88,27.27,12.23L562.19,846.2z"/>
		<g>
			<g>
				<path class="st1" d="M518.07,872.06c7.34,15.53,27.42,19.1,39.98,17.64c0.12-0.01,0.22-0.02,0.33-0.04
					c0.33-0.04,0.66-0.09,0.97-0.14c0.44-0.07,0.86-0.14,1.27-0.21c0.31-0.06,0.61-0.11,0.89-0.17c0.2-0.04,0.4-0.09,0.59-0.13
					c0.18-0.05,0.35-0.09,0.52-0.13c9.44,1.68,19.79,2.4,28.82-2.7c4.35-0.32,7.8-1.92,10.33-4.34c0.35-0.35,0.7-0.71,1.02-1.09
					c0.48-0.57,0.92-1.17,1.31-1.8c0.13-0.21,0.26-0.43,0.38-0.64c0.49-0.87,0.9-1.79,1.22-2.75c0.89-2.61,1.19-5.51,0.86-8.51
					c-0.03-0.26-0.07-0.52-0.1-0.78c-0.03-0.21-0.07-0.42-0.1-0.64c-0.02-0.11-0.03-0.21-0.06-0.32c-0.04-0.21-0.08-0.4-0.12-0.61
					c0-0.01,0-0.02-0.01-0.03c-0.05-0.23-0.1-0.46-0.16-0.69c-0.07-0.29-0.14-0.58-0.23-0.87c0-0.01,0-0.01,0-0.02
					c-2.08-7.32-7.81-14.64-17.57-19.05c0,0,34.24-125.75-3.97-174.68l-64.09,76.12c-0.21,3.27-0.41,6.47-0.62,9.61
					C515.17,820.25,509.65,857.11,518.07,872.06z"/>
			</g>
			<g>
				<path class="st5" d="M596.29,693.76c-12.78,7.54-28.91,13.53-47.17,17.32l35.13-41.72
					C589.58,676.17,593.49,684.49,596.29,693.76z"/>
			</g>
			<g>
				<path class="st5" d="M518.07,872.06c7.34,15.53,27.42,19.1,39.98,17.64c0.12-0.01,0.22-0.02,0.33-0.04
					c1.18-0.16,2.23-0.34,3.13-0.53c0.21-0.05,0.4-0.09,0.59-0.13c0.18-0.05,0.35-0.09,0.52-0.13c9.44,1.68,19.79,2.4,28.82-2.7
					c4.35-0.32,7.8-1.92,10.33-4.34c0.35-0.35,0.7-0.71,1.02-1.09c0.48-0.57,0.92-1.17,1.31-1.8c0.13-0.21,0.26-0.43,0.38-0.64
					c0.49-0.87,0.89-1.79,1.22-2.75c0.88-2.61,1.18-5.51,0.86-8.51c-0.03-0.26-0.07-0.52-0.1-0.78c-0.03-0.21-0.07-0.42-0.1-0.64
					c-0.02-0.11-0.03-0.21-0.06-0.32c-0.04-0.21-0.08-0.4-0.12-0.61c0-0.01,0-0.02-0.01-0.03c-0.05-0.23-0.1-0.46-0.16-0.69
					c-0.07-0.29-0.14-0.58-0.23-0.87c-0.72,6.36-3.7,10.3-11.26,10.87c-5.69,4.45-17.34,4.96-23.93,2.7
					c-13.31,3.55-33.15,2.44-42.48-5.46c-14.43-10.58,0.05-91.45-8.58-116.12C515.17,820.25,509.65,857.11,518.07,872.06z"/>
			</g>
			<g>
				<g>
					<g>
						<path class="st6" d="M520.15,745.48c1.05,21.25,0.26,42.62-0.73,63.84c-0.58,13.14-1.76,26.27-1.72,39.39
							c0.06,5,0.32,10.21,1.42,15.03c0.57,2.46,1.35,4.71,2.46,6.66c6.02,12.39,21.6,16.33,34.43,15.44
							c2.25-0.18,4.36-0.54,6.42-1.13c2.62,0.45,5.29,0.86,7.88,1.06c6.52,0.56,13.31-0.05,18.98-3.4l0.97-0.51l0.85-0.05
							c8.64-0.39,12.61-7.79,11.24-15.67c-1.46-8.44-7.94-15.2-15.74-18.56c0,0-2.99-1.3-2.99-1.3c0.65-2.65,1.55-5.96,2.19-8.62
							c10.51-44.38,24.35-127.77-4.63-165.92c-1.32-1.69-1.02-4.14,0.67-5.46c1.69-1.32,4.13-1.02,5.45,0.67
							c2.46,3.15,4.58,6.53,6.41,10.02c5.41,10.36,8.41,21.75,10.23,33.22c2.34,15.08,2.62,30.34,1.95,45.52
							c-1.39,28.31-5.94,56.29-12.51,83.8c-0.41,1.65-0.96,3.9-1.41,5.53c0,0-2.16-4.58-2.16-4.58c2.43,1.14,4.77,2.47,6.96,4.03
							c6.76,4.82,11.94,11.82,13.53,20.21c1.43,7.23-0.41,15.5-6.09,20.61c-3.39,3.12-7.93,4.84-12.46,5.2c0,0,1.82-0.55,1.82-0.55
							l0,0c-7.28,4.06-15.91,4.87-24.01,4.02c-2.61-0.26-5.16-0.65-7.66-1.12l1.75-0.07c-2.39,0.61-4.72,0.92-7.03,1.09
							c-13.78,0.82-29-2.89-38.18-13.96c-1.54-1.9-2.86-3.99-3.9-6.21c-0.91-1.47-2.51-5.8-2.98-8.25
							c-0.64-2.83-1.04-5.62-1.32-8.38c-1.39-16.19-0.2-32.37,1.31-48.37C513.79,787.56,516.51,766.45,520.15,745.48L520.15,745.48z
							"/>
					</g>
				</g>
			</g>
			<g>
				<g>
					<path class="st6" d="M538.6,851.37c12.88-9.9,34.75-14.21,50.69-11.08c2.11,0.42,3.48,2.47,3.07,4.59
						c-0.44,2.33-2.94,3.73-5.15,2.91C572.82,842.73,552.07,843.94,538.6,851.37L538.6,851.37z"/>
				</g>
			</g>
			<g>
				<g>
					<path class="st6" d="M588.2,856.4c9.15,8.57,12.31,24.99,2.45,34.37c0,0-4.86-6.07-4.86-6.07c4.24-2.43,6.46-7.38,6.77-12.34
						C592.92,866.83,591.32,861.09,588.2,856.4L588.2,856.4z"/>
				</g>
			</g>
			<g>
				<g>
					<path class="st6" d="M563.8,856.4c10.7,8.51,13.17,27.58,0.72,35.86c0,0-3.81-6.78-3.81-6.78c4.92-1.86,7.71-6.98,8.15-12.27
						C569.41,867.32,567.66,861.07,563.8,856.4L563.8,856.4z"/>
				</g>
			</g>
		</g>
		<g>
			<g>
				<path class="st1" d="M487.32,872.06c-7.34,15.53-27.42,19.1-39.98,17.64c-0.12-0.01-0.22-0.02-0.33-0.04
					c-0.33-0.04-0.66-0.09-0.97-0.14c-0.44-0.07-0.86-0.14-1.27-0.21c-0.31-0.06-0.61-0.11-0.89-0.17c-0.2-0.04-0.4-0.09-0.59-0.13
					c-0.18-0.05-0.35-0.09-0.52-0.13c-9.44,1.68-19.79,2.4-28.82-2.7c-4.35-0.32-7.8-1.92-10.33-4.34c-0.35-0.35-0.7-0.71-1.02-1.09
					c-0.48-0.57-0.92-1.17-1.31-1.8c-0.13-0.21-0.26-0.43-0.38-0.64c-0.49-0.87-0.9-1.79-1.22-2.75c-0.89-2.61-1.19-5.51-0.86-8.51
					c0.03-0.26,0.07-0.52,0.1-0.78c0.03-0.21,0.07-0.42,0.1-0.64c0.02-0.11,0.03-0.21,0.06-0.32c0.04-0.21,0.08-0.4,0.12-0.61
					c0-0.01,0-0.02,0.01-0.03c0.05-0.23,0.1-0.46,0.16-0.69c0.07-0.29,0.14-0.58,0.23-0.87c0-0.01,0-0.01,0-0.02
					c2.08-7.32,7.81-14.64,17.57-19.05c0,0-34.24-125.75,3.97-174.68l64.09,76.12c0.21,3.27,0.41,6.47,0.62,9.61
					C490.22,820.25,495.74,857.11,487.32,872.06z"/>
			</g>
			<g>
				<path class="st5" d="M456.33,711.14c-18.28-3.78-34.44-9.74-47.27-17.26c2.8-9.31,6.73-17.67,12.08-24.53L456.33,711.14z"/>
			</g>
			<g>
				<path class="st5" d="M487.32,872.06c-7.34,15.53-27.42,19.1-39.98,17.64c-0.12-0.01-0.22-0.02-0.33-0.04
					c-1.18-0.16-2.23-0.34-3.13-0.53c-0.21-0.05-0.4-0.09-0.59-0.13c-0.18-0.05-0.35-0.09-0.52-0.13c-9.44,1.68-19.79,2.4-28.82-2.7
					c-4.35-0.32-7.8-1.92-10.33-4.34c-0.35-0.35-0.7-0.71-1.02-1.09c-0.48-0.57-0.92-1.17-1.31-1.8c-0.13-0.21-0.26-0.43-0.38-0.64
					c-0.49-0.87-0.89-1.79-1.22-2.75c-0.88-2.61-1.18-5.51-0.86-8.51c0.03-0.26,0.07-0.52,0.1-0.78c0.03-0.21,0.07-0.42,0.1-0.64
					c0.02-0.11,0.03-0.21,0.06-0.32c0.04-0.21,0.08-0.4,0.12-0.61c0-0.01,0-0.02,0.01-0.03c0.05-0.23,0.1-0.46,0.16-0.69
					c0.07-0.29,0.14-0.58,0.23-0.87c0.72,6.36,3.7,10.3,11.26,10.87c5.69,4.45,17.34,4.96,23.93,2.7
					c13.31,3.55,33.15,2.44,42.48-5.46c14.43-10.58-0.05-91.45,8.58-116.12C490.22,820.25,495.74,857.11,487.32,872.06z"/>
			</g>
			<g>
				<g>
					<g>
						<path class="st6" d="M485.24,745.48c3.64,20.97,6.36,42.08,8.59,63.25c1.52,16,2.71,32.18,1.31,48.37
							c-0.28,2.76-0.68,5.55-1.32,8.38c-0.45,2.44-2.09,6.81-2.98,8.25c-1.04,2.21-2.36,4.31-3.9,6.21
							c-9.18,11.08-24.39,14.77-38.18,13.96c-2.32-0.17-4.64-0.48-7.03-1.09l1.75,0.07c-2.5,0.47-5.05,0.86-7.66,1.12
							c-8.1,0.84-16.73,0.04-24.01-4.02c0,0,0,0,0,0l1.82,0.55c-4.52-0.36-9.07-2.08-12.46-5.2c-5.68-5.11-7.52-13.38-6.09-20.61
							c1.59-8.39,6.76-15.39,13.53-20.21c2.19-1.56,4.53-2.89,6.96-4.03c0,0-2.16,4.58-2.16,4.58c-0.44-1.63-1-3.89-1.41-5.53
							c-6.57-27.52-11.12-55.49-12.51-83.8c-0.98-26.33,0.02-54.79,12.17-78.74c1.83-3.49,3.95-6.87,6.41-10.02
							c1.32-1.69,3.76-1.99,5.45-0.67c1.69,1.32,1.99,3.77,0.67,5.46c-28.97,38.14-15.14,121.51-4.63,165.92
							c0.64,2.65,1.53,5.97,2.19,8.62c0,0-2.99,1.3-2.99,1.3c-7.79,3.36-14.28,10.12-15.74,18.56c-1.37,7.86,2.59,15.29,11.24,15.67
							c0,0,0.85,0.05,0.85,0.05l0.97,0.51c5.67,3.35,12.46,3.96,18.98,3.4c2.59-0.21,5.26-0.61,7.88-1.06
							c2.06,0.59,4.16,0.96,6.42,1.13c12.83,0.89,28.41-3.05,34.43-15.44c1.12-1.95,1.9-4.2,2.46-6.66
							c1.1-4.82,1.36-10.04,1.42-15.03c0.04-13.12-1.14-26.25-1.72-39.39C484.98,788.1,484.18,766.73,485.24,745.48L485.24,745.48z"
							/>
					</g>
				</g>
			</g>
			<g>
				<g>
					<path class="st6" d="M466.79,851.37c-7.45-4.17-15.98-5.85-24.37-6.46c-8.14-0.5-16.63,0.15-24.23,2.88
						c-2.02,0.74-4.26-0.31-5-2.34c-0.83-2.23,0.61-4.75,2.95-5.17c9-1.74,18.03-1.1,26.82,0.78
						C451.46,842.98,459.88,846,466.79,851.37L466.79,851.37z"/>
				</g>
			</g>
			<g>
				<g>
					<path class="st6" d="M417.19,856.4c-3.12,4.7-4.72,10.43-4.35,15.96c0.3,4.96,2.53,9.91,6.77,12.34c0,0-4.87,6.07-4.87,6.07
						C404.88,881.39,408.03,864.96,417.19,856.4L417.19,856.4z"/>
				</g>
			</g>
			<g>
				<g>
					<path class="st6" d="M441.59,856.4c-3.85,4.67-5.61,10.92-5.07,16.81c0.45,5.29,3.24,10.42,8.15,12.27c0,0-3.81,6.78-3.81,6.78
						C428.41,883.98,430.88,864.9,441.59,856.4L441.59,856.4z"/>
				</g>
			</g>
		</g>
		<path class="st1" d="M566.92,425.42c-13.71-113.78,0.53-219.43,46.43-280.56c44.76-59.61,101.08-68.1,122.07-51.9
			c68.75,55.58-111.04,218.8-139.2,337.63"/>
		<path class="st1" d="M647.75,322.07c-23.3,37.43-43.53,74.76-51.53,108.51l-29.3-5.17c-4.61-38.2-6.06-75.49-4.21-110.48
			c3.64-69.23,20.15-129.48,50.65-170.08c44.76-59.62,101.08-68.1,122.07-51.91C784.64,132.76,706.46,227.72,647.75,322.07z"/>
		<path class="st5" d="M647.75,322.07c-23.3,37.43-43.53,74.76-51.53,108.51l-29.3-5.17c-4.61-38.2-6.06-75.49-4.21-110.48
			c12.06,13.03,31.23,23.01,51.12-9.71c25.69-42.28,24.06-5.2,24.06-5.2S637.63,320.29,647.75,322.07z"/>
		<path class="st3" d="M566.92,425.42c-13.71-113.78,0.53-219.43,46.43-280.56c44.76-59.61,101.08-68.1,122.07-51.9
			c68.75,55.58-111.04,218.8-139.2,337.63"/>
		<path class="st7" d="M724.93,107.02C665.5,91.8,629.78,186.41,618.6,283.33c-12.09,96.15-33.43,115.85-30.11,117.1
			c1.22,0.68,3.9,1.29,6.58-2.77c12.01-35.49,31.16-67.14,53.4-101.02c28.76-43.81,54.12-81.99,68.76-106.15
			c0,0,15.39-26.66,18.88-43.51C743.42,111.71,724.93,107.02,724.93,107.02z"/>
		<path class="st7" d="M736.11,146.98c-3.49,16.84-18.88,43.51-18.88,43.51c-14.63,24.16-40,62.34-68.76,106.15
			c-0.59,0.89-1.16,1.78-1.75,2.67c-21.49,32.88-39.96,63.79-51.65,98.35c-2.68,4.07-5.36,3.45-6.58,2.78
			c-3.31-1.25,18.02-20.95,30.11-117.1c10.84-93.87,44.68-185.56,100.78-177.43c0.02-0.01,0.03-0.01,0.03-0.01
			c1.82,0.27,3.66,0.63,5.53,1.11C724.93,107.02,743.42,111.71,736.11,146.98z"/>
		<path class="st14" d="M657.05,168.67c-19.76,48.88-39.97,134.82-10.33,130.64c-21.49,32.88-39.96,63.79-51.65,98.35
			c-2.68,4.07-5.36,3.45-6.58,2.78c-3.31-1.25,18.02-20.95,30.11-117.1c10.84-93.87,44.68-185.56,100.78-177.43
			C718.2,106.04,680.36,110.99,657.05,168.67z"/>
		<g>
			<g>
				<path class="st6" d="M724.93,107.02c-43.28-8.72-66.84,38.98-79.15,72.84c-11.5,32.29-18.13,66.16-22.52,100.12
					c-4.45,34.56-10.53,69.32-23.06,101.98c-2.02,5.16-4.34,10.28-6.79,15.24c-0.52,1.1-1.05,2.08-1.42,3.13
					c-0.01,0.02,0,0.01,0.01-0.04c0.01-0.07,0.04-0.19,0.03-0.48c-0.01-1.26-0.96-2.58-2.18-3.01c0,0,0.54,0.25,0.54,0.25
					c-0.01-0.01,0.01,0,0,0c0,0-0.01-0.01-0.03,0c0.51-0.23,1.05-0.9,1.46-1.52c0,0-0.44,0.89-0.44,0.89
					c13.16-38.44,34.2-73.57,57.24-106.8c22.65-33.21,45.96-65.91,68.61-99.13c-4.79,8.85-9.84,17.55-14.95,26.21
					c-20.43,34.57-42.17,68.41-63.39,102.48c-15.77,25.29-30.7,51.36-40.15,79.73c0,0-0.16,0.48-0.16,0.48l-0.27,0.41
					c-2.06,3.25-5.74,5.88-9.89,4.76c-0.64-0.17-1.25-0.41-1.83-0.74l0.54,0.25c-2.16-0.78-3.24-3.12-2.77-5.24
					c0.38-1.81,1.34-3.48,2.07-5.06c2.39-4.83,4.58-9.67,6.55-14.68c13.01-33.73,18.31-69.87,22.57-105.61
					c5.34-39.98,14.39-80.14,32.51-116.42C662.5,128.29,688.91,95.69,724.93,107.02L724.93,107.02z"/>
			</g>
		</g>
		<path class="st1" d="M438.49,412.66c3.45-63.03-14.31-151.25-41.61-176.5c-18.28-14.85-115.05,45.71-67.83,90.61
			c18.96,10.12,57.16,45.62,76.87,102.75"/>
		<path class="st5" d="M438.49,412.66l-29.07,15.05c-1.41-0.07-2.81-0.13-4.22-0.2c-19.89-55.95-57.42-90.74-76.15-100.74
			c-3.44-3.26-6.1-6.62-8.1-10.01c23.66-25.89,65.66-68.86,70.93-57.79c15.32,32.21,16.15,120.9,44.51,94.31
			C438.71,373.75,439.5,394.27,438.49,412.66z"/>
		<path class="st15" d="M438.49,412.66c3.45-63.03-14.31-151.25-41.61-176.5c-18.28-14.85-115.05,45.71-67.83,90.61
			c18.96,10.12,57.16,45.62,76.87,102.75"/>
		<path class="st14" d="M362.7,252.1c42.87,30.58,35.46,122.68,52.96,164.8l-3.89,1.07c0,0-24.98-71.93-67.82-90.89"/>
		<path class="st7" d="M393.67,338.56c1.39,7.79,1.2,14.91-1.86,16.41c-2.83,1.39-5.98,0.57-11.57-7.98
			c-5.73-8.76-5.14-34.32-2.7-35.14C386.61,308.8,392.38,331.3,393.67,338.56z"/>
		<g>
			<g>
				<path class="st6" d="M363.82,250.51c24.57,17.59,32.2,51.32,37.75,79.37c4.14,21.74,6.51,43.63,11.33,65.1
					c1.61,6.95,3.52,13.92,6.3,20.43c0.92,2.11-0.3,4.62-2.53,5.19c0,0-3.88,1.11-3.88,1.11c0,0-0.09,0.02-0.09,0.02
					c-1.96,0.5-3.96-0.61-4.6-2.5c-10.19-28.75-28.37-64.44-52.94-83.1c-3.75-2.85-7.78-5.31-12.02-7.3
					c-0.97-0.46-1.39-1.61-0.93-2.59c0.45-0.95,1.57-1.37,2.52-0.96c4.59,1.97,8.94,4.44,12.99,7.3
					c26.14,18.58,45.64,53.78,57.37,83.18c0,0,0.34,0.9,0.34,0.9l-4.7-2.47c0,0,3.91-1.03,3.91-1.03l-2.53,5.19
					c-1.44-3.59-2.61-7.23-3.62-10.88c-12.15-43.8-8.43-112.22-39.02-146.72c-2.4-2.62-5.04-5.01-7.9-7.1
					c-0.87-0.63-1.05-1.85-0.42-2.72C361.77,250.1,362.96,249.91,363.82,250.51L363.82,250.51z"/>
			</g>
		</g>
		<g>
			<g>
				<g>
					<path class="st6" d="M339.68,563.53c-7.49-5.91-15.88-10.72-24.93-13.63c-4.48-1.42-9.13-2.33-13.82-2.8
						c-3.09-0.27-6.24-0.41-9.34-0.37c-0.58-0.01-1.15,0-1.74-0.01c2.19-0.8,4.44-1.43,6.75-1.8c6.99-1.21,14.28-0.46,20.98,1.84
						C326.35,549.85,334.67,555.6,339.68,563.53L339.68,563.53z"/>
				</g>
			</g>
			<g>
				<g>
					<path class="st6" d="M336.62,581.9c-13.2-5.34-27.28-8.39-41.54-8.26c-2.75,0-5.56,0.11-8.31,0.27
						c-0.56,0.02-1.12,0.06-1.69,0.07c2.08-0.9,4.23-1.64,6.44-2.18c11.09-2.76,23.07-1.53,33.56,2.93
						C329.24,576.56,333.28,578.8,336.62,581.9L336.62,581.9z"/>
				</g>
			</g>
			<g>
				<g>
					<path class="st6" d="M333.85,598.03c-12.07-1.47-24.08-0.85-35.8,2.28c-1.28,0.31-2.56,0.66-3.84,1.01
						c-0.44,0.11-0.86,0.23-1.31,0.33c1.37-1.17,2.86-2.21,4.43-3.11c7.89-4.52,17.48-5.94,26.39-4.28
						C327.26,594.97,330.8,596.06,333.85,598.03L333.85,598.03z"/>
				</g>
			</g>
		</g>
		<g>
			<g>
				<g>
					<path class="st6" d="M665.01,563.33c4.99-7.93,13.31-13.69,22.08-16.81c6.7-2.32,13.98-3.07,20.98-1.87
						c2.31,0.36,4.56,0.99,6.75,1.79c-0.59,0.02-1.16,0.01-1.74,0.02c-3.1-0.03-6.25,0.11-9.34,0.38c-4.69,0.48-9.33,1.4-13.81,2.82
						C680.87,552.58,672.49,557.4,665.01,563.33L665.01,563.33z"/>
				</g>
			</g>
			<g>
				<g>
					<path class="st6" d="M668.09,581.7c3.34-3.11,7.38-5.35,11.54-7.18c10.49-4.47,22.47-5.72,33.56-2.97
						c2.21,0.54,4.36,1.27,6.44,2.17c-0.57-0.01-1.13-0.05-1.69-0.07c-2.75-0.16-5.55-0.26-8.31-0.26
						C695.35,573.28,681.28,576.34,668.09,581.7L668.09,581.7z"/>
				</g>
			</g>
			<g>
				<g>
					<path class="st6" d="M670.88,597.83c3.05-1.98,6.58-3.07,10.12-3.78c8.91-1.67,18.5-0.27,26.39,4.25
						c1.57,0.89,3.06,1.93,4.43,3.1c-0.45-0.1-0.88-0.22-1.31-0.33c-1.28-0.34-2.56-0.69-3.84-1
						C694.96,596.95,682.95,596.35,670.88,597.83L670.88,597.83z"/>
				</g>
			</g>
		</g>
		<path class="st1" d="M526.18,677.81c68.05-4.16,125.76-23.14,145.94-65.92c14.17-30.03-2.15-60.36-2.15-60.4
			c-0.37-1.79,6.98-126.75-89.48-170.41c-27.2-12.31-52.75-15.59-77.94-15.87c-25.19,0.31-50.74,3.62-77.92,15.96
			c-96.41,43.78-88.9,168.73-89.27,170.52c0,0.05-16.29,30.39-2.08,60.4c20.23,42.75,77.97,61.66,146.02,65.74L526.18,677.81z"/>
		<path class="st1" d="M672.12,611.89c-3.33,7.05-7.68,13.46-12.93,19.25c-26.56,29.38-76.18,43.19-133.02,46.66l-46.88,0.03
			c-56.85-3.4-106.5-17.16-133.09-46.51c-5.25-5.79-9.6-12.18-12.93-19.23c-14.21-30.01,2.07-60.35,2.08-60.4
			c0.37-1.8-7.13-126.75,89.28-170.52c27.18-12.34,52.72-15.65,77.92-15.96c25.2,0.28,50.74,3.56,77.94,15.87
			c96.46,43.66,89.11,168.62,89.49,170.41C669.97,551.54,686.29,581.87,672.12,611.89z"/>
		<path class="st5" d="M659.19,631.14c-26.56,29.38-76.18,43.19-133.02,46.66l-46.88,0.03c-56.85-3.4-106.5-17.16-133.09-46.51
			c25.98,12.07,81.28,32.62,156.52,32.57C577.95,663.85,633.21,643.24,659.19,631.14z"/>
		<g>
			<g>
				<path class="st6" d="M526.18,677.81c7.04-1.54,14.14-2.77,21.21-4.18c8.08-1.55,16.41-3.21,24.44-5.02
					c21.11-4.6,42.16-10.98,60.92-21.94c6.43-3.79,12.53-8.2,18.05-13.21c0,0,2.46-2.38,2.46-2.38l0.62-0.59
					c0.89-0.93,2.04-2.19,2.92-3.11c0.73-0.89,2.01-2.35,2.75-3.26c0.82-1.12,1.74-2.27,2.56-3.4c0.69-1.01,2.2-3.24,2.79-4.27
					c0.47-0.78,1.28-2.12,1.72-2.93c0,0,0.78-1.51,0.78-1.51l0.78-1.51l0.2-0.38l0.17-0.38l0.34-0.76c0.91-1.95,1.75-4.19,2.4-6.24
					c0.6-1.82,1.06-3.81,1.48-5.68l0.15-0.83l0.3-1.65l0.22-1.67l0.11-0.83l0.08-0.84l0.15-1.68c0.81-12.17-1.73-24.54-6.88-35.57
					c0,0-0.18-0.36-0.18-0.36l-0.09-0.18l-0.04-0.09c-0.2-0.3-0.43-1.13-0.47-1.57l0.07,0.49c-0.12-0.65-0.1-1.31-0.09-1.94
					c0.06-5.46-0.03-10.95-0.34-16.4c-3.38-61.11-28.15-123.21-87.1-149.43c-18.48-8.37-38.45-13.13-58.66-14.65
					c-7.05-0.53-14.66-0.88-21.75-0.67c-22.43,0.53-44.94,4.27-65.74,12.86c-26.3,10.37-48.6,28.91-63.71,52.83
					c-21.57,34.17-29.82,75.62-29.51,115.67c0.01,0.63,0.03,1.29-0.09,1.94l0.07-0.49c-0.03,0.29-0.09,0.58-0.18,0.87
					c-0.06,0.23-0.27,0.68-0.29,0.7c-1.99,4.02-3.5,8.28-4.69,12.61c-2.24,8.2-3.16,16.81-2.3,25.28c0.07,0.93,0.3,2.4,0.42,3.34
					l0.3,1.65l0.15,0.83c0.29,1.27,0.63,2.82,1.01,4.07c0.57,2.12,1.38,4.28,2.19,6.32c0.34,0.74,0.87,1.95,1.2,2.67
					c0,0,0.2,0.38,0.2,0.38l0.78,1.51c0.46,0.9,1.09,2.14,1.63,2.98c0.52,0.88,1.2,2.06,1.76,2.9c0,0,1.9,2.82,1.9,2.82
					c0.82,1.14,1.73,2.26,2.56,3.4c0.79,0.91,1.96,2.33,2.75,3.25c0.88,0.91,2.06,2.21,2.92,3.11c0,0,0.62,0.59,0.62,0.59l2.46,2.37
					l2.58,2.26c4.39,3.7,9.05,7.06,14.01,10.02c1.3,0.84,3.16,1.84,4.5,2.61c4.54,2.51,9.35,4.8,14.11,6.85
					c1.91,0.79,4.61,1.9,6.51,2.6c3.06,1.17,6.86,2.5,9.95,3.49c16.87,5.44,34.41,8.77,51.79,12.16c4.18,0.83,10,1.9,14.11,2.73
					c2.36,0.47,4.73,0.92,7.09,1.47c-9.59,0.88-19.37,0.79-28.98,0.14c-14.52-0.96-28.95-3.64-42.97-7.5
					c-0.8-0.26-4.4-1.26-5.27-1.54c-1.64-0.51-3.71-1.2-5.24-1.69c0,0-3.46-1.23-3.46-1.23l-1.73-0.62
					c-1.57-0.63-3.56-1.36-5.14-2.01c-3.39-1.42-6.8-2.92-10.09-4.56c-0.83-0.48-4.07-2.02-4.93-2.58c0,0-1.62-0.91-1.62-0.91
					l-1.62-0.91c-1.37-0.87-3.38-2.02-4.75-2.94c0,0-3.1-2.08-3.1-2.08c-1.49-1.01-3.08-2.25-4.53-3.31
					c-0.95-0.79-2.67-2.14-3.64-2.95c0,0-0.7-0.62-0.7-0.62l-2.8-2.5c-0.83-0.81-3.22-3.12-4-3.99c-0.57-0.65-1.97-2.12-2.55-2.78
					c-0.81-1-2.19-2.63-3-3.65c-0.91-1.26-1.9-2.55-2.8-3.82c0,0-2.08-3.17-2.08-3.17c-0.8-1.19-1.22-2.1-1.93-3.27
					c-0.93-1.52-1.81-3.47-2.63-5.05c0,0-0.21-0.42-0.21-0.42l-0.19-0.44l-0.38-0.88l-0.76-1.77l-0.68-1.8
					c-1.35-3.57-2.32-7.35-2.99-11.11c0,0-0.32-1.89-0.32-1.89l-0.24-1.9l-0.12-0.95l-0.08-0.95l-0.16-1.9l-0.08-1.9
					c-0.4-12.94,2.47-25.92,7.93-37.61c0,0,0.22-0.44,0.22-0.44l0.11-0.22l0.06-0.11c0-0.02-0.19,0.4-0.23,0.6
					c-0.07,0.25-0.12,0.52-0.13,0.77l0.07-0.49c-0.03,0.13-0.06,0.27-0.06,0.41c-0.01,0.22,0,0.01,0,0.03l0-0.2l0-0.52
					c-0.29-23.68,2.62-47.43,8.97-70.25c17.99-64.04,60.13-104.59,126.12-116.02c11.85-2.04,23.97-2.86,35.98-3.03
					c5.84,0.08,12.23,0.31,18.03,0.79c22.58,1.69,44.97,7.31,65.36,17.25c58.85,28.34,84.19,91.99,87.55,154.15
					c0.34,5.85,0.42,11.76,0.35,17.62c0-0.02,0,0.19,0-0.03c-0.01-0.14-0.03-0.27-0.06-0.41l0.07,0.49
					c-0.01-0.25-0.06-0.52-0.13-0.77c-0.05-0.2-0.24-0.61-0.24-0.6l0.06,0.11c5.44,11.2,8.4,23.9,8.35,36.36
					c0.02,1.08-0.09,2.72-0.12,3.81c-0.09,1.09-0.2,2.73-0.35,3.8c-0.13,1.38-0.49,3.37-0.71,4.73c0,0-0.2,0.94-0.2,0.94l-0.4,1.88
					c-0.71,3.1-1.74,6.19-2.89,9.16c-0.38,0.85-0.96,2.26-1.34,3.09c-0.88,1.73-1.83,3.81-2.83,5.47c-0.6,0.99-1.28,2.33-1.92,3.27
					c0,0-2.07,3.17-2.07,3.17c-0.89,1.28-1.88,2.55-2.8,3.82c-0.82,1.05-2.15,2.6-3,3.65c-0.92,1.04-2.26,2.46-3.19,3.48
					c0,0-0.67,0.66-0.67,0.66l-2.69,2.64c-0.59,0.55-2.98,2.65-3.5,3.13c0,0-0.73,0.59-0.73,0.59c-0.75,0.58-2.17,1.78-2.91,2.36
					c-1.44,1.07-3.05,2.3-4.52,3.31c0,0-3.1,2.08-3.1,2.08c-1.41,0.92-3.29,2.05-4.75,2.94c-1.53,0.86-3.33,1.89-4.87,2.7
					c-9.73,5.15-20.16,9.21-30.71,12.33C577.26,676.56,551.54,679.79,526.18,677.81L526.18,677.81z"/>
			</g>
		</g>
		<polygon class="st16" points="504.37,577.95 503.94,578.02 503.94,577.88 		"/>
		<polygon class="st16" points="504.79,577.88 504.79,578.02 504.37,577.95 		"/>
		<ellipse class="st17" cx="627.21" cy="587.06" rx="33.04" ry="24.82"/>
		<ellipse class="st17" cx="378.14" cy="587.22" rx="33.04" ry="24.82"/>
		<g>
			<g>
				<path class="st1" d="M383.48,409.99c45.03-45.8,91.13-36.64,97.03-79.31c0,0,19.69,13.15,16.25,32.03
					c5.63-4.42,13.07-12.58,41.1-8.63c24.74,3.49,36.19-6.1,37.53-5.63c1.34,0.47,1.37,30.72-33.63,37.68"/>
				<path class="st6" d="M380.71,407.26c15.37-15.92,34.52-27.65,54.46-36.89c19.31-9.47,38.5-16.16,41.5-40.28
					c0.43-3.03,3.98-4.34,6.32-2.42c0.17,0.12,0.64,0.46,0.81,0.59c7.86,6.07,14.56,14.27,16.66,24.26
					c0.73,3.56,0.78,7.31,0.12,10.89l-6.22-3.76c2.23-1.8,4.76-3.92,7.4-5.39c10.95-6.23,24.07-5.65,36.1-4.1
					c1.32,0.18,2.79,0.37,4.11,0.49c10.07,0.99,20.34-0.26,29.39-4.82c0,0,1.02-0.48,1.02-0.48c0.19-0.09,0.38-0.18,0.62-0.27
					c0.67-0.28,1.45-0.57,2.5-0.53c0.8,0.03,1.66,0.34,2.29,0.83c0.93,0.68,1.49,1.83,1.69,2.92c0.28,1.43,0.24,2.9,0.19,4.26
					c-0.19,3.27-0.78,6.41-1.8,9.5c-5.04,15.06-20.86,24-36.1,24.09c0.68-0.28,1.35-0.54,2.02-0.83c1.98-0.82,3.94-1.74,5.82-2.73
					c11.36-5.87,18.3-14.74,21.58-26.9c0.47-1.92,0.85-3.95,0.68-5.86c0,0,0.03,0.1,0.03,0.1l0.03,0.08
					c0.12,0.32,0.25,0.57,0.47,0.86c0.54,0.75,1.53,1.32,2.44,1.43c0.13,0.02,0.21,0.02,0.29,0.03c0.09,0,0.18,0,0.23,0
					c0.52-0.02,0.62-0.08,0.7-0.09c0.14-0.04,0.05-0.02-0.04,0.02c-0.1,0.04-0.23,0.1-0.37,0.16c-10.54,5.46-22.72,7.17-34.39,5.98
					c-1.08-0.1-2.28-0.24-3.36-0.38c-5.78-0.82-11.68-1.33-17.47-0.97c-6.48,0.38-12.82,2.03-17.93,6.08
					c-1.05,0.79-2.09,1.68-3.32,2.65c-2.79,2.21-6.85-0.24-6.23-3.72c2.08-11-5.44-21.17-13.8-27.57c0,0-0.42-0.31-0.42-0.31
					l-0.36-0.26l6-2.7c-1.55,12.11-7.1,22.57-16.81,30.07c-13.28,10.13-28.99,15.29-43.33,23.3c-13.97,7.47-26.9,16.8-37.97,28.14
					c-1.5,1.53-3.96,1.55-5.49,0.05C379.22,411.25,379.2,408.79,380.71,407.26L380.71,407.26z"/>
			</g>
		</g>
		<g>
			<g>
				<path class="st6" d="M481.88,374.32c2.57-1.85,5.04-3.91,7.02-6.33c2-2.43,3.36-5.04,4.92-7.83l5.89,5.07
					c-1.27,0.98-2.59,2.04-3.99,3.05C491.65,371.35,486.8,373.27,481.88,374.32L481.88,374.32z"/>
			</g>
		</g>
		<path class="st6" d="M417.44,457.19c1.55-7.74,15.59-34.03,30.83-23.82c5.37,3.6,4.95,14.53-2.13,16.79
			C435.81,453.46,433.49,452.22,417.44,457.19z"/>
		<path class="st6" d="M587.76,457.08c-1.56-7.74-15.63-34.01-30.85-23.79c-5.37,3.6-4.93,14.53,2.15,16.79
			C569.39,453.38,571.7,452.14,587.76,457.08z"/>
		<path class="st1" d="M391.89,258.98c1.29,38.37-18.81,139.85-65.71,144.06c-58.64,5.26-71-116.12-56.79-149.35
			c13.95-32.61,92.46-44.66,127.5-17.52L391.89,258.98z"/>
		<path class="st1" d="M318.3,393.17c-10.37-1.57-19.47-9.28-27.06-22.91c-18.76-33.68-21.28-93.21-12.92-112.76
			c7.81-18.27,47.68-30.61,82.04-25.41c9.97,1.51,18.7,4.39,25.62,8.43l-3.85,17.56l0.04,1.22c1.29,38.16-19.42,130.69-56.87,134.05
			C322.9,393.57,320.54,393.51,318.3,393.17z"/>
		<path class="st5" d="M325.3,393.35c-2.41,0.21-4.76,0.15-7-0.19c-10.37-1.57-19.47-9.28-27.06-22.91
			c-1.68-3.02-3.22-6.24-4.65-9.62c7.69,10.82,16.52,17.03,26.32,18.52c2.59,0.39,5.33,0.46,8.12,0.22
			c30.42-2.72,51.31-56.21,60.58-103.2C377.94,319.52,358,390.42,325.3,393.35z"/>
		<g>
			<g>
				<path class="st6" d="M391.89,258.98c4.69,41.41-14.47,142.6-64.93,148.35c-17.95,1.97-32.77-7.63-42.71-21.85
					c-21.24-30.15-28.22-85.35-21.91-121.27c1.05-5.35,2.51-10.89,5.3-15.67c13.25-21.96,46.95-30.17,70.96-31.14
					c15.82-0.57,31.92,1.32,46.62,7.55c4.93,2.12,9.7,4.79,14.05,8.14c1.7,1.31,2.01,3.76,0.7,5.46c-1.31,1.7-3.75,2.02-5.45,0.7
					c-7.6-5.86-16.85-9.45-26.24-11.59c-23.9-5.1-50.01-2.75-72.36,7.23c-8.44,3.96-16.84,9.54-21.57,17.56
					c-6.07,10.86-6.59,30.4-6.36,42.9c0.91,30.16,8.94,75.15,32.88,95.44c7.07,5.92,16.1,8.85,25.22,7.89
					C369.08,394.54,389.85,294.97,391.89,258.98L391.89,258.98z"/>
			</g>
		</g>
		<g>
			<g>
				<ellipse class="st6" cx="431.62" cy="538.96" rx="31.96" ry="36.9"/>
			</g>
			<g>
				<ellipse class="st1" cx="440.31" cy="528.29" rx="10.42" ry="13.19"/>
			</g>
			<g class="st18">
				<ellipse class="st1" cx="419.7" cy="551.39" rx="5.77" ry="8.93"/>
			</g>
		</g>
		<g>
			<g>
				<path class="st6" d="M611.1,525.04c-5.54-1.47-11.44-2.43-17.11-1.91c-16.28,1.35-29.51,13.09-37.66,26.55
					c0,0-7.45-7.65-7.45-7.65c4.38-2.01,9.1-3.58,13.98-4.4c14.27-2.54,28.97,2.54,39.98,11.47c-12.42-3.16-25.44-5.53-37.79-1.69
					c-3.85,1.14-7.57,2.75-11.2,4.7c-4.71,2.49-9.87-2.46-7.64-7.25c1.46-3.17,3.28-6.12,5.36-8.83
					c9.82-12.89,26.31-22.3,42.82-19.23C600.55,517.92,606.5,520.83,611.1,525.04L611.1,525.04z"/>
			</g>
		</g>
		<g>
			<path class="st19" d="M399.64,658.31c-8.71-75.07,51.87-96.02,140.67-78.73c77.2,15.03,92.06,40.34,93.36,51.58
				c1.3,11.24-7.36,39.28-79.07,71.59C472.11,739.9,408.34,733.37,399.64,658.31z"/>
			<path class="st19" d="M554.59,702.74c-82.48,37.16-146.25,30.63-154.96-44.44c-6.01-51.8,20.97-77.83,67.47-83.31
				c10.9-1.28,22.87-1.44,35.74-0.53c11.78,0.84,24.31,2.56,37.46,5.12c0.55,0.11,1.11,0.21,1.66,0.32
				c75.75,15.07,90.41,40.09,91.7,51.25C634.97,642.39,626.31,670.44,554.59,702.74z"/>
			<path class="st20" d="M541.97,579.9c-0.17,22.32-33.69,23.84-39.12,3.34v-4.75c-0.01,1.69-0.01,3.48-0.01,4.75
				c-5.57,21.05-40.78,18.88-39.05-5.2c0,0,1.08-1.27,3.32-3.05c10.9-1.28,22.87-1.44,35.74-0.53c11.78,0.84,24.31,2.56,37.46,5.12
				C540.86,579.69,541.41,579.79,541.97,579.9z"/>
			<path class="st21" d="M495.32,648.53c4.3,26.48,26.8,7.64,52.01,4.26c25.21-3.39,41.43-0.63,39.28-16.52
				c-2.15-15.89-16.82-7.36-42.03-3.98C519.37,635.68,491.02,622.06,495.32,648.53z"/>
			<path class="st21" d="M455.32,653.68c1.67,9.59,6.04,17.27,18.52,14.85c8.3-1.61,13.76-9.03,11.82-18.92
				c-1.44-7.32-6.54-14.65-14.92-13.53C462.36,637.2,453.5,643.23,455.32,653.68z"/>
			<path class="st20" d="M405.84,666.01c5.35,28.57,20.29,45.94,44.49,51.67c5.16,1.22,10.8,1.93,16.78,2.1
				c4.71,0.13,9.72-0.06,14.9-0.59c20.41-2.05,44.14-9.12,70.53-21c4.51-2.03,8.99-4.15,13.31-6.3
				c29.16-14.53,44.91-27.55,53.36-37.79c-11.45,5.71-25.8,11.53-43.76,17.18c-5.72,1.79-11.64,3.52-17.58,5.14
				c-34.75,9.47-65.29,13.53-90.79,12.06c-6.47-0.36-12.67-1.09-18.42-2.17c-7.31-1.37-14.1-3.34-20.21-5.85
				C419.61,676.83,412.07,672.01,405.84,666.01z"/>
			<path class="st20" d="M415.8,684.9c2.77,2.63,20.49,18.52,25.55-0.2c-4.57-1.17-8.88-2.58-12.9-4.24
				c-1.78-0.73-3.51-1.51-5.18-2.34C421.93,684.52,419.22,688.01,415.8,684.9z"/>
			<path class="st22" d="M399.64,658.31c-8.71-75.07,51.87-96.02,140.67-78.73c77.2,15.03,92.06,40.34,93.36,51.58
				c1.3,11.24-7.36,39.28-79.07,71.59C472.11,739.9,408.34,733.37,399.64,658.31z"/>
			<g>
				<g>
					<path class="st6" d="M568.25,639.92c-1.58-10.23-3.81-20.4-6.87-30.26c-2.32-7.26-4.99-14.45-9.17-20.75
						c-1.36-2.01-2.9-3.86-4.6-5.25l3.93-4.31C563.69,591.76,567.1,622.85,568.25,639.92L568.25,639.92z"/>
				</g>
			</g>
			<g>
				<g>
					<path class="st6" d="M528.32,681.36c2.5,9.81,3.39,20.36,0.6,30.25c-0.44,1.46-0.98,2.92-1.62,4.35l-5.09-2.84
						c3.01-4.44,4.61-9.64,5.51-14.95C528.62,692.64,528.82,686.96,528.32,681.36L528.32,681.36z"/>
				</g>
			</g>
			<g>
				<g>
					<path class="st6" d="M595.98,636.7c3.66,12.88,5.33,27.01,2.56,40.24c-0.43,1.96-0.99,3.9-1.66,5.83l-5.36-2.3
						c3.3-6.56,4.79-13.83,5.39-21.16C597.47,651.78,597.17,644.18,595.98,636.7L595.98,636.7z"/>
				</g>
			</g>
			<g>
				<g>
					<path class="st6" d="M485.44,624.27c-2.95-14.01-9.36-33.93-21.14-42.68c-1.74-1.24-3.6-2.2-5.52-2.79l2.02-5.47
						C477.83,580.7,483.66,607.53,485.44,624.27L485.44,624.27z"/>
				</g>
			</g>
			<g>
				<g>
					<path class="st6" d="M480.86,669.02c3.34,18.85,1.7,41.68-13.32,55.37c-1.02,0.93-2.11,1.79-3.22,2.61l-3.2-4.88
						C478.69,711.65,482.39,687.94,480.86,669.02L480.86,669.02z"/>
				</g>
			</g>
			<path class="st20" d="M415.43,684.55c-7.73-8.81-10.65-47.4-6.17-52.13c4.48-4.73,21.37,2.67,27.21,25.21
				C440.41,687.95,419.41,689.08,415.43,684.55z"/>
			<g>
				<path class="st23" d="M430.15,672.83c0,0-37.38,2.51-50.19,35.55c-9.45,24.38-19.27,16.91-22.93,13.07
					c-3.81-4-7.42-18.13,2.06-29.28c18-21.15,55.14-25.57,69.78-27.78"/>
				<path class="st24" d="M428.88,664.38l1.27,8.44c0,0-28.93,1.94-44.6,24.91c-2.15,3.14-4.04,6.67-5.58,10.64
					c-9.45,24.38-19.26,16.92-22.92,13.07c-3.81-4.01-7.42-18.14,2.06-29.28c9.36-11,23.89-17.48,37.75-21.46
					C409.64,667.01,421.85,665.44,428.88,664.38z"/>
				<path class="st25" d="M366.13,714.54c3.13,0.04-3.73-27.39,51.24-43.63c0,0,9.39-3.83-0.35-1.51
					C366.01,681.54,361.86,714.49,366.13,714.54z"/>
				<path class="st25" d="M417.37,670.9c-8.2,2.42-15.02,5.09-20.7,7.88c0.78-1.11,1.23-2.17,1.43-3.15
					c5.44-2.4,11.71-4.53,18.91-6.24C426.76,667.08,417.37,670.9,417.37,670.9z"/>
				<path class="st26" d="M409.69,667.57c-2.6,0.61-5.27,1.29-7.97,2.07c-13.85,3.99-28.39,10.46-37.75,21.46
					c-9.49,11.15-5.87,25.28-2.06,29.28c1.51,1.58,4.04,3.77,7.17,4.11c-5.32,2.97-9.82-0.71-12.05-3.05
					c-3.81-4.01-7.42-18.14,2.06-29.28c9.36-11,23.89-17.48,37.75-21.46C401.26,669.43,405.6,668.41,409.69,667.57z"/>
				<path class="st27" d="M428.88,664.38l1.27,8.44c0,0-28.93,1.94-44.6,24.91c2.25-5.97,5.5-12.75,9.78-17.31
					c3.8-4.04,3.36-7.29,1.52-9.72C409.64,667.01,421.85,665.44,428.88,664.38z"/>
				<path class="st28" d="M417.37,670.9c-8.2,2.42-15.02,5.09-20.7,7.88c0.78-1.11,1.23-2.17,1.43-3.15
					c5.44-2.4,11.71-4.53,18.91-6.24C426.76,667.08,417.37,670.9,417.37,670.9z"/>
				<path class="st29" d="M430.15,672.83c0,0-37.38,2.51-50.19,35.55c-9.45,24.38-19.27,16.91-22.93,13.07
					c-3.81-4-7.42-18.13,2.06-29.28c18-21.15,55.14-25.57,69.78-27.78"/>
				<path class="st23" d="M428.15,659.52c0,0-61.26-11.17-62.34-46.52c-0.34-11.24,4.07-14.29,7.87-14.2
					c6.79,0.17,8.22,11.03,11.28,17.59c10.3,22.07,28.62,25.9,44.84,33.27"/>
				<path class="st24" d="M373.68,598.81c5.71,0.14,7.63,7.84,9.91,14.18c0.44,1.2,0.88,2.36,1.37,3.4
					c10.3,22.07,28.63,25.9,44.84,33.27l-1.65,9.87c0,0-15.86-2.9-31.59-10.39c-15.17-7.24-30.22-18.77-30.74-36.13
					C365.47,601.76,369.89,598.71,373.68,598.81z"/>
				<path class="st25" d="M420.31,653.73c-46.63-15.77-50.66-45.4-47.55-45.87c3.1-0.47,2.18,27.53,48.33,44.53"/>
				<path class="st25" d="M396.65,639.8c6.18,4.45,14.14,8.8,24.45,12.6l-0.78,1.33c-9.01-3.04-16.43-6.61-22.52-10.39
					c-0.13-0.79-0.36-1.65-0.73-2.58C396.94,640.45,396.8,640.13,396.65,639.8z"/>
				<path class="st26" d="M373.68,598.81c1.73,0.04,3.11,0.78,4.25,1.96c-3.71,0.1-7.83,3.31-7.5,14.19
					c0.53,17.36,15.57,28.89,30.74,36.13c0.83,0.4,1.66,0.78,2.48,1.14c-2.34-0.93-4.72-1.96-7.1-3.09
					c-15.17-7.24-30.22-18.77-30.74-36.13C365.47,601.76,369.89,598.71,373.68,598.81z"/>
				<path class="st27" d="M383.59,612.99c0.44,1.2,0.88,2.36,1.37,3.4c10.3,22.07,28.63,25.9,44.84,33.27l-1.65,9.87
					c0,0-15.86-2.9-31.59-10.39c1.26-1.69,2.09-4.37,0.51-8.37C394.23,633.53,381.92,620.14,383.59,612.99z"/>
				<path class="st28" d="M396.65,639.8c6.18,4.45,14.14,8.8,24.45,12.6l-0.78,1.33c-9.01-3.04-16.43-6.61-22.52-10.39
					c-0.13-0.79-0.36-1.65-0.73-2.58C396.94,640.45,396.8,640.13,396.65,639.8z"/>
				<path class="st29" d="M428.15,659.52c0,0-61.26-11.17-62.34-46.52c-0.34-11.24,4.07-14.29,7.87-14.2
					c6.79,0.17,8.22,11.03,11.28,17.59c10.3,22.07,28.62,25.9,44.84,33.27"/>
				<path class="st23" d="M426.16,668.46c0,0-67.17,14.93-93-15.61c-21.49-25.41,7.79-43.36,26.18-28.08
					c17.01,14.14,31.25,25.11,67.85,28.43"/>
				<path class="st24" d="M359.34,624.76c11.25,9.35,21.29,17.32,37.39,22.6c8.24,2.71,18.07,4.7,30.46,5.83l-1.04,15.27
					c0,0-14.22,3.16-32.09,3.6c-20.97,0.51-46.96-2.72-60.9-19.21C311.68,627.43,340.95,609.49,359.34,624.76z"/>
				<path class="st26" d="M351.45,620.33c-15.92-1.81-30.47,13.56-13.55,33.56c7.09,8.38,17.29,13.34,28.37,16.12
					c-12.87-2.5-25.02-7.6-33.11-17.17C314.58,630.86,333.98,614.47,351.45,620.33z"/>
				<path class="st27" d="M396.73,647.37c8.24,2.71,18.07,4.7,30.46,5.83l-1.04,15.27c0,0-14.22,3.16-32.09,3.6
					C399.96,666.18,406.56,656.28,396.73,647.37z"/>
				<path class="st30" d="M401.75,657.01c6.44,0.94,13.44,1.64,21.04,2c1.88,3.29-0.42,2.56-0.42,2.56
					c-7.33-0.06-14.32-0.64-20.89-1.59C401.7,659,401.79,658,401.75,657.01z"/>
				<path class="st29" d="M426.16,668.46c0,0-67.17,14.93-93-15.61c-21.49-25.41,7.79-43.36,26.18-28.08
					c17.01,14.14,31.25,25.11,67.85,28.43"/>
				<path class="st25" d="M338.9,634.18c-0.84,2.31,33.05,26.94,83.48,27.38c0,0,2.29,0.73,0.41-2.55
					C361.88,656.09,339.74,631.87,338.9,634.18z"/>
				<path class="st28" d="M401.75,657.01c6.44,0.94,13.44,1.64,21.04,2c1.88,3.29-0.42,2.56-0.42,2.56
					c-7.33-0.06-14.32-0.64-20.89-1.59C401.7,659,401.79,658,401.75,657.01z"/>
			</g>
			<path class="st19" d="M415.43,684.55c6.64,6.85,10.77-10.96,7.74-27.44c-3.09-16.79-9.69-31.51-14.8-23.56
				c0,0,1.01-2.4,4.97-2.82c8.12-0.86,23.34,2.69,28.36,26.28C448.78,717.98,415.43,684.55,415.43,684.55z"/>
			<path class="st20" d="M415.8,684.9c2.77,2.63,20.49,18.52,25.55-0.2c-4.57-1.17-8.88-2.58-12.9-4.24
				c-1.78-0.73-3.51-1.51-5.18-2.34C421.93,684.52,419.22,688.01,415.8,684.9z"/>
			<g>
				<g>
					<path class="st6" d="M415.43,684.55c2.92,1.96,4.25,0.55,5.13-2.43c0.72-2.51,0.92-5.23,1.03-7.87c0.09-2.69,0-5.4-0.2-8.1
						c-0.29-4.05-0.94-8.09-1.77-12.06c-1.09-5.35-2.29-10.7-4.12-15.84c-0.76-1.93-1.94-5.24-3.87-6.09
						c-1.25-0.41-2.36,0.55-3.26,1.39c0.95-2.82,3.35-3.91,5.96-2.21c3.12,2.1,5.13,5.81,6.73,9.12c2.46,5.29,4.03,10.93,5.07,16.67
						c1.37,8.2,1.16,18.77-3,26.16C421.29,686.5,417.87,688.47,415.43,684.55L415.43,684.55z"/>
				</g>
			</g>
		</g>
		<g>
			<path class="st1" d="M517.24,575.04l-3.4,21.6c-0.42,2.66-2.71,4.61-5.39,4.61l-5.61,0l-5.61,0c-2.69,0-4.98-1.96-5.39-4.62
				l-3.38-21.61"/>
			<g>
				<g>
					<path class="st6" d="M504.79,576.3l-1.95,16.13l-1.93-16.13c-0.13-1.07,0.64-2.05,1.71-2.18
						C503.85,573.95,504.95,575.06,504.79,576.3L504.79,576.3z"/>
				</g>
			</g>
			<path class="st3" d="M517.24,575.04l-3.4,21.6c-0.42,2.66-2.71,4.61-5.39,4.61l-5.61,0l-5.61,0c-2.69,0-4.98-1.96-5.39-4.62
				l-3.38-21.61"/>
		</g>
		<path class="st1" d="M544.99,568c1.86,25.97-36.12,28.32-42.14,5.61c0-2.75,0-7.69,0-9.69h-0.01c0,2,0,6.94,0,9.69
			c-6.01,22.71-44,20.36-42.14-5.61c0,0,12.98-15.24,42.13-15.24S544.99,568,544.99,568z"/>
		<path class="st1" d="M544.99,568c1.86,25.97-36.12,28.32-42.14,5.61c0-2.75,0-7.69,0-9.69h-0.01c0,2,0,6.94,0,9.69
			c-6.01,22.71-44,20.36-42.14-5.61c0,0,12.98-15.24,42.13-15.24S544.99,568,544.99,568z"/>
		<path class="st5" d="M463.72,571.4c-0.32,1.61,5.01,11.28,16.16,11.62c10.81,0.33,16.29-7.31,15.67-10.87
			c-0.69-3.95-5.94-1.15-9.42,0.49C470.04,580.23,463.95,570.25,463.72,571.4z"/>
		<path class="st5" d="M541.94,571.4c0.32,1.61-5.01,11.28-16.16,11.62c-10.81,0.33-16.29-7.31-15.67-10.87
			c0.69-3.95,5.94-1.15,9.42,0.49C535.63,580.23,541.72,570.25,541.94,571.4z"/>
		<g>
			<g>
				<path class="st6" d="M506.24,563.91c0.25,2.42,0.39,4.84,0.49,7.27c-0.01,1.14,0.23,2.33-0.05,3.44
					c-3.04,12.66-15.71,19.74-28.2,18.09c-9.01-1.07-17.51-7.1-18.7-16.53c-0.35-2.85-0.01-5.66,0.92-8.19c0.3,1.32,0.61,2.59,1,3.8
					c3.81,13.02,19.01,17.18,29.97,10.52c3.61-2.24,6.14-5.65,7.32-9.73c0,0-0.13,1.02-0.13,1.02c0.07-2.42,0.18-4.85,0.36-7.26
					c0.07-0.81,0.13-1.62,0.22-2.43C500,559.87,505.69,559.9,506.24,563.91L506.24,563.91z"/>
			</g>
		</g>
		<g>
			<g>
				<path class="st6" d="M506.25,563.92c0.33,3.22,0.48,6.45,0.58,9.69c0,0-0.13-1.02-0.13-1.02c1.18,4.08,3.72,7.5,7.32,9.73
					c10.96,6.66,26.16,2.5,29.97-10.52c0.39-1.21,0.7-2.48,1-3.8c0.93,2.53,1.27,5.34,0.92,8.19
					c-1.71,12.84-15.98,18.64-27.61,16.24c-9.32-1.72-17.16-8.58-19.33-17.94c-0.22-1.09-0.01-2.2-0.01-3.3
					c0.04-0.81,0.07-1.62,0.12-2.42c0.09-1.62,0.21-3.23,0.38-4.85C500.01,559.86,505.71,559.9,506.25,563.92L506.25,563.92z"/>
			</g>
		</g>
		<path class="st6" d="M523.23,553.73c-3.87,10.8-20.4,16.88-20.4,16.88s-16.53-6.1-20.39-16.9c-2.75-7.73,16.7-8.98,20.4-8.98
			C506.53,544.73,525.98,546,523.23,553.73z"/>
		<path class="st26" d="M511.29,548.67c-1.6,2.73-8.46,2.67-8.46,2.67s-6.86,0.05-8.45-2.68c-1.14-1.95,6.92-2.27,8.46-2.27
			C504.37,546.4,512.43,546.72,511.29,548.67z"/>
		<g>
			<g>
				<path class="st6" d="M504.13,560.22l1.95,12.42c0.3,1.88-0.99,3.64-2.86,3.94c-2.26,0.4-4.32-1.68-3.93-3.93
					c0,0,1.93-12.42,1.93-12.42C501.5,558.56,503.85,558.58,504.13,560.22L504.13,560.22z"/>
			</g>
		</g>
	</g>
</g>
</svg>
