<?xml version="1.0" encoding="utf-8"?>
<!-- Generator: Adobe Illustrator 25.0.0, SVG Export Plug-In . SVG Version: 6.00 Build 0)  -->
<svg version="1.1" id="Layer_1" xmlns="http://www.w3.org/2000/svg" xmlns:xlink="http://www.w3.org/1999/xlink" x="0px" y="0px"
	 viewBox="0 0 1000 1000" style="enable-background:new 0 0 1000 1000;" xml:space="preserve">
<style type="text/css">
	.st0{fill:#FFCAEC;}
	.st1{fill:#FF3E5F;}
	.st2{fill:#FFD1A4;}
	.st3{fill:#390075;}
	.st4{opacity:0.3;}
	.st5{fill:#FF1B40;}
	.st6{opacity:0.7;}
	.st7{fill:#FFFFFF;}
	.st8{filter:url(#Adobe_OpacityMaskFilter);}
	.st9{filter:url(#Adobe_OpacityMaskFilter_1_);}
	.st10{mask:url(#SVGID_1_);fill:url(#SVGID_2_);}
	.st11{opacity:0.7;fill:url(#SVGID_3_);}
	.st12{filter:url(#Adobe_OpacityMaskFilter_2_);}
	.st13{filter:url(#Adobe_OpacityMaskFilter_3_);}
	.st14{mask:url(#SVGID_4_);fill:url(#SVGID_5_);}
	.st15{opacity:0.7;fill:url(#SVGID_6_);}
	.st16{fill:#F2382F;}
	.st17{fill:#FFD15F;}
	.st18{opacity:0.2;}
	.st19{opacity:0.5;}
	.st20{fill:#FF0068;}
</style>
<g>
	<rect x="-0.62" class="st0" width="1001.25" height="1000"/>
	<g>
		<g>
			<g>
				<g>
					<g>
						<g>
							<path class="st1" d="M731.89,843.82c-4.75,0.96-8.39,0.32-8.39,0.32c26.58-45.4-68.08-70.71-138.87-95.07l-12.4-33.96
								l-1.34-3.69c0,0,10.74-65.18,27.27-61.46c16.53,3.72,136.68,53.28,152.07,127.5C761.09,829.84,743.3,841.49,731.89,843.82z"
								/>
						</g>
						<g>
							<path class="st2" d="M723.5,844.13c26.58-45.4-68.08-70.71-138.87-95.07l-12.4-33.96c4.32-4.12,19.81-5.2,19.81-5.2
								c121.16,49.99,161.55,94.47,139.85,133.91C727.14,844.78,723.5,844.13,723.5,844.13z"/>
						</g>
						<g>
							<path class="st3" d="M726.62,848.17c-2.19,0-3.62-0.24-3.8-0.27c-1.23-0.22-2.28-1.03-2.8-2.16
								c-0.52-1.14-0.46-2.45,0.17-3.53c4.29-7.33,5.17-14.09,2.69-20.69c-9.56-25.39-66.54-44.41-116.81-61.19
								c-7.53-2.51-15.32-5.11-22.68-7.65c-2-0.69-3.06-2.86-2.37-4.86c0.69-2,2.86-3.06,4.87-2.37c7.33,2.52,14.75,5,22.61,7.62
								c54.43,18.17,110.72,36.96,121.55,65.75c2.62,6.96,2.47,14.18-0.44,21.52c3.47-0.46,8.02-1.9,11.88-5.9
								c6.25-6.48,12.19-21.49,4.99-56.22c-7.86-37.89-44.55-68.64-73.95-87.76c-33.25-21.63-66.82-34.9-75.21-36.79
								c-0.51-0.12-1.25-0.15-2.42,0.64c-8.79,5.92-17.07,38.54-20.23,57.71c-0.34,2.08-2.31,3.49-4.4,3.15
								c-2.09-0.34-3.5-2.31-3.16-4.4c0.89-5.41,9.12-53.13,23.51-62.81c2.66-1.79,5.55-2.4,8.38-1.76
								c8.79,1.98,43.63,15.67,77.71,37.84c30.62,19.91,68.88,52.15,77.27,92.62c6.34,30.6,3.96,51.85-7.08,63.18
								C739.94,847,731.44,848.17,726.62,848.17z"/>
						</g>
					</g>
					<g>
						<g>
							<path class="st2" d="M620.35,661.4c0,0,20.98-11.79,28.43-8.65c7.46,3.13,11.47,24.48,6.88,29.32
								C651.07,686.9,613.91,677.23,620.35,661.4z"/>
						</g>
						<g>
							<path class="st3" d="M650.47,687.1c-7.78,0-18.58-3.54-25.01-7.68c-8.35-5.37-11.5-12.46-8.66-19.46
								c0.33-0.8,0.91-1.47,1.67-1.9c5.3-2.98,23.27-12.43,31.8-8.85c6.63,2.78,9.38,12.77,10.26,16.94
								c0.66,3.14,2.46,13.75-2.09,18.54C656.84,686.38,653.95,687.1,650.47,687.1z M623.53,664.01c-0.33,1.64,0,3.86,2.99,6.63
								c7.39,6.84,23.15,9.88,26.49,8.62c0.69-1.12,1.34-5.39,0-11.65c-1.37-6.38-3.96-10.6-5.71-11.34
								C644.03,654.89,632.68,659.07,623.53,664.01z"/>
						</g>
					</g>
					<g>
						<g>
							<path class="st2" d="M678.34,695.95c0,0,25.09-7.51,30.54,0.2s7.11,27.17,0.37,31.14
								C702.51,731.26,670.37,714.1,678.34,695.95z"/>
						</g>
						<g>
							<path class="st3" d="M706.56,731.66c-6.73,0-16.37-4.81-23.1-10.77c-9.27-8.21-12.41-17.86-8.63-26.48
								c0.45-1.03,1.33-1.81,2.41-2.13c6.5-1.95,28.24-7.59,34.77,1.66c4.46,6.32,6.67,18.93,4.83,27.52
								c-0.95,4.4-2.84,7.47-5.63,9.11C709.93,731.33,708.35,731.66,706.56,731.66z M681.28,699.08c-1.48,5.53,1.9,10.65,5.19,14.09
								c7.58,7.95,18.59,11.66,20.91,10.78c0.75-0.45,1.51-1.99,1.97-4.09c1.39-6.47-0.36-16.92-3.6-21.51
								C703.6,695.31,691.55,696.3,681.28,699.08z"/>
						</g>
					</g>
					<g>
						<g>
							<path class="st2" d="M725.61,753.54c0,0,19.09-5.94,25.97,2.34c6.88,8.28-3.51,27.34-8.98,28.09
								C737.14,784.71,718.49,763.76,725.61,753.54z"/>
						</g>
						<g>
							<path class="st3" d="M742.34,787.81c-6.07,0-13.88-9-17.53-14.95c-5.23-8.53-6.06-16.17-2.34-21.5c0.49-0.7,1.19-1.21,2-1.47
								c2.21-0.68,21.78-6.41,30.06,3.55c3.82,4.6,4.18,11.93,1,20.12c-1.91,4.91-6.67,13.42-12.4,14.21
								C742.87,787.79,742.61,787.81,742.34,787.81z M741.95,780.21L741.95,780.21L741.95,780.21z M742.45,780.17L742.45,780.17
								L742.45,780.17z M728.2,756.78c-0.88,2.37-0.03,5.46,0.93,7.79c3.19,7.76,10.57,14.66,13.05,15.53
								c1.67-0.93,5.43-5.9,7.11-12.04c1.17-4.28,0.93-7.83-0.66-9.74C744.78,753.68,733.51,755.42,728.2,756.78z"/>
						</g>
					</g>
				</g>
				<g>
					<path class="st2" d="M637.24,594.07c23.3-4.8,34.47,19.03,34.47,19.03c42.75-14.62,69.7,5.38,69.7,5.38
						c20.03-47.69,48.91-40.77,48.91-40.77l-44.67-53.85l-41.98-10.38c0,0-36.97,14.69-44.67,15.04c-7.7,0.35-62.57,0-62.57,0
						l7.51,31.12"/>
				</g>
				<g>
					<path class="st1" d="M600.9,518.13c29.31,8.81,60.95-3.49,86.89-24.07l-10.11-13.56c54.3-10.53,101.16,51.85,112.64,97.21
						c0,0-36.97-48.31-79.72-57.81c0,0-49.21,40.8-109.71,13.53"/>
				</g>
				<g>
					<path class="st3" d="M790.32,581.54c-1.16,0-2.3-0.53-3.04-1.5c-0.36-0.47-35.62-45.99-75.77-55.99
						c-3.97,2.98-15.35,10.83-31.83,16.47c-18.78,6.42-47.96,11.01-80.36-3.59c-1.93-0.87-2.79-3.13-1.92-5.06
						c0.87-1.93,3.13-2.78,5.07-1.91c57.52,25.92,105.22-12.6,105.69-12.99c0.91-0.75,2.12-1.04,3.28-0.79
						c28.66,6.37,54.37,29.08,69.06,44.47c-7.6-18.08-19.48-36.1-33.16-49.79c-14.17-14.18-36.17-29.85-62.75-27.47l6.26,8.4
						c1.24,1.66,0.93,4-0.69,5.28c-30.61,24.27-62.71,33.06-90.38,24.74c-2.03-0.61-3.17-2.74-2.56-4.76
						c0.61-2.02,2.75-3.17,4.77-2.56c32.1,9.65,63.17-8.07,80.47-21.13l-7.87-10.55c-0.79-1.06-0.98-2.44-0.5-3.67
						c0.48-1.23,1.55-2.12,2.84-2.37c56.3-10.92,104.98,52.21,117.08,100.03c0.44,1.76-0.41,3.59-2.05,4.38
						C791.45,581.42,790.89,581.54,790.32,581.54z"/>
				</g>
				<g>
					<path class="st3" d="M741.41,622.31c-0.81,0-1.62-0.26-2.28-0.75c-1.04-0.76-26.02-18.57-66.18-4.84
						c-1.85,0.63-3.88-0.23-4.71-2c-0.4-0.85-10.23-21.03-30.22-16.9c-2.09,0.43-4.1-0.91-4.52-2.97c-0.43-2.07,0.91-4.09,2.98-4.52
						c18.65-3.84,31.54,8.86,37.1,18.15c33.44-10.37,57.08-0.57,66.11,4.44c20.97-45.64,50.26-39.22,51.53-38.91
						c2.06,0.49,3.32,2.56,2.83,4.61c-0.49,2.05-2.55,3.3-4.59,2.83c-1.12-0.25-26.16-5.19-44.51,38.52
						c-0.46,1.08-1.38,1.9-2.52,2.21C742.09,622.27,741.75,622.31,741.41,622.31z"/>
				</g>
				<g>
					<path class="st3" d="M741.41,621.22c-1.45,0-2.66-1.14-2.73-2.6c-2.36-50.04-18.49-80.85-25.46-91.95
						c-4.3,14.62-17.28,54.6-39.23,87.94c-0.83,1.26-2.53,1.61-3.79,0.78c-1.26-0.83-1.61-2.52-0.78-3.78
						c26.76-40.66,39.97-91.49,40.1-92c0.26-1,1.06-1.78,2.08-1.99c1.01-0.22,2.07,0.16,2.71,0.97
						c1.09,1.37,26.74,34.27,29.83,99.78c0.07,1.51-1.1,2.79-2.6,2.86C741.5,621.22,741.46,621.22,741.41,621.22z"/>
				</g>
				<g class="st4">
					<g>
						<path class="st3" d="M771.02,556.61c-23.44-14.14-36.11-10.35-33.55,18.8l-3.18,4.9c-12.19-25.62-24.94-31.79-38.68-4.04
							l-6.95,4.04c6.95-36.06-69.97-14.33-86.13-42.98c0,0,67.26,15.38,109.65-17.05C712.18,520.28,749.4,534.06,771.02,556.61z"/>
					</g>
				</g>
				<g>
					<path class="st2" d="M384.86,594.07c-23.3-4.8-34.47,19.03-34.47,19.03c-42.75-14.62-69.7,5.38-69.7,5.38
						c-20.03-47.69-48.91-40.77-48.91-40.77l44.67-53.85l41.98-10.38c0,0,36.97,14.69,44.67,15.04c7.7,0.35,62.57,0,62.57,0
						l-7.51,31.12"/>
				</g>
				<g>
					<path class="st1" d="M421.21,518.13c-29.31,8.81-60.95-3.49-86.89-24.07l10.11-13.56c-54.3-10.53-101.16,51.85-112.64,97.21
						c0,0,36.97-48.31,79.72-57.81c0,0,49.21,40.8,109.71,13.53"/>
				</g>
				<g>
					<path class="st1" d="M655.79,774.25c-24.46,17.88-99.55,10.58-95.3-11.34c-32.81,9.33-65.62,9.33-98.43,0
						c0.01,0.07,0.02,0.14,0.03,0.21c3.73,21.76-70.96,28.96-95.34,11.13c-3.17-2.32-5.51-4.52-7.17-6.61
						c-11.23-14.02,7.66-22.62,7.66-22.62c-2.31-27.69,7.8-42.69,7.8-42.69c-24.84-30.58-4.82-90.36,20.8-125.48
						c28.19-38.65,29.25-56.94,29.25-56.94h172.37c0,0,1.06,18.29,29.25,56.94c25.61,35.12,45.63,94.9,20.8,125.48
						c0,0,10.11,15,7.8,42.69C655.31,745.03,680.24,756.37,655.79,774.25z"/>
				</g>
				<g class="st4">
					<g>
						<path class="st3" d="M454.82,741.03c0,0,65.22,22.26,109.98,0l1.61,2.74l-8.26,20.87l-57.48,5.28l-34.08-7.01l-4.37-4.33"/>
					</g>
				</g>
				<g>
					<path class="st2" d="M431.48,782.66c-0.09-30.74-20.24-29.75-23.71,1.66c0-29.48-20.56-41.81-25.94-3.37
						c3.03-29.38-17.03-33.46-20.66-11.49C361.18,769.45,370.08,790.29,431.48,782.66z"/>
				</g>
				<g>
					<path class="st2" d="M591.07,782.66c0.09-30.74,20.24-29.75,23.71,1.66c0-29.48,20.56-41.81,25.94-3.37
						c-3.03-29.38,17.03-33.46,20.66-11.49C661.37,769.45,652.47,790.29,591.07,782.66z"/>
				</g>
				<g>
					<path class="st2" d="M564.67,531.01c44.57,95.52,56.89,203.63-53.15,206.23h-0.24c-110.05-2.6-97.72-110.7-53.15-206.23H564.67
						z"/>
				</g>
				<g>
					<g>
						<g>
							<path class="st5" d="M706.6,434.44c-7.01,24.05-45.32,34.23-45.32,34.23s-37.85,67.5-149.67,68.65
								c-111.82-1.15-149.66-68.65-149.66-68.65s-38.32-10.19-45.33-34.23c-7-24.03,24.92-21.73,24.92-21.73
								c-22.53-25.1-27.92-43.85-23.49-54.23c4.42-10.38,36.97-0.77,36.97-0.77c1.16-12.88,7.69-31.92,7.69-31.92
								c-0.19-0.24-0.37-0.47-0.55-0.72c-65.25-83.82-14.06-155.66,14.42-185.4c0.01-0.01,0.01-0.01,0.01-0.01
								c1.25-1.3,2.46-2.54,3.62-3.68c4.62-4.58,12.55-1.95,13.4,4.5c4.04,30.53,17.27,52.26,39.67,65.18l37.47,17.47
								c0,0,44.33-8.97,81.45,1.5l37.74-18.97c22.41-12.92,35.63-34.65,39.67-65.18c0.86-6.45,8.79-9.08,13.4-4.5
								c27.43,27.2,86.51,101.98,17.49,189.81c0,0,6.55,19.04,7.71,31.92c0,0,32.53-9.61,36.97,0.77
								c4.42,10.38-0.97,29.13-23.5,54.23C681.68,412.71,713.61,410.41,706.6,434.44z"/>
						</g>
					</g>
					<g>
						<path class="st1" d="M706.6,434.44c-7.01,24.05-45.32,34.23-45.32,34.23s-37.85,67.5-149.67,68.65
							c-111.82-1.15-149.66-68.65-149.66-68.65s-38.32-10.19-45.33-34.23c-7-24.03,24.92-21.73,24.92-21.73
							c-22.53-25.1-27.92-43.85-23.49-54.23c4.42-10.38,36.97-0.77,36.97-0.77c1.16-12.88,7.69-31.92,7.69-31.92
							c-0.19-0.24-0.37-0.47-0.55-0.72c-65.25-83.82-14.06-155.66,14.42-185.4c0.01-0.01,0.01-0.01,0.01-0.01
							c1.25-1.3,2.46-2.54,3.62-3.68c2.5-2.48,5.96-2.85,8.75-1.64c2.38,1.02,4.26,3.17,4.66,6.14
							c3.92,29.56,16.44,50.87,37.57,63.92c0.69,0.43,1.39,0.84,2.1,1.26l37.47,17.47c0,0,44.33-8.97,81.45,1.5l37.74-18.97
							c22.41-12.92,35.63-34.65,39.67-65.18c0.86-6.45,8.79-9.08,13.4-4.5c27.43,27.2,86.51,101.98,17.49,189.81
							c0,0,6.55,19.04,7.71,31.92c0,0,32.53-9.61,36.97,0.77c4.42,10.38-0.97,29.13-23.5,54.23
							C681.68,412.71,713.61,410.41,706.6,434.44z"/>
					</g>
					<g class="st6">
						<path class="st7" d="M612.26,253.87c-34.55-37.2-142.49-47.07-199.1-1.68C482.19,221.12,551.44,224.43,612.26,253.87z"/>
					</g>
					<g class="st6">
						<path class="st7" d="M431.18,204.41l-1.59,13.58c-49.38-21.07-44.44-81.91-44.44-81.91l3.8-1.73
							c2.38,1.02,4.26,3.17,4.66,6.14C397.52,170.05,410.05,191.36,431.18,204.41z"/>
					</g>
					<g class="st6">
						<path class="st7" d="M591.69,204.41l1.59,13.58c49.38-21.07,44.44-81.91,44.44-81.91l-3.8-1.73
							c-2.38,1.02-4.26,3.17-4.66,6.14C625.34,170.05,612.82,191.36,591.69,204.41z"/>
					</g>
					<g class="st4">
						<g>
							<path class="st3" d="M706.6,434.44c-7.01,24.05-45.32,34.23-45.32,34.23s-37.85,67.5-149.67,68.65
								c-111.82-1.15-149.66-68.65-149.66-68.65s-38.32-10.19-45.33-34.23c-2.28-7.82-0.44-12.85,3.08-16.08
								c11.41,19.05,42.25,27.24,42.25,27.24s37.84,67.5,149.66,68.65c111.82-1.15,149.67-68.65,149.67-68.65
								s30.82-8.19,42.24-27.24C707.04,421.59,708.89,426.62,706.6,434.44z"/>
						</g>
					</g>
					<g>
						<path class="st2" d="M471.78,222.92c-8.89-8.59-14.97-19.36-15.51-34.41c-0.15-4.21-5.09-6.31-8.23-3.5
							c-13.79,12.33-20.86,29.74-19.78,53.3"/>
					</g>
					<g>
						<path class="st3" d="M428.26,242.13c-2.04,0-3.73-1.6-3.82-3.65c-1.1-23.91,5.99-42.86,21.05-56.32
							c2.57-2.3,6.13-2.89,9.29-1.55c3.16,1.34,5.2,4.32,5.32,7.77c0.46,12.68,5.02,22.79,14.35,31.8c1.52,1.47,1.56,3.89,0.09,5.41
							c-1.47,1.52-3.89,1.56-5.42,0.09c-10.69-10.34-16.15-22.45-16.67-37.03c-0.02-0.6-0.38-0.88-0.67-1
							c-0.29-0.12-0.74-0.19-1.18,0.21c-13.45,12.02-19.5,28.47-18.51,50.27c0.1,2.11-1.54,3.9-3.65,4
							C428.38,242.13,428.32,242.13,428.26,242.13z"/>
					</g>
					<g>
						<path class="st3" d="M359.09,324.56l8.52-17.6c0.72-1.52,3.08-0.7,2.72,0.92c0,0-3.99,19.14-3.99,19.14
							C364.91,332.56,356.85,329.83,359.09,324.56L359.09,324.56z"/>
					</g>
					<g>
						<path class="st2" d="M551.44,222.92c8.89-8.59,14.97-19.36,15.51-34.41c0.15-4.21,5.09-6.31,8.23-3.5
							c13.79,12.33,20.86,29.74,19.78,53.3"/>
					</g>
					<g>
						<path class="st3" d="M598.79,238.48l-7.65-0.35c1-21.81-5.05-38.25-18.5-50.27c-0.45-0.4-0.89-0.34-1.19-0.21
							c-0.29,0.12-0.65,0.4-0.67,1c-0.53,14.58-5.98,26.69-16.67,37.03l-5.33-5.5c9.33-9.02,13.89-19.12,14.35-31.8
							c0.12-3.45,2.16-6.42,5.32-7.77c3.16-1.34,6.72-0.75,9.29,1.55C592.8,195.62,599.88,214.57,598.79,238.48z"/>
					</g>
					<g>
						<path class="st3" d="M511.65,541.16c-58.85-0.61-97.22-19.64-119.05-35.49c-20.24-14.69-30.32-29.23-33.15-33.73
							c-7.51-2.25-39.72-13.16-46.5-36.42c-2.15-7.38-1.32-13.48,2.45-18.15c4.45-5.5,12.11-7.5,18.05-8.2
							c-17.3-21.07-24.18-39.85-18.92-52.19c4.63-10.86,26.11-6.98,37.24-4.13c1.57-10.1,5.18-21.75,6.67-26.33
							c-29.6-38.46-38.62-78.64-26.82-119.44c10-34.54,33.04-61.08,45.89-73.82c3.19-3.17,7.82-4.23,12.09-2.77
							c4.23,1.44,7.22,5.08,7.81,9.49c3.86,29.15,16.57,50.14,37.79,62.37c1.83,1.06,2.46,3.4,1.4,5.23
							c-1.06,1.83-3.4,2.45-5.23,1.4c-23.39-13.48-37.37-36.36-41.55-67.99c-0.2-1.53-1.21-2.75-2.69-3.25
							c-1.52-0.52-3.09-0.16-4.22,0.96c-27.43,27.21-84.01,99.67-17.17,184.73c0.8,1.02,1.03,2.38,0.61,3.6
							c-0.06,0.19-6.41,18.76-7.51,31.02c-0.1,1.14-0.71,2.18-1.66,2.82c-0.95,0.64-2.14,0.83-3.24,0.51
							c-13.85-4.08-30.54-5.67-32.36-1.4c-1.68,3.94-5,19.19,22.82,50.18c1.04,1.16,1.27,2.84,0.59,4.24s-2.17,2.25-3.71,2.13
							c-4.04-0.28-15.5,0.19-19.91,5.66c-2.13,2.64-2.47,6.3-1.05,11.19c6.32,21.67,42.27,31.51,42.64,31.61
							c1,0.27,1.85,0.93,2.35,1.83c0.09,0.16,9.53,16.59,32.17,32.93c20.9,15.08,57.68,33.19,114.19,33.77
							c56.44-0.58,93.21-18.69,114.11-33.77c22.64-16.34,32.08-32.77,32.17-32.93c0.5-0.9,1.36-1.56,2.35-1.82
							c0.36-0.1,36.32-9.94,42.64-31.61c1.43-4.89,1.08-8.55-1.05-11.19c-4.41-5.47-15.88-5.93-19.92-5.66
							c-1.55,0.13-3.03-0.74-3.71-2.14s-0.45-3.07,0.59-4.23c27.82-30.99,24.5-46.24,22.82-50.18c-1.82-4.26-18.51-2.68-32.36,1.4
							c-1.1,0.32-2.29,0.14-3.24-0.51c-0.95-0.64-1.56-1.68-1.66-2.82c-1.1-12.26-7.45-30.84-7.51-31.02
							c-0.42-1.23-0.19-2.58,0.61-3.6c66.84-85.07,10.26-157.53-17.17-184.73c-1.13-1.12-2.7-1.48-4.22-0.96
							c-1.48,0.5-2.48,1.72-2.69,3.25c-4.19,31.63-18.17,54.51-41.55,67.99c-1.83,1.05-4.17,0.43-5.23-1.4
							c-1.06-1.83-0.43-4.17,1.4-5.23c21.22-12.23,33.93-33.22,37.79-62.37c0.58-4.41,3.57-8.05,7.81-9.49
							c4.27-1.45,8.9-0.39,12.09,2.77c12.85,12.74,35.89,39.28,45.89,73.82c11.81,40.8,2.78,80.97-26.82,119.44
							c1.49,4.58,5.1,16.23,6.67,26.33c11.13-2.85,32.61-6.73,37.24,4.13c5.26,12.34-1.62,31.11-18.92,52.19
							c5.93,0.69,13.59,2.7,18.05,8.2c3.78,4.67,4.6,10.77,2.45,18.15c-6.78,23.26-38.99,34.17-46.5,36.42
							c-2.83,4.5-12.91,19.03-33.15,33.73C608.79,521.52,570.43,540.55,511.65,541.16z"/>
					</g>
					<g>
						<path class="st3" d="M656.88,327.02l-3.99-19.14c-0.36-1.64,2.01-2.43,2.72-0.92c0,0,8.52,17.6,8.52,17.6
							C666.37,329.82,658.32,332.57,656.88,327.02L656.88,327.02z"/>
					</g>
					<g>
						<path class="st3" d="M421.78,245.99c-1.26,0-2.49-0.62-3.22-1.76c-1.14-1.78-0.63-4.14,1.15-5.29
							c23.51-15.1,57.11-23.76,92.2-23.76c34.75,0,68.13,8.52,91.59,23.37c1.79,1.13,2.32,3.49,1.18,5.28
							c-1.13,1.79-3.5,2.31-5.28,1.18c-22.27-14.1-54.16-22.18-87.49-22.18c-33.66,0-65.75,8.22-88.06,22.54
							C423.21,245.79,422.49,245.99,421.78,245.99z"/>
					</g>
					<g>
						<path class="st2" d="M511.91,264.44c22.88-7.5,21.34-38.08,0-45.44C490.57,226.37,489.03,256.94,511.91,264.44z"/>
					</g>
					<g>
						<path class="st2" d="M511.91,328.84c25.95-8.51,24.2-43.19,0-51.53C487.71,285.65,485.96,320.33,511.91,328.84z"/>
					</g>
					<g>
						<path class="st2" d="M511.91,382.23c16.78-5.5,15.65-27.93,0-33.33C496.26,354.3,495.13,376.73,511.91,382.23z"/>
					</g>
					<g>
						<path class="st3" d="M511.91,268.27c-0.4,0-0.81-0.06-1.19-0.19c-11.76-3.86-19.13-13.7-19.22-25.69
							c-0.09-12.35,7.43-22.95,19.16-26.99c0.81-0.28,1.69-0.28,2.5,0c11.74,4.05,19.26,14.64,19.16,26.99
							c-0.09,11.99-7.46,21.84-19.22,25.69C512.72,268.21,512.31,268.27,511.91,268.27z M511.91,223.1
							c-7.86,3.25-12.82,10.66-12.76,19.23c0.06,8.32,4.8,14.99,12.76,18.06c7.95-3.07,12.69-9.73,12.76-18.06
							C524.73,233.76,519.76,226.35,511.91,223.1z"/>
					</g>
					<g>
						<path class="st3" d="M511.91,332.66c-0.4,0-0.81-0.06-1.19-0.19c-13.13-4.3-21.34-15.28-21.44-28.66
							c-0.11-13.78,8.29-25.61,21.39-30.12c0.81-0.28,1.69-0.28,2.5,0c13.1,4.52,21.49,16.34,21.39,30.12
							c-0.1,13.37-8.32,24.35-21.44,28.66C512.72,332.6,512.31,332.66,511.91,332.66z M511.91,281.39
							c-9.22,3.73-15.06,12.37-14.98,22.37c0.07,9.73,5.65,17.5,14.98,21.03c9.33-3.52,14.91-11.3,14.98-21.03
							C526.96,293.76,521.13,285.12,511.91,281.39z"/>
					</g>
					<g>
						<path class="st3" d="M511.91,386.06c-0.4,0-0.81-0.06-1.19-0.19c-9.06-2.97-14.73-10.56-14.8-19.81
							c-0.07-9.5,5.72-17.66,14.75-20.77c0.81-0.28,1.69-0.28,2.5,0c9.03,3.11,14.82,11.27,14.75,20.77
							c-0.07,9.25-5.74,16.84-14.8,19.81C512.72,385.99,512.31,386.06,511.91,386.06z M511.91,353.01
							c-6.18,2.73-8.37,8.6-8.34,12.99c0.04,5.54,3.13,10,8.34,12.16c5.2-2.16,8.29-6.62,8.34-12.16
							C520.28,361.6,518.09,355.74,511.91,353.01z"/>
					</g>
					<g>
						<path class="st7" d="M466.7,436.2c4.62-93.43-102.48-120.66-99.35-38.4c13.31,38.41,79.85,74.18,99.31,40"/>
						<path class="st3" d="M466.75,439.34c-0.15,0.45-0.32,0.88-0.51,1.3c-10.91,26.17-61.18,7.7-66.26-9.76
							c1.74-0.68,3.27-1.56,4.56-2.58c0.01,0,0.01-0.01,0.02-0.01c10.67-8.4,6.05-26.43-12.67-27.6c0-33.27,20.18-45.01,40.23-39.23
							C457.43,378.64,466.51,406.16,466.75,439.34z"/>
						<defs>
							<filter id="Adobe_OpacityMaskFilter" filterUnits="userSpaceOnUse" x="406.13" y="423.33" width="55.99" height="25.73">
								<feFlood  style="flood-color:white;flood-opacity:1" result="back"/>
								<feBlend  in="SourceGraphic" in2="back" mode="normal"/>
							</filter>
						</defs>
						<mask maskUnits="userSpaceOnUse" x="406.13" y="423.33" width="55.99" height="25.73" id="SVGID_1_">
							<g class="st8">
								<defs>
									
										<filter id="Adobe_OpacityMaskFilter_1_" filterUnits="userSpaceOnUse" x="406.13" y="423.33" width="55.99" height="25.73">
										<feFlood  style="flood-color:white;flood-opacity:1" result="back"/>
										<feBlend  in="SourceGraphic" in2="back" mode="normal"/>
									</filter>
								</defs>
								<mask maskUnits="userSpaceOnUse" x="406.13" y="423.33" width="55.99" height="25.73" id="SVGID_1_">
									<g class="st9">
									</g>
								</mask>
								
									<linearGradient id="SVGID_2_" gradientUnits="userSpaceOnUse" x1="124.0913" y1="388.5815" x2="116.6463" y2="443.9252" gradientTransform="matrix(1 0 0 1 316.3773 0)">
									<stop  offset="0" style="stop-color:#FFFFFF"/>
									<stop  offset="1" style="stop-color:#000000"/>
								</linearGradient>
								<path class="st10" d="M462.12,438.53c-0.03,0.09-0.08,0.18-0.12,0.28c-3.54,8.49-12.19,10.26-18.82,10.26
									c-14.89,0-31.46-8.37-37.05-16.15h0.39l1.16-1.2c2.03-1.65,3.66-3.63,4.85-5.83c12.27-3.06,35.71-6.25,49.49,8.98
									C462.07,436.07,462.11,437.29,462.12,438.53z"/>
							</g>
						</mask>
						
							<linearGradient id="SVGID_3_" gradientUnits="userSpaceOnUse" x1="124.0913" y1="388.5815" x2="116.6463" y2="443.9252" gradientTransform="matrix(1 0 0 1 316.3773 0)">
							<stop  offset="0" style="stop-color:#FFFFFF"/>
							<stop  offset="1" style="stop-color:#F0F1F1"/>
						</linearGradient>
						<path class="st11" d="M462.12,438.53c-0.03,0.09-0.08,0.18-0.12,0.28c-3.54,8.49-12.19,10.26-18.82,10.26
							c-14.89,0-31.46-8.37-37.05-16.15h0.39l1.16-1.2c2.03-1.65,3.66-3.63,4.85-5.83c12.27-3.06,35.71-6.25,49.49,8.98
							C462.07,436.07,462.11,437.29,462.12,438.53z"/>
						<path class="st3" d="M366.7,397.82c-1.78-15.87,1.11-34.76,14.94-44.97c14.3-10.76,34.57-7.59,49.18,0.75
							c29.87,16.21,41.93,54.35,35.96,86.05c-0.19,0.71-1.19,0.74-1.3-0.06c-1.74-23.28-8.87-45.19-23.94-62.53
							c-9.18-10.95-21.55-20.49-35.94-22.56c-15.25-2.38-28.31,5.98-33.54,20.6c-2.77,7.06-3.76,14.87-4.07,22.67
							C368.01,398.56,366.76,398.62,366.7,397.82L366.7,397.82z"/>
						<ellipse class="st7" cx="440.39" cy="400.66" rx="14.44" ry="20"/>
					</g>
					<g>
						<path class="st7" d="M552.85,436.2c-4.62-93.43,102.48-120.66,99.35-38.4c-13.31,38.41-79.85,74.18-99.31,40"/>
						<path class="st3" d="M552.8,439.34c0.15,0.45,0.32,0.88,0.51,1.3c10.91,26.17,61.18,7.7,66.26-9.76
							c-1.74-0.68-3.27-1.56-4.56-2.58c-0.01,0-0.01-0.01-0.02-0.01c-10.67-8.4-6.05-26.43,12.67-27.6
							c0-33.27-20.18-45.01-40.23-39.23C562.13,378.64,553.05,406.16,552.8,439.34z"/>
						<defs>
							<filter id="Adobe_OpacityMaskFilter_2_" filterUnits="userSpaceOnUse" x="557.44" y="423.33" width="55.99" height="25.73">
								<feFlood  style="flood-color:white;flood-opacity:1" result="back"/>
								<feBlend  in="SourceGraphic" in2="back" mode="normal"/>
							</filter>
						</defs>
						<mask maskUnits="userSpaceOnUse" x="557.44" y="423.33" width="55.99" height="25.73" id="SVGID_4_">
							<g class="st12">
								<defs>
									
										<filter id="Adobe_OpacityMaskFilter_3_" filterUnits="userSpaceOnUse" x="557.44" y="423.33" width="55.99" height="25.73">
										<feFlood  style="flood-color:white;flood-opacity:1" result="back"/>
										<feBlend  in="SourceGraphic" in2="back" mode="normal"/>
									</filter>
								</defs>
								<mask maskUnits="userSpaceOnUse" x="557.44" y="423.33" width="55.99" height="25.73" id="SVGID_4_">
									<g class="st13">
									</g>
								</mask>
								
									<linearGradient id="SVGID_5_" gradientUnits="userSpaceOnUse" x1="736.7983" y1="388.5815" x2="729.3533" y2="443.9252" gradientTransform="matrix(-1 0 0 1 1315.887 0)">
									<stop  offset="0" style="stop-color:#FFFFFF"/>
									<stop  offset="1" style="stop-color:#000000"/>
								</linearGradient>
								<path class="st14" d="M557.44,438.53c0.03,0.09,0.08,0.18,0.12,0.28c3.54,8.49,12.19,10.26,18.82,10.26
									c14.89,0,31.46-8.37,37.05-16.15h-0.39l-1.16-1.2c-2.03-1.65-3.66-3.63-4.85-5.83c-12.27-3.06-35.71-6.25-49.49,8.98
									C557.48,436.07,557.45,437.29,557.44,438.53z"/>
							</g>
						</mask>
						
							<linearGradient id="SVGID_6_" gradientUnits="userSpaceOnUse" x1="736.7983" y1="388.5815" x2="729.3533" y2="443.9252" gradientTransform="matrix(-1 0 0 1 1315.887 0)">
							<stop  offset="0" style="stop-color:#FFFFFF"/>
							<stop  offset="1" style="stop-color:#F0F1F1"/>
						</linearGradient>
						<path class="st15" d="M557.44,438.53c0.03,0.09,0.08,0.18,0.12,0.28c3.54,8.49,12.19,10.26,18.82,10.26
							c14.89,0,31.46-8.37,37.05-16.15h-0.39l-1.16-1.2c-2.03-1.65-3.66-3.63-4.85-5.83c-12.27-3.06-35.71-6.25-49.49,8.98
							C557.48,436.07,557.45,437.29,557.44,438.53z"/>
						<path class="st3" d="M651.56,397.77c-0.35-23.18-10.87-46.81-37.6-43.27c-14.39,2.08-26.75,11.61-35.94,22.56
							c-15.07,17.34-22.2,39.25-23.94,62.53c-0.03,0.36-0.34,0.63-0.7,0.6c-0.3-0.02-0.54-0.25-0.59-0.54
							c-4.28-23.61,0.87-50.63,16.54-69.83c10.86-12.99,26.6-22.54,43.82-23.75c18.65-1.42,33.77,9.77,38.32,27.76
							c2.05,7.98,2.2,16.11,1.4,23.99C652.75,398.61,651.59,398.58,651.56,397.77L651.56,397.77z"/>
						<ellipse class="st7" cx="579.16" cy="400.66" rx="14.44" ry="20"/>
					</g>
					<g>
						<path class="st3" d="M473.92,457.66c20.35-17.48,51.45-17.73,71.73,0c0.8,0.66,0.01,2.03-0.96,1.65
							c-16.98-6.22-34.58-9.71-52.34-5.28c-5.82,1.27-11.55,3.22-17.45,5.28C473.9,459.68,473.09,458.33,473.92,457.66
							L473.92,457.66z"/>
					</g>
					<g>
						<path class="st3" d="M488.4,462.53c4.7,0.02,9.46,2.23,11.75,6.54c2.21,3.9-3.43,7.27-5.83,3.49
							c-0.68-1.07-0.34-2.23-0.88-3.38c-0.27-0.64-0.64-1.32-1.18-1.93c-1.09-1.3-2.66-2.42-4.22-3.14
							C487.24,463.76,487.55,462.49,488.4,462.53L488.4,462.53z"/>
					</g>
					<g>
						<path class="st3" d="M533.46,464.15c-2.74,1.31-5.62,3.77-5.73,6.96c-0.16,1.87-1.8,3.25-3.67,3.1
							c-2.59-0.15-4-3.31-2.49-5.36c1.24-2.18,3.16-3.93,5.37-4.93c2.02-0.92,4.05-1.35,6.24-1.38c0.46,0,0.83,0.36,0.84,0.82
							C534.02,463.72,533.78,464.02,533.46,464.15L533.46,464.15z"/>
					</g>
					<g class="st4">
						<g>
							<path class="st3" d="M687.07,353.98c0,0,7.42,28.45-22.62,58.45c0,0,14.42,4.69,28.73-13.95s17.74-36.06,11.4-41.05
								c-6.34-4.99-11.82-4.99-11.82-4.99"/>
						</g>
					</g>
					<g class="st4">
						<g>
							<path class="st3" d="M336.17,353.98c0,0-7.42,28.45,22.62,58.45c0,0-14.42,4.69-28.73-13.95
								c-14.31-18.64-17.74-36.06-11.4-41.05c6.34-4.99,11.82-4.99,11.82-4.99"/>
						</g>
					</g>
					<g class="st4">
						<g>
							<path class="st3" d="M381.4,284.64c0,0-12.27,20.72-19.24,40.44c-65.25-83.82-14.06-155.66,14.42-185.4
								C376.07,140.52,325.08,224.94,381.4,284.64z"/>
						</g>
					</g>
					<g class="st4">
						<g>
							<path class="st3" d="M642.44,284.64c0,0,12.27,20.72,19.24,40.44c65.25-83.82,14.06-155.66-14.42-185.4
								C647.77,140.52,698.77,224.94,642.44,284.64z"/>
						</g>
					</g>
				</g>
				<g>
					<path class="st3" d="M612.31,788.12c-18.39,0-36.81-3.58-46.87-9.95c-5.33-3.38-7.71-7.02-8.56-10.32
						c-30.29,7.8-60.92,7.8-91.21,0c-0.85,3.3-3.23,6.94-8.56,10.32c-19.8,12.54-71.99,14.26-92.61-0.83
						c-8.81-6.45-12.93-13.13-12.24-19.88c0.77-7.47,7.34-12.42,10.99-14.62c-1.26-21.19,4.44-34.91,7.21-40.21
						c-24.42-33.7-2.03-94.7,22.29-128.04c26.88-36.87,28.52-54.77,28.53-54.95c0.16-2.09,1.97-3.7,4.08-3.54
						c2.1,0.14,3.69,1.93,3.57,4.02c-0.05,0.79-1.46,19.86-29.98,58.97c-27.09,37.15-42.78,93.9-20.92,120.82
						c1.06,1.31,1.14,3.15,0.2,4.55c-0.08,0.13-9.31,14.41-7.16,40.24c0.13,1.61-0.76,3.13-2.23,3.8c-2.32,1.07-8.47,4.92-8.95,9.76
						c-0.48,4.79,4.71,9.66,9.15,12.91c17.87,13.07,66.77,11.44,83.98,0.54c6.11-3.87,5.49-7.03,5.29-8.07
						c-0.25-1.3,0.19-2.65,1.17-3.55s2.36-1.22,3.64-0.86c31.96,9.09,64.37,9.09,96.33,0c1.28-0.36,2.66-0.04,3.64,0.86
						c0.98,0.9,1.42,2.24,1.17,3.55c-0.2,1.04-0.82,4.2,5.29,8.07c17.21,10.9,66.11,12.53,83.98-0.54
						c4.44-3.24,9.63-8.12,9.15-12.91c-0.48-4.83-6.63-8.69-8.96-9.76c-1.46-0.68-2.35-2.19-2.22-3.79
						c2.15-25.83-7.07-40.11-7.17-40.25c-0.92-1.39-0.84-3.24,0.21-4.53c21.87-26.92,6.17-83.67-20.92-120.82
						c-28.52-39.11-29.94-58.18-29.98-58.97c-0.12-2.11,1.49-3.92,3.6-4.04c2.11-0.13,3.92,1.49,4.05,3.59
						c0.01,0.14,1.65,18.05,28.53,54.91c24.31,33.34,46.71,94.34,22.29,128.04c2.76,5.3,8.47,19.02,7.21,40.21
						c3.65,2.2,10.22,7.15,10.99,14.62c0.69,6.74-3.42,13.43-12.24,19.88C647.9,784.76,630.12,788.12,612.31,788.12z"/>
				</g>
				<g>
					<path class="st3" d="M367.25,748.85c-1.66,0-3.19-1.08-3.68-2.75c-0.59-2.03,0.57-4.15,2.6-4.74c0.35-0.1,8.78-2.53,18.65-2.65
						c0.02,0,0.03,0,0.05,0c2.09,0,3.8,1.68,3.83,3.78c0.03,2.11-1.67,3.85-3.78,3.87c-8.78,0.11-16.51,2.33-16.59,2.35
						C367.96,748.8,367.6,748.85,367.25,748.85z"/>
				</g>
				<g>
					<path class="st3" d="M407.78,787.05c-0.05,0-0.1,0-0.15,0c-1.45-0.08-2.59-1.28-2.59-2.73c0-15.49-5.9-24.47-9.98-24.75
						c-3.7-0.25-8.36,6.37-10.52,21.75c-0.21,1.47-1.55,2.51-3.04,2.33c-1.48-0.18-2.54-1.51-2.39-2.99
						c1.59-15.42-3.43-21.92-6.98-22.4c-2.99-0.4-6.84,3.07-8.26,11.63c-0.25,1.49-1.66,2.5-3.14,2.25
						c-1.49-0.25-2.5-1.65-2.25-3.14c2.02-12.22,8.65-16.93,14.38-16.16c4.26,0.57,8.39,4.27,10.52,11.24
						c4.11-9.2,9.4-10.16,12.05-9.98c5.74,0.4,10.54,6.33,13.09,15.17c3.43-8.39,8.52-12.07,13.17-11.84
						c6.02,0.32,12.47,7.11,12.52,25.2c0,1.51-1.22,2.73-2.73,2.74c0,0,0,0-0.01,0c-1.51,0-2.73-1.22-2.74-2.72
						c-0.04-14.21-4.41-19.6-7.34-19.76c-3.49-0.21-9.22,6.42-10.91,21.71C410.34,786,409.16,787.05,407.78,787.05z"/>
				</g>
				<g>
					<path class="st3" d="M655.31,748.85c-0.36,0-0.72-0.05-1.08-0.16c-0.18-0.05-7.87-2.24-16.59-2.35
						c-2.11-0.03-3.81-1.76-3.78-3.87c0.03-2.11,1.71-3.79,3.88-3.78c9.87,0.12,18.29,2.55,18.65,2.65c2.03,0.59,3.19,2.72,2.6,4.74
						C658.49,747.77,656.96,748.85,655.31,748.85z"/>
				</g>
				<g>
					<path class="st3" d="M614.77,787.05c-1.38,0-2.56-1.04-2.72-2.43c-1.66-15.07-7.24-21.71-10.76-21.71c-0.05,0-0.1,0-0.15,0
						c-2.93,0.16-7.3,5.55-7.34,19.76c0,1.51-1.23,2.72-2.74,2.72c0,0,0,0-0.01,0c-1.51,0-2.73-1.23-2.73-2.74
						c0.05-18.09,6.5-24.88,12.52-25.2c4.64-0.24,9.74,3.45,13.17,11.84c2.55-8.85,7.35-14.77,13.09-15.17
						c2.66-0.19,7.94,0.78,12.05,9.98c2.13-6.97,6.27-10.67,10.53-11.24c5.71-0.77,12.36,3.94,14.38,16.16
						c0.25,1.49-0.76,2.89-2.25,3.14c-1.49,0.25-2.9-0.76-3.14-2.25c-1.42-8.57-5.29-12.05-8.26-11.63
						c-3.54,0.47-8.57,6.97-6.98,22.4c0.15,1.48-0.91,2.81-2.39,2.99c-1.49,0.18-2.83-0.86-3.04-2.33
						c-2.15-15.38-6.83-22.04-10.52-21.75c-4.08,0.28-9.98,9.26-9.98,24.75c0,1.45-1.14,2.65-2.59,2.73
						C614.87,787.04,614.82,787.05,614.77,787.05z"/>
				</g>
				<g>
					<path class="st3" d="M462.06,766.74c-1.31,0-2.59-0.67-3.3-1.89c-6.02-10.21-8.28-26.41-8.38-27.1
						c-0.28-2.09,1.18-4.02,3.28-4.31c2.1-0.29,4.03,1.18,4.31,3.27c0.02,0.15,2.16,15.38,7.39,24.25c1.07,1.82,0.47,4.17-1.36,5.24
						C463.39,766.56,462.72,766.74,462.06,766.74z"/>
				</g>
				<g>
					<path class="st3" d="M559.72,766.74c-0.66,0-1.33-0.17-1.94-0.53c-1.82-1.07-2.43-3.42-1.36-5.24
						c5.23-8.88,7.37-24.1,7.39-24.25c0.29-2.09,2.22-3.55,4.31-3.27c2.09,0.29,3.56,2.21,3.28,4.31
						c-0.09,0.68-2.36,16.89-8.38,27.1C562.31,766.06,561.04,766.74,559.72,766.74z"/>
				</g>
				<g>
					<path class="st3" d="M231.78,581.54c-0.56,0-1.13-0.12-1.67-0.38c-1.64-0.79-2.49-2.62-2.05-4.38
						c12.1-47.82,60.76-110.95,117.08-100.03c1.29,0.25,2.37,1.15,2.84,2.37c0.48,1.23,0.29,2.61-0.5,3.67l-7.87,10.55
						c17.31,13.06,48.38,30.79,80.47,21.13c2.03-0.61,4.16,0.54,4.77,2.56c0.61,2.02-0.54,4.16-2.56,4.76
						c-27.67,8.32-59.77-0.46-90.38-24.74c-1.62-1.29-1.92-3.62-0.69-5.28l6.26-8.4c-26.56-2.4-48.57,13.29-62.75,27.47
						c-13.68,13.69-25.55,31.7-33.16,49.79c14.69-15.39,40.4-38.1,69.06-44.47c1.16-0.26,2.37,0.04,3.28,0.79
						c0.47,0.39,48.17,38.91,105.69,12.99c1.93-0.87,4.2-0.01,5.07,1.91c0.87,1.93,0.01,4.19-1.92,5.06
						c-32.4,14.6-61.58,10.01-80.36,3.59c-16.49-5.64-27.86-13.49-31.83-16.47c-40.14,9.99-75.41,55.52-75.77,55.99
						C234.08,581.01,232.95,581.54,231.78,581.54z"/>
				</g>
				<g>
					<path class="st3" d="M280.69,622.31c-0.34,0-0.68-0.05-1.02-0.14c-1.13-0.31-2.06-1.12-2.51-2.2
						c-18.38-43.77-43.46-38.76-44.51-38.52c-2.06,0.46-4.11-0.83-4.58-2.87c-0.47-2.05,0.78-4.09,2.82-4.58
						c1.27-0.3,30.57-6.72,51.53,38.91c9.03-5.01,32.68-14.81,66.11-4.44c5.56-9.29,18.44-21.99,37.1-18.15
						c2.07,0.43,3.4,2.45,2.98,4.52c-0.43,2.07-2.45,3.4-4.52,2.97c-20.11-4.15-30.13,16.69-30.22,16.9c-0.83,1.77-2.86,2.63-4.71,2
						c-40.16-13.73-65.14,4.08-66.19,4.84C282.3,622.05,281.5,622.31,280.69,622.31z"/>
				</g>
				<g>
					<path class="st3" d="M280.7,621.22c-0.04,0-0.09,0-0.13,0c-1.51-0.07-2.68-1.35-2.6-2.86c3.09-65.52,28.74-98.41,29.83-99.78
						c0.65-0.81,1.7-1.19,2.71-0.97c1.01,0.22,1.82,0.99,2.08,1.99c0.13,0.51,13.34,51.34,40.1,92c0.83,1.26,0.48,2.95-0.78,3.78
						c-1.26,0.83-2.96,0.48-3.79-0.78c-21.94-33.33-34.92-73.3-39.22-87.93c-6.96,11.14-23.11,42.02-25.46,91.94
						C283.36,620.08,282.15,621.22,280.7,621.22z"/>
				</g>
				<g class="st4">
					<g>
						<path class="st3" d="M251.09,556.61c23.44-14.14,36.11-10.35,33.55,18.8l3.18,4.9c12.19-25.62,24.94-31.79,38.68-4.04
							l6.95,4.04c-6.95-36.06,69.97-14.33,86.13-42.98c0,0-67.26,15.38-109.65-17.05C309.93,520.28,272.7,534.06,251.09,556.61z"/>
					</g>
				</g>
				<g class="st4">
					<g>
						<path class="st3" d="M366.76,774.25c-3.17-2.32-5.51-4.52-7.17-6.61c44.91,9.4,92.31,21.76,79.87-36.75
							c0,0,8.21,0.08,15.37,10.14c2.83,3.98,5.31,12.83,7.28,22.08C465.83,784.88,391.14,792.08,366.76,774.25z"/>
					</g>
				</g>
				<g class="st4">
					<g>
						<path class="st3" d="M655.2,774.25c3.17-2.32,5.51-4.52,7.17-6.61c-44.91,9.4-92.31,21.76-79.87-36.75
							c0,0-8.21,0.08-15.37,10.14c-2.83,3.98-5.31,12.83-7.28,22.08C556.13,784.88,630.82,792.08,655.2,774.25z"/>
					</g>
				</g>
				<g>
					<g>
						<path class="st1" d="M384.86,633.68c0,0,31.19-45.29,55.17-35.19s37.84,59.42,23.39,79.62c-14.44,20.19-64.99,7.21-64.99,7.21
							"/>
					</g>
					<g>
						<path class="st2" d="M468.24,655.79c-19.28-0.95-29.82-5.15-3.85-22.88c-23.3,6.54-35.6-3.49-11.75-21.92
							c-12.66,11.24-39.86,8.08-16.84-13.71C435.8,597.28,468.62,604.25,468.24,655.79z"/>
					</g>
					<g>
						<path class="st3" d="M384.07,633.14c8.69-16.15,24.43-35.11,42.96-39.63c11.35-2.73,21.8,3.71,28.75,12.28
							c14.89,17.98,24.75,54.64,10.4,75c-4.95,6.61-12.99,10.06-20.87,11.46c-6.18,1.03-12.58,0.93-18.69,0.36
							c-9.79-0.94-19.28-3.1-28.42-6.37c-1.07-0.41-0.66-2.03,0.48-1.85c16.13,1.75,48.44,4.85,60.47-7.1
							c9.08-11.06,6.84-29.5,3.03-42.61c-4.11-13.02-11.76-27.83-24.96-32.81c-11.27-3.16-22.78,5.96-31.24,12.79
							c-7.06,5.98-13.75,12.68-20.32,19.56C384.95,635.06,383.54,634.11,384.07,633.14L384.07,633.14z"/>
					</g>
					<g>
						<path class="st3" d="M468.24,658.53c-0.05,0-0.09,0-0.14,0c-14.01-0.69-20.29-2.96-21.67-7.83
							c-1.05-3.71,1.16-7.82,7.24-13.11c-7.89,0.46-13.62-1.56-15.8-5.88c-1.34-2.66-1.6-6.6,2.13-12.03
							c-5.69,0.91-11.05-0.01-13.83-3.04c-2.57-2.8-4.98-9.29,7.76-21.35c1.09-1.04,2.83-0.99,3.87,0.1
							c1.04,1.09,0.99,2.82-0.11,3.86c-7.92,7.5-8.99,12.06-7.49,13.69c2.51,2.73,12,2.23,18.88-2.62c0.6-0.49,1.23-0.99,1.89-1.5
							c1.17-0.9,2.84-0.72,3.78,0.42c0.94,1.13,0.82,2.81-0.29,3.79c-0.63,0.56-1.28,1.08-1.97,1.57
							c-8.89,7.3-10.86,12.42-9.73,14.65c1.47,2.92,9.3,4.28,20.89,1.02c1.29-0.36,2.65,0.26,3.22,1.47
							c0.57,1.21,0.17,2.66-0.93,3.41c-14.83,10.13-14.34,13.67-14.23,14.04c0.2,0.72,2.01,3.13,16.67,3.86
							c1.51,0.07,2.67,1.36,2.6,2.86C470.9,657.39,469.69,658.53,468.24,658.53z"/>
					</g>
				</g>
				<g>
					<g>
						<path class="st1" d="M637.69,633.68c0,0-31.19-45.29-55.17-35.19s-37.84,59.42-23.39,79.62c14.44,20.19,64.99,7.21,64.99,7.21
							"/>
					</g>
					<g>
						<path class="st2" d="M554.31,655.79c19.28-0.95,29.82-5.15,3.85-22.88c23.3,6.54,35.6-3.49,11.75-21.92
							c12.66,11.24,39.86,8.08,16.84-13.71C586.75,597.28,553.93,604.25,554.31,655.79z"/>
					</g>
					<g>
						<path class="st3" d="M636.9,634.22c-11.51-11.43-36.88-40.36-54.25-31.24c-11.65,6.29-18.32,19.21-22.27,31.7
							c-3.81,13.07-6.04,31.59,3.03,42.61c11.98,11.94,44.35,8.86,60.47,7.11c1.11-0.21,1.58,1.48,0.48,1.85
							c-9.14,3.27-18.63,5.42-28.42,6.37c-6.11,0.57-12.51,0.67-18.69-0.36c-7.87-1.4-15.92-4.85-20.87-11.46
							c-14.35-20.35-4.49-57.01,10.4-75c17.54-21.34,37.6-13.2,54.5,3.83c6.82,7.04,12.68,14.84,17.21,23.52
							C638.97,634.13,637.64,635.05,636.9,634.22L636.9,634.22z"/>
					</g>
					<g>
						<path class="st3" d="M554.31,658.53c-1.45,0-2.66-1.14-2.73-2.6c-0.07-1.51,1.09-2.79,2.6-2.86
							c14.66-0.73,16.47-3.14,16.67-3.86c0.11-0.37,0.6-3.91-14.23-14.04c-1.1-0.75-1.5-2.2-0.93-3.41
							c0.57-1.21,1.93-1.83,3.22-1.47c11.59,3.25,19.42,1.9,20.89-1.02c1.13-2.24-0.84-7.35-9.73-14.65
							c-0.69-0.49-1.35-1.02-1.97-1.57c-1.1-0.98-1.23-2.65-0.29-3.79c0.94-1.13,2.61-1.32,3.78-0.42c0.66,0.51,1.29,1.01,1.89,1.5
							c6.88,4.86,16.38,5.35,18.88,2.62c1.5-1.63,0.43-6.19-7.49-13.69c-1.1-1.04-1.14-2.77-0.11-3.86c1.04-1.1,2.77-1.14,3.87-0.1
							c12.74,12.06,10.33,18.55,7.76,21.35c-2.79,3.03-8.15,3.95-13.83,3.04c3.73,5.42,3.47,9.36,2.13,12.03
							c-2.17,4.32-7.91,6.34-15.8,5.87c6.08,5.28,8.28,9.4,7.24,13.11c-1.38,4.87-7.66,7.14-21.67,7.83
							C554.4,658.52,554.36,658.53,554.31,658.53z"/>
					</g>
				</g>
				<g class="st4">
					<g>
						<path class="st3" d="M367.24,633.47c0,0-3.03,69.97,101,10.25c0,0,3.54,37.27-14.06,43.55c-17.6,6.28-80.12,1.66-90.44-18.84"
							/>
					</g>
				</g>
				<g class="st4">
					<g>
						<path class="st3" d="M654.54,633.47c0,0,3.03,69.97-101,10.25c0,0-3.54,37.27,14.06,43.55c17.6,6.28,80.12,1.66,90.44-18.84"
							/>
					</g>
				</g>
				<g>
					<g>
						<path class="st16" d="M542.06,592.09c0,0-3.28,8.7-10.91,8.13c-16.09-1.19-21.37-43.2-21.37-43.2s-5.28,42.01-21.37,43.2
							c-7.63,0.57-10.91-8.13-10.91-8.13s-5.49,16.87-1.85,34.35c8.22,39.6,60.04,39.6,68.27,0
							C547.55,608.96,542.06,592.09,542.06,592.09z"/>
					</g>
					<g>
						<path class="st17" d="M526.79,612.41c0,0-1.73,4.58-5.75,4.29c-8.48-0.63-11.26-22.76-11.26-22.76s-2.78,22.13-11.26,22.76
							c-4.02,0.3-5.75-4.29-5.75-4.29s-2.89,8.89-0.98,18.1c4.33,20.86,31.63,20.86,35.97,0
							C529.68,621.3,526.79,612.41,526.79,612.41z"/>
					</g>
					<g>
						<path class="st3" d="M509.78,659.96C509.78,659.96,509.78,659.96,509.78,659.96c-15.47,0-33.19-10.13-37.88-32.75
							c-3.79-18.27,1.72-35.58,1.96-36.31l3.37-10.38l3.85,10.21c0.02,0.04,2.27,5.68,6.66,5.68c0.13,0,0.25,0,0.38-0.01
							c9.78-0.72,16.25-27.17,17.85-39.86l3.8-30.07l3.8,30.07c1.6,12.69,8.08,39.14,17.86,39.86c4.67,0.35,7.03-5.63,7.05-5.69
							l3.9-9.98l3.32,10.16c0.24,0.73,5.76,18.05,1.96,36.32C542.96,649.84,525.25,659.96,509.78,659.96z M479.36,601.03
							c-1.07,6.21-1.89,15.39,0.03,24.63c4.09,19.67,18.92,26.65,30.38,26.65c0,0,0,0,0,0c11.46,0,26.3-6.98,30.39-26.65
							c1.92-9.24,1.1-18.42,0.03-24.63c-2.39,1.94-5.5,3.29-9.33,3.01c-11.03-0.82-17.51-15.3-21.09-27.97
							c-3.58,12.67-10.06,27.15-21.09,27.97C484.85,604.32,481.75,602.98,479.36,601.03z"/>
					</g>
				</g>
				<g>
					<g>
						<path class="st3" d="M516.55,521.13c17.38-3.61,21.95-16.3,22.99-24.88c0.42-3.49-2.96-6.16-6.26-4.95
							c-4.65,1.7-12.15,3.41-23.51,3.41s-18.86-1.72-23.51-3.41c-3.3-1.21-6.68,1.47-6.26,4.95c1.04,8.58,5.61,21.28,22.99,24.88
							C507.46,522.05,512.09,522.05,516.55,521.13z"/>
					</g>
					<g>
						<path class="st1" d="M495.54,518.72c0,0,2.32-12.31,14.24-12.31s14.25,12.31,14.25,12.31S510.23,525.3,495.54,518.72z"/>
					</g>
					<g>
						<path class="st3" d="M509.78,525.64c-2.54,0-5.08-0.26-7.55-0.77c-20.16-4.18-24.95-19.44-26.01-28.17
							c-0.36-2.97,0.82-5.84,3.15-7.69c2.34-1.85,5.41-2.34,8.22-1.32c3.98,1.45,11.06,3.18,22.19,3.18
							c11.14,0,18.22-1.73,22.19-3.18c2.81-1.02,5.89-0.53,8.22,1.32c2.33,1.85,3.51,4.72,3.15,7.69
							c-1.06,8.72-5.85,23.98-26.02,28.17C514.86,525.39,512.32,525.64,509.78,525.64z M484.63,494.82c-0.22,0-0.4,0.09-0.51,0.18
							c-0.17,0.13-0.36,0.37-0.31,0.78c0.99,8.17,5.27,18.55,19.97,21.6c3.92,0.82,8.07,0.82,11.99,0c0,0,0,0,0,0
							c14.7-3.05,18.98-13.43,19.97-21.6c0.05-0.4-0.14-0.64-0.31-0.78c-0.17-0.14-0.45-0.26-0.84-0.12
							c-6.63,2.42-14.98,3.65-24.82,3.65c-9.84,0-18.19-1.23-24.82-3.65C484.84,494.84,484.73,494.82,484.63,494.82z"/>
					</g>
				</g>
			</g>
		</g>
		<g class="st18">
			<g>
				<ellipse class="st3" cx="523.42" cy="857.1" rx="165.66" ry="26.85"/>
			</g>
		</g>
		<g>
			<g>
				<path class="st7" d="M286.66,316.81c4.19-6.85,6.26-15.08,5.38-23.69c-2.15-20.89-20.85-36.09-41.77-33.94
					c-20.92,2.15-36.14,20.82-33.99,41.71c2.15,20.89,20.85,36.09,41.77,33.94c5.82-0.6,11.19-2.48,15.88-5.32l17.62,3.95
					L286.66,316.81z"/>
			</g>
			<g class="st19">
				<g>
					<path class="st7" d="M251.02,266.45c19.54-2,37.14,11.13,41.13,29.9c0-1.34-0.05-2.69-0.19-4.06
						c-2.15-20.89-20.85-36.09-41.77-33.95c-20.92,2.15-36.14,20.82-33.99,41.71c0.14,1.37,0.36,2.71,0.64,4.03
						C216.91,284.9,231.47,268.46,251.02,266.45z"/>
				</g>
			</g>
			<g>
				<path class="st3" d="M254.13,338.65c-21.09,0-39.24-15.99-41.44-37.39c-1.14-11.06,2.11-21.91,9.13-30.53s17-14,28.08-15.14
					c22.86-2.35,43.38,14.33,45.73,37.17c0.88,8.6-0.87,17.05-5.07,24.54l4.45,15.15c0.36,1.23,0.04,2.55-0.83,3.49
					c-0.88,0.93-2.18,1.33-3.43,1.05l-16.23-3.64c-4.97,2.78-10.38,4.49-16.11,5.08C256.98,338.58,255.55,338.65,254.13,338.65z
					 M254.19,262.59c-1.17,0-2.36,0.06-3.55,0.18c-9.16,0.94-17.4,5.38-23.21,12.51c-5.81,7.13-8.49,16.09-7.55,25.24
					c1.94,18.88,18.91,32.66,37.8,30.72c5.14-0.53,9.98-2.15,14.37-4.82c0.8-0.49,1.76-0.64,2.67-0.44l11.63,2.6l-3.16-10.77
					c-0.29-0.98-0.15-2.03,0.38-2.9c3.96-6.47,5.64-13.88,4.87-21.44C286.62,275.8,271.62,262.59,254.19,262.59z"/>
			</g>
			<g class="st4">
				<g>
					<path class="st3" d="M286.87,316.45c-10.43,8.81-24.8,12.67-39.06,9.12c-15.82-3.93-27.48-15.97-31.67-30.57
						c-0.1,1.94-0.06,3.9,0.15,5.89c2.15,20.89,20.85,36.09,41.77,33.94c5.82-0.6,11.19-2.48,15.88-5.32l17.62,3.95l-4.89-16.65
						C286.73,316.69,286.8,316.57,286.87,316.45z"/>
				</g>
			</g>
			<g>
				<path class="st20" d="M266.34,286.33L266.34,286.33c-3.3-3.29-8.64-2.7-11.93,0.59l-0.51,0.51l-0.51-0.51
					c-3.3-3.29-8.64-3.88-11.93-0.59l0,0c-3.3,3.29-3.3,8.63,0,11.92l0.51,0.51l10.36,10.35c0.87,0.87,2.28,0.87,3.15,0l10.36-10.35
					l0.51-0.51C269.63,294.96,269.63,289.62,266.34,286.33z"/>
			</g>
		</g>
	</g>
</g>
</svg>
